{"glyphs":{"0":{"ha":857,"x_min":50,"x_max":807,"o":"m 428 -8 q 264 30 335 -8 q 145 133 193 68 q 74 281 97 199 q 50 453 50 364 q 74 624 50 542 q 145 770 97 706 q 264 872 193 835 q 428 910 335 910 q 593 872 522 910 q 711 769 664 835 q 783 622 758 704 q 807 453 807 540 q 783 281 807 364 q 711 133 758 199 q 593 30 664 68 q 428 -8 522 -8 m 428 18 q 606 69 526 17 q 731 218 685 121 q 779 451 778 315 q 731 683 778 586 q 606 833 685 781 q 428 883 526 885 q 251 833 331 885 q 126 683 172 781 q 78 451 79 586 q 126 218 79 315 q 251 69 172 121 q 428 18 331 17 z "},"1":{"ha":428,"x_min":82,"x_max":264,"o":"m 82 904 l 264 904 l 264 0 l 236 0 l 236 876 l 82 876 l 82 904 z "},"2":{"ha":689,"x_min":68,"x_max":629,"o":"m 74 0 q 246 170 163 86 q 396 335 329 254 q 501 494 463 417 q 539 643 539 571 q 518 760 539 713 q 464 836 497 808 q 392 876 431 864 q 319 889 354 889 q 209 865 253 889 q 140 805 165 842 q 106 727 115 768 q 96 651 96 686 q 110 562 96 601 q 150 493 124 522 l 133 478 q 99 526 114 500 q 76 582 85 551 q 68 650 68 613 q 97 785 68 725 q 183 880 126 844 q 321 915 239 915 q 450 880 394 915 q 536 783 506 844 q 567 644 567 722 q 526 484 567 564 q 418 325 485 404 q 274 168 351 246 q 126 17 197 90 l 119 26 l 629 26 l 629 0 l 74 0 z "},"3":{"ha":719,"x_min":103,"x_max":624,"o":"m 564 904 l 251 521 l 229 524 q 286 547 254 539 q 354 554 318 554 q 458 542 410 557 q 544 494 507 526 q 603 412 582 461 q 624 299 624 363 q 583 137 624 207 q 473 28 543 67 q 311 -11 403 -11 q 194 14 249 -11 q 103 81 140 39 l 117 101 q 202 39 150 63 q 311 15 254 15 q 460 51 396 15 q 560 152 524 88 q 596 300 596 217 q 528 469 596 407 q 350 531 461 531 q 275 521 313 531 q 213 497 238 511 l 207 501 l 519 888 l 524 878 l 119 878 l 119 904 l 564 904 z "},"4":{"ha":703,"x_min":32,"x_max":678,"o":"m 32 251 l 32 253 l 543 915 l 544 915 l 544 276 l 678 276 l 678 251 l 544 251 l 544 0 l 517 0 l 517 251 l 32 251 m 521 846 l 78 272 l 71 276 l 517 276 l 517 860 l 521 846 z "},"5":{"ha":754,"x_min":154,"x_max":639,"o":"m 353 -11 q 244 10 294 -11 q 154 68 193 31 l 172 86 q 251 33 206 53 q 349 14 297 14 q 481 50 422 14 q 576 144 540 86 q 611 272 611 203 q 576 401 611 343 q 483 493 542 458 q 351 528 425 528 q 262 511 303 528 q 196 472 221 494 l 194 472 l 194 904 l 596 904 l 596 878 l 221 878 l 221 508 l 213 517 q 279 543 239 533 q 357 553 319 553 q 500 515 436 551 q 601 414 564 478 q 639 272 639 350 q 600 130 639 194 q 497 27 561 65 q 353 -11 432 -11 z "},"6":{"ha":722,"x_min":68,"x_max":640,"o":"m 354 -11 q 210 27 275 -11 q 107 130 146 65 q 68 274 68 194 q 110 469 68 379 q 221 633 153 558 q 369 773 289 708 q 526 894 450 838 l 544 871 q 342 716 428 793 q 201 565 256 639 q 126 422 147 490 l 118 426 q 222 519 157 488 q 358 551 286 551 q 500 513 436 551 q 602 411 564 475 q 640 269 640 347 q 602 128 640 192 q 499 26 564 64 q 354 -11 433 -11 m 353 14 q 484 49 425 14 q 578 141 543 83 q 613 269 613 199 q 578 399 613 340 q 484 492 543 457 q 353 526 425 526 q 223 496 282 526 q 129 410 164 465 q 94 281 94 354 l 94 269 q 129 141 94 199 q 223 49 164 83 q 353 14 282 14 z "},"7":{"ha":661,"x_min":63,"x_max":622,"o":"m 622 904 l 219 0 l 186 0 l 586 890 l 603 878 l 63 878 l 63 904 l 622 904 z "},"8":{"ha":706,"x_min":68,"x_max":639,"o":"m 68 272 q 95 393 68 338 q 169 487 122 449 q 275 542 215 525 q 181 607 218 560 q 144 711 144 654 q 169 815 144 769 q 239 888 193 861 q 347 915 285 915 q 456 888 410 915 q 526 813 501 860 q 550 710 550 767 q 515 607 550 653 q 425 542 479 561 q 533 488 485 526 q 610 394 582 449 q 639 272 639 339 q 599 130 639 194 q 494 27 560 65 q 351 -11 429 -11 q 208 27 272 -11 q 106 130 144 65 q 68 272 68 194 l 68 272 m 94 272 q 128 144 94 203 q 220 49 163 85 q 349 14 278 14 q 481 49 421 14 q 576 144 540 85 q 611 272 611 203 q 576 401 611 343 q 481 493 540 458 q 349 528 421 528 q 220 493 278 528 q 128 401 163 458 q 94 272 94 343 l 94 272 m 171 710 q 223 597 171 642 q 350 551 275 551 q 473 597 424 551 q 522 710 522 642 q 473 841 522 792 q 350 890 424 890 q 223 841 275 890 q 171 710 171 792 l 171 710 z "},"9":{"ha":728,"x_min":68,"x_max":640,"o":"m 351 318 q 209 358 274 318 q 106 464 144 397 q 68 611 68 531 q 107 759 68 693 q 210 865 146 825 q 354 904 275 904 q 499 868 433 904 q 602 767 564 832 q 640 610 640 701 q 599 419 640 507 q 488 254 557 331 q 338 112 419 178 q 181 -11 257 46 l 161 13 q 369 170 283 93 q 505 315 454 247 q 576 435 556 382 l 597 442 q 492 348 549 378 q 351 318 436 318 m 356 344 q 543 413 472 344 q 614 604 614 481 l 614 622 q 574 756 610 699 q 482 844 539 813 q 356 876 425 876 q 226 841 285 876 q 131 746 167 806 q 96 611 96 686 q 131 476 96 536 q 226 380 167 415 q 356 344 285 344 z "},"A":{"ha":985,"x_min":88,"x_max":899,"o":"m 88 0 l 492 1019 l 494 1019 l 899 0 l 868 0 l 485 974 l 503 978 l 115 0 l 88 0 m 256 390 l 732 390 l 735 365 l 253 365 l 256 390 z "},"Á":{"ha":985,"x_min":88,"x_max":899,"o":"m 88 0 l 492 1019 l 494 1019 l 899 0 l 868 0 l 485 974 l 503 978 l 115 0 l 88 0 m 256 390 l 732 390 l 735 365 l 253 365 l 256 390 m 638 1214 l 510 1029 l 483 1029 l 607 1214 l 638 1214 z "},"Ă":{"ha":985,"x_min":88,"x_max":899,"o":"m 88 0 l 492 1019 l 494 1019 l 899 0 l 868 0 l 485 974 l 503 978 l 115 0 l 88 0 m 256 390 l 732 390 l 735 365 l 253 365 l 256 390 m 496 1050 q 409 1078 447 1050 q 347 1157 371 1107 q 322 1269 324 1207 l 346 1269 q 367 1172 347 1217 q 421 1101 388 1128 q 496 1074 454 1074 q 570 1101 538 1074 q 622 1172 603 1128 q 643 1269 640 1217 l 667 1269 q 643 1157 667 1207 q 581 1078 619 1107 q 496 1050 543 1050 z "},"Ắ":{"ha":985,"x_min":88,"x_max":899,"o":"m 88 0 l 492 1019 l 494 1019 l 899 0 l 868 0 l 485 974 l 503 978 l 115 0 l 88 0 m 256 390 l 732 390 l 735 365 l 253 365 l 256 390 m 496 1050 q 409 1078 447 1050 q 347 1157 371 1107 q 322 1269 324 1207 l 346 1269 q 367 1172 347 1217 q 421 1101 388 1128 q 496 1074 454 1074 q 570 1101 538 1074 q 622 1172 603 1128 q 643 1269 640 1217 l 667 1269 q 643 1157 667 1207 q 581 1078 619 1107 q 496 1050 543 1050 m 635 1508 l 507 1324 l 481 1324 l 604 1508 l 635 1508 z "},"Ặ":{"ha":985,"x_min":88,"x_max":899,"o":"m 88 0 l 492 1019 l 494 1019 l 899 0 l 868 0 l 485 974 l 503 978 l 115 0 l 88 0 m 256 390 l 732 390 l 735 365 l 253 365 l 256 390 m 461 -108 q 470 -87 461 -96 q 493 -78 479 -78 q 515 -87 506 -78 q 524 -108 524 -96 q 515 -130 524 -121 q 493 -139 506 -139 q 470 -130 479 -139 q 461 -108 461 -121 m 496 1050 q 409 1078 447 1050 q 347 1157 371 1107 q 322 1269 324 1207 l 346 1269 q 367 1172 347 1217 q 421 1101 388 1128 q 496 1074 454 1074 q 570 1101 538 1074 q 622 1172 603 1128 q 643 1269 640 1217 l 667 1269 q 643 1157 667 1207 q 581 1078 619 1107 q 496 1050 543 1050 z "},"Ằ":{"ha":985,"x_min":88,"x_max":899,"o":"m 88 0 l 492 1019 l 494 1019 l 899 0 l 868 0 l 485 974 l 503 978 l 115 0 l 88 0 m 256 390 l 732 390 l 735 365 l 253 365 l 256 390 m 496 1050 q 409 1078 447 1050 q 347 1157 371 1107 q 322 1269 324 1207 l 346 1269 q 367 1172 347 1217 q 421 1101 388 1128 q 496 1074 454 1074 q 570 1101 538 1074 q 622 1172 603 1128 q 643 1269 640 1217 l 667 1269 q 643 1157 667 1207 q 581 1078 619 1107 q 496 1050 543 1050 m 358 1522 l 389 1522 l 513 1338 l 486 1338 l 358 1522 z "},"Ẳ":{"ha":985,"x_min":88,"x_max":899,"o":"m 88 0 l 492 1019 l 494 1019 l 899 0 l 868 0 l 485 974 l 503 978 l 115 0 l 88 0 m 256 390 l 732 390 l 735 365 l 253 365 l 256 390 m 496 1050 q 409 1078 447 1050 q 347 1157 371 1107 q 322 1269 324 1207 l 346 1269 q 367 1172 347 1217 q 421 1101 388 1128 q 496 1074 454 1074 q 570 1101 538 1074 q 622 1172 603 1128 q 643 1269 640 1217 l 667 1269 q 643 1157 667 1207 q 581 1078 619 1107 q 496 1050 543 1050 m 499 1324 q 553 1372 531 1350 q 575 1424 575 1394 q 561 1470 575 1451 q 517 1489 547 1489 q 474 1477 490 1489 q 435 1436 457 1465 l 419 1447 q 464 1496 440 1481 q 518 1511 488 1511 q 556 1503 539 1511 q 585 1476 574 1494 q 597 1425 597 1457 q 572 1363 597 1388 q 513 1310 547 1338 l 499 1324 z "},"Ẵ":{"ha":985,"x_min":88,"x_max":899,"o":"m 88 0 l 492 1019 l 494 1019 l 899 0 l 868 0 l 485 974 l 503 978 l 115 0 l 88 0 m 256 390 l 732 390 l 735 365 l 253 365 l 256 390 m 496 1050 q 409 1078 447 1050 q 347 1157 371 1107 q 322 1269 324 1207 l 346 1269 q 367 1172 347 1217 q 421 1101 388 1128 q 496 1074 454 1074 q 570 1101 538 1074 q 622 1172 603 1128 q 643 1269 640 1217 l 667 1269 q 643 1157 667 1207 q 581 1078 619 1107 q 496 1050 543 1050 m 589 1363 q 526 1382 550 1363 q 482 1426 503 1401 q 444 1465 464 1447 q 396 1483 425 1483 q 363 1472 381 1483 q 331 1433 344 1461 q 314 1353 317 1404 l 292 1356 q 308 1443 293 1410 q 347 1492 324 1476 q 396 1508 371 1508 q 458 1488 435 1508 q 501 1443 482 1467 q 540 1403 519 1421 q 589 1386 560 1386 q 641 1413 618 1386 q 668 1517 664 1439 l 690 1514 q 675 1426 689 1460 q 638 1378 661 1393 q 589 1363 615 1363 z "},"Â":{"ha":985,"x_min":88,"x_max":899,"o":"m 88 0 l 492 1019 l 494 1019 l 899 0 l 868 0 l 485 974 l 503 978 l 115 0 l 88 0 m 256 390 l 732 390 l 735 365 l 253 365 l 256 390 m 651 1067 l 486 1257 l 504 1258 l 338 1067 l 308 1067 l 493 1278 l 494 1278 l 681 1067 l 651 1067 z "},"Ấ":{"ha":985,"x_min":88,"x_max":899,"o":"m 88 0 l 492 1019 l 494 1019 l 899 0 l 868 0 l 485 974 l 503 978 l 115 0 l 88 0 m 256 390 l 732 390 l 735 365 l 253 365 l 256 390 m 646 1100 l 481 1290 l 499 1292 l 332 1100 l 303 1100 l 488 1311 l 489 1311 l 675 1100 l 646 1100 m 782 1403 l 654 1218 l 628 1218 l 751 1403 l 782 1403 z "},"Ậ":{"ha":985,"x_min":88,"x_max":899,"o":"m 88 0 l 492 1019 l 494 1019 l 899 0 l 868 0 l 485 974 l 503 978 l 115 0 l 88 0 m 256 390 l 732 390 l 735 365 l 253 365 l 256 390 m 461 -108 q 470 -87 461 -96 q 493 -78 479 -78 q 515 -87 506 -78 q 524 -108 524 -96 q 515 -130 524 -121 q 493 -139 506 -139 q 470 -130 479 -139 q 461 -108 461 -121 m 651 1067 l 486 1257 l 504 1258 l 338 1067 l 308 1067 l 493 1278 l 494 1278 l 681 1067 l 651 1067 z "},"Ầ":{"ha":985,"x_min":88,"x_max":899,"o":"m 88 0 l 492 1019 l 494 1019 l 899 0 l 868 0 l 485 974 l 503 978 l 115 0 l 88 0 m 256 390 l 732 390 l 735 365 l 253 365 l 256 390 m 639 1090 l 474 1281 l 492 1282 l 325 1090 l 296 1090 l 481 1301 l 482 1301 l 668 1090 l 639 1090 m 178 1415 l 208 1415 l 332 1231 l 306 1231 l 178 1415 z "},"Ẩ":{"ha":985,"x_min":88,"x_max":899,"o":"m 88 0 l 492 1019 l 494 1019 l 899 0 l 868 0 l 485 974 l 503 978 l 115 0 l 88 0 m 256 390 l 732 390 l 735 365 l 253 365 l 256 390 m 640 1101 l 475 1292 l 493 1293 l 326 1101 l 297 1101 l 482 1313 l 483 1313 l 669 1101 l 640 1101 m 632 1225 q 686 1274 664 1251 q 708 1325 708 1296 q 694 1372 708 1353 q 650 1390 681 1390 q 607 1378 624 1390 q 568 1338 590 1367 l 553 1349 q 597 1397 574 1382 q 651 1413 621 1413 q 690 1404 672 1413 q 719 1377 707 1396 q 731 1326 731 1358 q 706 1264 731 1289 q 646 1211 681 1239 l 632 1225 z "},"Ẫ":{"ha":985,"x_min":88,"x_max":899,"o":"m 88 0 l 492 1019 l 494 1019 l 899 0 l 868 0 l 485 974 l 503 978 l 115 0 l 88 0 m 256 390 l 732 390 l 735 365 l 253 365 l 256 390 m 647 1074 l 482 1264 l 500 1265 l 333 1074 l 304 1074 l 489 1285 l 490 1285 l 676 1074 l 647 1074 m 586 1310 q 524 1330 549 1310 q 481 1374 500 1350 q 442 1413 461 1394 q 394 1431 422 1431 q 360 1419 378 1431 q 328 1381 342 1408 q 311 1300 314 1353 l 289 1303 q 306 1390 290 1357 q 345 1440 322 1424 q 393 1456 368 1456 q 456 1435 432 1456 q 499 1390 479 1414 q 538 1351 517 1368 q 588 1335 558 1335 q 638 1360 615 1335 q 665 1464 661 1386 l 688 1463 q 672 1374 686 1408 q 636 1325 658 1340 q 586 1310 614 1310 z "},"Ȁ":{"ha":985,"x_min":88,"x_max":899,"o":"m 88 0 l 492 1019 l 494 1019 l 899 0 l 868 0 l 485 974 l 503 978 l 115 0 l 88 0 m 256 390 l 732 390 l 735 365 l 253 365 l 256 390 m 293 1257 l 324 1257 l 447 1072 l 421 1072 l 293 1257 m 428 1257 l 458 1257 l 582 1072 l 556 1072 l 428 1257 z "},"Ä":{"ha":985,"x_min":88,"x_max":899,"o":"m 88 0 l 492 1019 l 494 1019 l 899 0 l 868 0 l 485 974 l 503 978 l 115 0 l 88 0 m 256 390 l 732 390 l 735 365 l 253 365 l 256 390 m 346 1092 q 355 1113 346 1104 q 376 1122 364 1122 q 398 1113 389 1122 q 407 1092 407 1104 q 398 1070 407 1079 q 376 1061 389 1061 q 355 1070 364 1061 q 346 1092 346 1079 l 346 1092 m 576 1092 q 585 1113 576 1104 q 608 1122 594 1122 q 629 1113 619 1122 q 639 1092 639 1104 q 629 1070 639 1079 q 608 1061 619 1061 q 585 1070 594 1061 q 576 1092 576 1079 l 576 1092 z "},"Ạ":{"ha":985,"x_min":88,"x_max":899,"o":"m 88 0 l 492 1019 l 494 1019 l 899 0 l 868 0 l 485 974 l 503 978 l 115 0 l 88 0 m 256 390 l 732 390 l 735 365 l 253 365 l 256 390 m 461 -108 q 470 -87 461 -96 q 493 -78 479 -78 q 515 -87 506 -78 q 524 -108 524 -96 q 515 -130 524 -121 q 493 -139 506 -139 q 470 -130 479 -139 q 461 -108 461 -121 z "},"À":{"ha":985,"x_min":88,"x_max":899,"o":"m 88 0 l 492 1019 l 494 1019 l 899 0 l 868 0 l 485 974 l 503 978 l 115 0 l 88 0 m 256 390 l 732 390 l 735 365 l 253 365 l 256 390 m 361 1228 l 392 1228 l 515 1043 l 489 1043 l 361 1228 z "},"Ả":{"ha":985,"x_min":88,"x_max":899,"o":"m 88 0 l 492 1019 l 494 1019 l 899 0 l 868 0 l 485 974 l 503 978 l 115 0 l 88 0 m 256 390 l 732 390 l 735 365 l 253 365 l 256 390 m 501 1031 q 556 1079 533 1057 q 578 1131 578 1101 q 564 1177 578 1158 q 519 1196 550 1196 q 476 1184 493 1196 q 438 1143 460 1172 l 422 1154 q 467 1203 443 1188 q 521 1218 490 1218 q 559 1210 542 1218 q 588 1183 576 1201 q 600 1132 600 1164 q 575 1069 600 1094 q 515 1017 550 1044 l 501 1031 z "},"Ȃ":{"ha":985,"x_min":88,"x_max":899,"o":"m 88 0 l 492 1019 l 494 1019 l 899 0 l 868 0 l 485 974 l 503 978 l 115 0 l 88 0 m 256 390 l 732 390 l 735 365 l 253 365 l 256 390 m 490 1244 q 577 1215 539 1244 q 639 1137 615 1186 q 664 1024 663 1088 l 642 1024 q 619 1121 639 1076 q 565 1192 599 1165 q 490 1219 532 1219 q 416 1192 449 1219 q 365 1121 383 1165 q 344 1024 346 1076 l 319 1024 q 344 1137 321 1088 q 405 1215 367 1186 q 490 1244 443 1244 z "},"Ā":{"ha":985,"x_min":88,"x_max":899,"o":"m 88 0 l 492 1019 l 494 1019 l 899 0 l 868 0 l 485 974 l 503 978 l 115 0 l 88 0 m 256 390 l 732 390 l 735 365 l 253 365 l 256 390 m 332 1076 l 653 1076 l 653 1053 l 332 1053 l 332 1076 z "},"Ą":{"ha":985,"x_min":88,"x_max":949,"o":"m 88 0 l 492 1019 l 494 1019 l 899 0 l 868 0 l 485 974 l 503 978 l 115 0 l 88 0 m 256 390 l 732 390 l 735 365 l 253 365 l 256 390 m 843 -261 q 774 -232 804 -261 q 743 -154 743 -203 q 784 -56 743 -101 q 879 17 825 -11 l 899 0 q 803 -74 836 -35 q 769 -153 769 -112 q 793 -214 769 -192 q 846 -236 817 -236 q 894 -218 872 -236 q 931 -174 917 -200 l 949 -186 q 907 -239 935 -217 q 843 -261 879 -261 z "},"Å":{"ha":985,"x_min":88,"x_max":899,"o":"m 88 0 l 492 1019 l 494 1019 l 899 0 l 868 0 l 485 974 l 503 978 l 115 0 l 88 0 m 256 390 l 732 390 l 735 365 l 253 365 l 256 390 m 403 1161 q 428 1226 403 1200 q 493 1251 454 1251 q 558 1226 532 1251 q 583 1161 583 1200 q 558 1097 583 1122 q 493 1072 532 1072 q 428 1097 454 1072 q 403 1161 403 1122 m 425 1161 q 445 1115 425 1135 q 493 1094 465 1094 q 540 1115 519 1094 q 560 1161 560 1135 q 540 1209 560 1189 q 493 1229 519 1229 q 445 1209 465 1229 q 425 1161 425 1189 z "},"Ǻ":{"ha":985,"x_min":88,"x_max":899,"o":"m 88 0 l 492 1019 l 494 1019 l 899 0 l 868 0 l 485 974 l 503 978 l 115 0 l 88 0 m 256 390 l 732 390 l 735 365 l 253 365 l 256 390 m 403 1161 q 428 1226 403 1200 q 493 1251 454 1251 q 558 1226 532 1251 q 583 1161 583 1200 q 558 1097 583 1122 q 493 1072 532 1072 q 428 1097 454 1072 q 403 1161 403 1122 m 425 1161 q 445 1115 425 1135 q 493 1094 465 1094 q 540 1115 519 1094 q 560 1161 560 1135 q 540 1209 560 1189 q 493 1229 519 1229 q 445 1209 465 1229 q 425 1161 425 1189 m 638 1489 l 510 1304 l 483 1304 l 607 1489 l 638 1489 z "},"Ã":{"ha":985,"x_min":88,"x_max":899,"o":"m 88 0 l 492 1019 l 494 1019 l 899 0 l 868 0 l 485 974 l 503 978 l 115 0 l 88 0 m 256 390 l 732 390 l 735 365 l 253 365 l 256 390 m 592 1069 q 529 1089 553 1069 q 485 1133 506 1108 q 447 1172 467 1154 q 399 1190 428 1190 q 365 1179 383 1190 q 333 1140 347 1168 q 317 1060 319 1111 l 294 1063 q 311 1150 296 1117 q 350 1199 326 1183 q 399 1215 374 1215 q 461 1194 438 1215 q 504 1150 485 1174 q 542 1110 522 1128 q 592 1093 563 1093 q 644 1119 621 1093 q 671 1224 667 1146 l 693 1221 q 678 1133 692 1167 q 641 1085 664 1100 q 592 1069 618 1069 z "},"Æ":{"ha":1282,"x_min":33,"x_max":1172,"o":"m 643 975 l 1153 975 l 1153 947 l 671 947 l 671 504 l 1099 504 l 1099 478 l 671 478 l 671 28 l 1172 28 l 1172 0 l 643 0 l 643 975 m 661 964 q 655 946 658 956 q 649 928 651 936 l 64 0 l 33 0 l 643 975 l 661 964 m 231 311 l 656 311 l 656 286 l 228 286 l 231 311 z "},"Ǽ":{"ha":1282,"x_min":33,"x_max":1172,"o":"m 643 975 l 1153 975 l 1153 947 l 671 947 l 671 504 l 1099 504 l 1099 478 l 671 478 l 671 28 l 1172 28 l 1172 0 l 643 0 l 643 975 m 661 964 q 655 946 658 956 q 649 928 651 936 l 64 0 l 33 0 l 643 975 l 661 964 m 231 311 l 656 311 l 656 286 l 228 286 l 231 311 m 1008 1214 l 881 1029 l 854 1029 l 978 1214 l 1008 1214 z "},"B":{"ha":796,"x_min":165,"x_max":694,"o":"m 358 975 q 569 917 496 975 q 643 726 643 860 q 624 619 643 671 q 566 532 606 568 q 461 485 526 496 l 461 494 q 575 454 522 486 q 661 371 628 422 q 694 251 694 319 q 669 142 694 189 q 603 64 644 96 q 508 16 561 32 q 397 0 454 0 l 165 0 l 165 975 l 358 975 m 393 501 q 563 565 511 501 q 615 725 615 628 q 546 897 615 846 q 360 949 476 949 l 193 949 l 193 501 l 393 501 m 394 25 q 530 50 468 25 q 629 124 592 75 q 667 247 667 174 q 625 377 667 326 q 521 451 583 428 q 394 475 458 475 l 193 475 l 193 25 l 394 25 z "},"C":{"ha":958,"x_min":103,"x_max":856,"o":"m 856 60 q 778 23 819 39 q 692 -2 738 7 q 596 -11 646 -11 q 394 28 485 -11 q 238 135 303 67 q 138 292 172 203 q 103 482 103 382 q 141 679 103 588 q 247 840 179 771 q 406 947 315 908 q 599 986 496 986 q 734 967 669 986 q 856 915 799 949 l 842 892 q 727 942 789 924 q 599 960 665 960 q 417 923 503 960 q 268 820 332 886 q 167 667 204 754 q 131 481 131 581 q 163 303 131 388 q 257 153 196 218 q 403 52 318 89 q 596 15 489 15 q 725 34 664 15 q 839 83 786 53 l 856 60 z "},"Ć":{"ha":958,"x_min":103,"x_max":856,"o":"m 856 60 q 778 23 819 39 q 692 -2 738 7 q 596 -11 646 -11 q 394 28 485 -11 q 238 135 303 67 q 138 292 172 203 q 103 482 103 382 q 141 679 103 588 q 247 840 179 771 q 406 947 315 908 q 599 986 496 986 q 734 967 669 986 q 856 915 799 949 l 842 892 q 727 942 789 924 q 599 960 665 960 q 417 923 503 960 q 268 820 332 886 q 167 667 204 754 q 131 481 131 581 q 163 303 131 388 q 257 153 196 218 q 403 52 318 89 q 596 15 489 15 q 725 34 664 15 q 839 83 786 53 l 856 60 m 719 1226 l 592 1042 l 565 1042 l 689 1226 l 719 1226 z "},"Č":{"ha":958,"x_min":103,"x_max":856,"o":"m 856 60 q 778 23 819 39 q 692 -2 738 7 q 596 -11 646 -11 q 394 28 485 -11 q 238 135 303 67 q 138 292 172 203 q 103 482 103 382 q 141 679 103 588 q 247 840 179 771 q 406 947 315 908 q 599 986 496 986 q 734 967 669 986 q 856 915 799 949 l 842 892 q 727 942 789 924 q 599 960 665 960 q 417 923 503 960 q 268 820 332 886 q 167 667 204 754 q 131 481 131 581 q 163 303 131 388 q 257 153 196 218 q 403 52 318 89 q 596 15 489 15 q 725 34 664 15 q 839 83 786 53 l 856 60 m 417 1254 l 582 1064 l 564 1063 l 731 1254 l 760 1254 l 575 1044 l 574 1044 l 388 1254 l 417 1254 z "},"Ç":{"ha":958,"x_min":103,"x_max":856,"o":"m 856 60 q 778 23 819 39 q 692 -2 738 7 q 596 -11 646 -11 q 394 28 485 -11 q 238 135 303 67 q 138 292 172 203 q 103 482 103 382 q 141 679 103 588 q 247 840 179 771 q 406 947 315 908 q 599 986 496 986 q 734 967 669 986 q 856 915 799 949 l 842 892 q 727 942 789 924 q 599 960 665 960 q 417 923 503 960 q 268 820 332 886 q 167 667 204 754 q 131 481 131 581 q 163 303 131 388 q 257 153 196 218 q 403 52 318 89 q 596 15 489 15 q 725 34 664 15 q 839 83 786 53 l 856 60 m 468 -251 q 511 -277 485 -267 q 575 -287 538 -287 q 665 -266 632 -287 q 699 -203 699 -244 q 671 -140 699 -165 q 585 -114 643 -114 q 531 -120 561 -114 q 483 -135 500 -126 l 464 -117 l 565 7 l 588 -6 l 493 -122 l 472 -117 q 522 -99 488 -107 q 586 -90 556 -90 q 691 -119 654 -90 q 728 -203 728 -149 q 708 -262 728 -239 q 653 -298 688 -286 q 578 -310 619 -310 q 507 -299 539 -310 q 454 -272 475 -289 l 468 -251 z "},"Ĉ":{"ha":958,"x_min":103,"x_max":856,"o":"m 856 60 q 778 23 819 39 q 692 -2 738 7 q 596 -11 646 -11 q 394 28 485 -11 q 238 135 303 67 q 138 292 172 203 q 103 482 103 382 q 141 679 103 588 q 247 840 179 771 q 406 947 315 908 q 599 986 496 986 q 734 967 669 986 q 856 915 799 949 l 842 892 q 727 942 789 924 q 599 960 665 960 q 417 923 503 960 q 268 820 332 886 q 167 667 204 754 q 131 481 131 581 q 163 303 131 388 q 257 153 196 218 q 403 52 318 89 q 596 15 489 15 q 725 34 664 15 q 839 83 786 53 l 856 60 m 733 1079 l 568 1269 l 586 1271 l 419 1079 l 390 1079 l 575 1290 l 576 1290 l 763 1079 l 733 1079 z "},"Ċ":{"ha":958,"x_min":103,"x_max":856,"o":"m 856 60 q 778 23 819 39 q 692 -2 738 7 q 596 -11 646 -11 q 394 28 485 -11 q 238 135 303 67 q 138 292 172 203 q 103 482 103 382 q 141 679 103 588 q 247 840 179 771 q 406 947 315 908 q 599 986 496 986 q 734 967 669 986 q 856 915 799 949 l 842 892 q 727 942 789 924 q 599 960 665 960 q 417 923 503 960 q 268 820 332 886 q 167 667 204 754 q 131 481 131 581 q 163 303 131 388 q 257 153 196 218 q 403 52 318 89 q 596 15 489 15 q 725 34 664 15 q 839 83 786 53 l 856 60 m 543 1103 q 552 1124 543 1115 q 575 1133 561 1133 q 597 1124 588 1133 q 606 1103 606 1115 q 597 1081 606 1090 q 575 1072 588 1072 q 552 1081 561 1072 q 543 1103 543 1090 z "},"D":{"ha":1008,"x_min":165,"x_max":906,"o":"m 165 0 l 165 975 l 389 975 q 626 931 528 975 q 787 813 725 886 q 877 655 849 740 q 906 486 906 569 q 867 285 906 375 q 763 132 829 196 q 613 34 697 68 q 435 0 528 0 l 165 0 m 193 26 l 422 26 q 598 58 515 26 q 743 151 681 90 q 842 296 806 211 q 878 488 878 381 q 851 648 878 567 q 765 797 824 729 q 611 906 706 865 q 383 947 517 947 l 193 947 l 193 26 z "},"Ǆ":{"ha":1976,"x_min":165,"x_max":1894,"o":"m 165 0 l 165 975 l 389 975 q 626 931 528 975 q 787 813 725 886 q 877 655 849 740 q 906 486 906 569 q 867 285 906 375 q 763 132 829 196 q 613 34 697 68 q 435 0 528 0 l 165 0 m 193 26 l 422 26 q 598 58 515 26 q 743 151 681 90 q 842 296 806 211 q 878 488 878 381 q 851 648 878 567 q 765 797 824 729 q 611 906 706 865 q 383 947 517 947 l 193 947 l 193 26 m 1090 0 q 1176 117 1132 57 q 1265 238 1219 176 q 1356 360 1310 299 q 1448 484 1401 422 q 1541 607 1494 546 q 1633 728 1588 668 q 1721 844 1678 788 q 1806 957 1764 901 l 1815 949 l 1203 949 q 1159 953 1176 949 q 1133 972 1142 958 q 1124 1011 1124 985 l 1124 1024 l 1153 1024 l 1153 1007 q 1162 984 1153 993 q 1194 975 1171 975 l 1850 975 l 1133 19 l 1131 26 l 1894 26 l 1894 0 l 1090 0 m 1335 1239 l 1500 1049 l 1482 1047 l 1649 1239 l 1678 1239 l 1493 1029 l 1492 1029 l 1306 1239 l 1335 1239 z "},"Ð":{"ha":1008,"x_min":15,"x_max":906,"o":"m 165 0 l 165 975 l 389 975 q 626 931 528 975 q 787 813 725 886 q 877 655 849 740 q 906 486 906 569 q 867 285 906 375 q 763 132 829 196 q 613 34 697 68 q 435 0 528 0 l 165 0 m 193 26 l 422 26 q 598 58 515 26 q 743 151 681 90 q 842 296 806 211 q 878 488 878 381 q 851 648 878 567 q 765 797 824 729 q 611 906 706 865 q 383 947 517 947 l 193 947 l 193 26 m 15 500 l 338 500 l 338 474 l 15 474 l 15 500 z "},"Ď":{"ha":1008,"x_min":165,"x_max":906,"o":"m 165 0 l 165 975 l 389 975 q 626 931 528 975 q 787 813 725 886 q 877 655 849 740 q 906 486 906 569 q 867 285 906 375 q 763 132 829 196 q 613 34 697 68 q 435 0 528 0 l 165 0 m 193 26 l 422 26 q 598 58 515 26 q 743 151 681 90 q 842 296 806 211 q 878 488 878 381 q 851 648 878 567 q 765 797 824 729 q 611 906 706 865 q 383 947 517 947 l 193 947 l 193 26 m 246 1239 l 411 1049 l 393 1047 l 560 1239 l 589 1239 l 404 1029 l 403 1029 l 217 1239 l 246 1239 z "},"Đ":{"ha":1008,"x_min":15,"x_max":906,"o":"m 165 0 l 165 975 l 389 975 q 626 931 528 975 q 787 813 725 886 q 877 655 849 740 q 906 486 906 569 q 867 285 906 375 q 763 132 829 196 q 613 34 697 68 q 435 0 528 0 l 165 0 m 193 26 l 422 26 q 598 58 515 26 q 743 151 681 90 q 842 296 806 211 q 878 488 878 381 q 851 648 878 567 q 765 797 824 729 q 611 906 706 865 q 383 947 517 947 l 193 947 l 193 26 m 15 500 l 338 500 l 338 474 l 15 474 l 15 500 z "},"ǅ":{"ha":1519,"x_min":165,"x_max":1469,"o":"m 165 0 l 165 975 l 389 975 q 626 931 528 975 q 787 813 725 886 q 877 655 849 740 q 906 486 906 569 q 867 285 906 375 q 763 132 829 196 q 613 34 697 68 q 435 0 528 0 l 165 0 m 193 26 l 422 26 q 598 58 515 26 q 743 151 681 90 q 842 296 806 211 q 878 488 878 381 q 851 648 878 567 q 765 797 824 729 q 611 906 706 865 q 383 947 517 947 l 193 947 l 193 26 m 1129 500 q 1077 512 1096 500 q 1058 565 1058 524 l 1058 574 l 1082 574 l 1082 557 q 1093 534 1082 543 q 1128 525 1104 525 l 1469 525 l 1111 18 l 1104 25 l 1463 25 l 1463 0 l 1065 0 l 1426 508 l 1435 500 l 1129 500 m 1119 804 l 1285 614 l 1267 613 l 1433 804 l 1463 804 l 1278 594 l 1276 594 l 1090 804 l 1119 804 z "},"E":{"ha":876,"x_min":165,"x_max":767,"o":"m 165 975 l 747 975 l 747 949 l 193 949 l 193 506 l 693 506 l 693 479 l 193 479 l 193 26 l 767 26 l 767 0 l 165 0 l 165 975 z "},"É":{"ha":876,"x_min":165,"x_max":767,"o":"m 165 975 l 747 975 l 747 949 l 193 949 l 193 506 l 693 506 l 693 479 l 193 479 l 193 26 l 767 26 l 767 0 l 165 0 l 165 975 m 583 1214 l 456 1029 l 429 1029 l 553 1214 l 583 1214 z "},"Ĕ":{"ha":876,"x_min":165,"x_max":767,"o":"m 165 975 l 747 975 l 747 949 l 193 949 l 193 506 l 693 506 l 693 479 l 193 479 l 193 26 l 767 26 l 767 0 l 165 0 l 165 975 m 442 1050 q 355 1078 393 1050 q 293 1157 317 1107 q 268 1269 269 1207 l 292 1269 q 313 1172 293 1217 q 367 1101 333 1128 q 442 1074 400 1074 q 516 1101 483 1074 q 567 1172 549 1128 q 589 1269 586 1217 l 613 1269 q 589 1157 613 1207 q 527 1078 565 1107 q 442 1050 489 1050 z "},"Ě":{"ha":876,"x_min":165,"x_max":767,"o":"m 165 975 l 747 975 l 747 949 l 193 949 l 193 506 l 693 506 l 693 479 l 193 479 l 193 26 l 767 26 l 767 0 l 165 0 l 165 975 m 282 1240 l 447 1050 l 429 1049 l 596 1240 l 625 1240 l 440 1031 l 439 1031 l 253 1240 l 282 1240 z "},"Ê":{"ha":876,"x_min":165,"x_max":767,"o":"m 165 975 l 747 975 l 747 949 l 193 949 l 193 506 l 693 506 l 693 479 l 193 479 l 193 26 l 767 26 l 767 0 l 165 0 l 165 975 m 599 1065 l 433 1256 l 451 1257 l 285 1065 l 256 1065 l 440 1276 l 442 1276 l 628 1065 l 599 1065 z "},"Ế":{"ha":876,"x_min":165,"x_max":767,"o":"m 165 975 l 747 975 l 747 949 l 193 949 l 193 506 l 693 506 l 693 479 l 193 479 l 193 26 l 767 26 l 767 0 l 165 0 l 165 975 m 592 1099 l 426 1289 l 444 1290 l 278 1099 l 249 1099 l 433 1310 l 435 1310 l 621 1099 l 592 1099 m 728 1401 l 600 1217 l 574 1217 l 697 1401 l 728 1401 z "},"Ệ":{"ha":876,"x_min":165,"x_max":767,"o":"m 165 975 l 747 975 l 747 949 l 193 949 l 193 506 l 693 506 l 693 479 l 193 479 l 193 26 l 767 26 l 767 0 l 165 0 l 165 975 m 408 -108 q 417 -87 408 -96 q 440 -78 426 -78 q 462 -87 453 -78 q 471 -108 471 -96 q 462 -130 471 -121 q 440 -139 453 -139 q 417 -130 426 -139 q 408 -108 408 -121 m 599 1065 l 433 1256 l 451 1257 l 285 1065 l 256 1065 l 440 1276 l 442 1276 l 628 1065 l 599 1065 z "},"Ề":{"ha":876,"x_min":125,"x_max":767,"o":"m 165 975 l 747 975 l 747 949 l 193 949 l 193 506 l 693 506 l 693 479 l 193 479 l 193 26 l 767 26 l 767 0 l 165 0 l 165 975 m 586 1089 l 421 1279 l 439 1281 l 272 1089 l 243 1089 l 428 1300 l 429 1300 l 615 1089 l 586 1089 m 125 1414 l 156 1414 l 279 1229 l 253 1229 l 125 1414 z "},"Ể":{"ha":876,"x_min":165,"x_max":767,"o":"m 165 975 l 747 975 l 747 949 l 193 949 l 193 506 l 693 506 l 693 479 l 193 479 l 193 26 l 767 26 l 767 0 l 165 0 l 165 975 m 588 1100 l 422 1290 l 440 1292 l 274 1100 l 244 1100 l 429 1311 l 431 1311 l 617 1100 l 588 1100 m 579 1224 q 633 1272 611 1250 q 656 1324 656 1294 q 642 1370 656 1351 q 597 1389 628 1389 q 554 1377 571 1389 q 515 1336 538 1365 l 500 1347 q 544 1396 521 1381 q 599 1411 568 1411 q 637 1403 619 1411 q 666 1376 654 1394 q 678 1325 678 1357 q 653 1263 678 1288 q 593 1210 628 1238 l 579 1224 z "},"Ễ":{"ha":876,"x_min":165,"x_max":767,"o":"m 165 975 l 747 975 l 747 949 l 193 949 l 193 506 l 693 506 l 693 479 l 193 479 l 193 26 l 767 26 l 767 0 l 165 0 l 165 975 m 594 1074 l 429 1264 l 447 1265 l 281 1074 l 251 1074 l 436 1285 l 438 1285 l 624 1074 l 594 1074 m 533 1310 q 472 1330 496 1310 q 428 1374 447 1350 q 389 1413 408 1394 q 342 1431 369 1431 q 307 1419 325 1431 q 275 1381 289 1408 q 258 1300 261 1353 l 236 1303 q 253 1390 238 1357 q 292 1440 269 1424 q 340 1456 315 1456 q 403 1435 379 1456 q 446 1390 426 1414 q 485 1351 464 1368 q 535 1335 506 1335 q 585 1360 563 1335 q 613 1464 608 1386 l 635 1463 q 619 1374 633 1408 q 583 1325 606 1340 q 533 1310 561 1310 z "},"Ȅ":{"ha":876,"x_min":165,"x_max":767,"o":"m 165 975 l 747 975 l 747 949 l 193 949 l 193 506 l 693 506 l 693 479 l 193 479 l 193 26 l 767 26 l 767 0 l 165 0 l 165 975 m 240 1257 l 271 1257 l 394 1072 l 368 1072 l 240 1257 m 375 1257 l 406 1257 l 529 1072 l 503 1072 l 375 1257 z "},"Ë":{"ha":876,"x_min":165,"x_max":767,"o":"m 165 975 l 747 975 l 747 949 l 193 949 l 193 506 l 693 506 l 693 479 l 193 479 l 193 26 l 767 26 l 767 0 l 165 0 l 165 975 m 293 1090 q 302 1112 293 1103 q 324 1121 311 1121 q 345 1112 336 1121 q 354 1090 354 1103 q 345 1069 354 1078 q 324 1060 336 1060 q 302 1069 311 1060 q 293 1090 293 1078 l 293 1090 m 524 1090 q 533 1112 524 1103 q 556 1121 542 1121 q 576 1112 567 1121 q 586 1090 586 1103 q 576 1069 586 1078 q 556 1060 567 1060 q 533 1069 542 1060 q 524 1090 524 1078 l 524 1090 z "},"Ė":{"ha":876,"x_min":165,"x_max":767,"o":"m 165 975 l 747 975 l 747 949 l 193 949 l 193 506 l 693 506 l 693 479 l 193 479 l 193 26 l 767 26 l 767 0 l 165 0 l 165 975 m 408 1089 q 417 1110 408 1101 q 440 1119 426 1119 q 462 1110 453 1119 q 471 1089 471 1101 q 462 1067 471 1076 q 440 1058 453 1058 q 417 1067 426 1058 q 408 1089 408 1076 z "},"Ẹ":{"ha":876,"x_min":165,"x_max":767,"o":"m 165 975 l 747 975 l 747 949 l 193 949 l 193 506 l 693 506 l 693 479 l 193 479 l 193 26 l 767 26 l 767 0 l 165 0 l 165 975 m 408 -108 q 417 -87 408 -96 q 440 -78 426 -78 q 462 -87 453 -78 q 471 -108 471 -96 q 462 -130 471 -121 q 440 -139 453 -139 q 417 -130 426 -139 q 408 -108 408 -121 z "},"È":{"ha":876,"x_min":165,"x_max":767,"o":"m 165 975 l 747 975 l 747 949 l 193 949 l 193 506 l 693 506 l 693 479 l 193 479 l 193 26 l 767 26 l 767 0 l 165 0 l 165 975 m 307 1228 l 338 1228 l 461 1043 l 435 1043 l 307 1228 z "},"Ẻ":{"ha":876,"x_min":165,"x_max":767,"o":"m 165 975 l 747 975 l 747 949 l 193 949 l 193 506 l 693 506 l 693 479 l 193 479 l 193 26 l 767 26 l 767 0 l 165 0 l 165 975 m 447 1029 q 501 1078 479 1056 q 524 1129 524 1100 q 510 1176 524 1157 q 465 1194 496 1194 q 422 1183 439 1194 q 383 1142 406 1171 l 368 1153 q 413 1201 389 1186 q 467 1217 436 1217 q 505 1208 488 1217 q 534 1181 522 1200 q 546 1131 546 1163 q 521 1068 546 1093 q 461 1015 496 1043 l 447 1029 z "},"Ȇ":{"ha":876,"x_min":165,"x_max":767,"o":"m 165 975 l 747 975 l 747 949 l 193 949 l 193 506 l 693 506 l 693 479 l 193 479 l 193 26 l 767 26 l 767 0 l 165 0 l 165 975 m 438 1244 q 524 1215 486 1244 q 586 1137 563 1186 q 611 1024 610 1088 l 589 1024 q 566 1121 586 1076 q 513 1192 546 1165 q 438 1219 479 1219 q 363 1192 396 1219 q 312 1121 331 1165 q 292 1024 293 1076 l 267 1024 q 291 1137 268 1088 q 352 1215 314 1186 q 438 1244 390 1244 z "},"Ē":{"ha":876,"x_min":165,"x_max":767,"o":"m 165 975 l 747 975 l 747 949 l 193 949 l 193 506 l 693 506 l 693 479 l 193 479 l 193 26 l 767 26 l 767 0 l 165 0 l 165 975 m 279 1076 l 600 1076 l 600 1053 l 279 1053 l 279 1076 z "},"Ę":{"ha":876,"x_min":165,"x_max":815,"o":"m 165 975 l 747 975 l 747 949 l 193 949 l 193 506 l 693 506 l 693 479 l 193 479 l 193 26 l 767 26 l 767 0 l 165 0 l 165 975 m 710 -261 q 640 -232 671 -261 q 610 -154 610 -203 q 651 -56 610 -101 q 746 17 692 -11 l 765 0 q 669 -74 703 -35 q 636 -153 636 -112 q 660 -214 636 -192 q 713 -236 683 -236 q 761 -218 739 -236 q 797 -174 783 -200 l 815 -186 q 774 -239 801 -217 q 710 -261 746 -261 z "},"Ẽ":{"ha":876,"x_min":165,"x_max":767,"o":"m 165 975 l 747 975 l 747 949 l 193 949 l 193 506 l 693 506 l 693 479 l 193 479 l 193 26 l 767 26 l 767 0 l 165 0 l 165 975 m 539 1068 q 476 1088 500 1068 q 432 1132 453 1107 q 394 1171 414 1153 q 346 1189 375 1189 q 313 1178 331 1189 q 281 1138 294 1167 q 264 1058 267 1110 l 242 1061 q 258 1149 243 1115 q 297 1198 274 1182 q 346 1214 321 1214 q 408 1193 385 1214 q 451 1149 432 1172 q 490 1109 469 1126 q 539 1092 510 1092 q 591 1118 568 1092 q 618 1222 614 1144 l 640 1219 q 625 1132 639 1165 q 588 1083 611 1099 q 539 1068 565 1068 z "},"F":{"ha":793,"x_min":165,"x_max":692,"o":"m 165 975 l 692 975 l 692 949 l 193 949 l 193 490 l 638 490 l 638 464 l 193 464 l 193 0 l 165 0 l 165 975 z "},"G":{"ha":1021,"x_min":103,"x_max":885,"o":"m 885 60 q 823 31 857 44 q 751 8 789 18 q 674 -6 713 -1 q 600 -11 636 -11 q 395 27 488 -11 q 238 133 303 65 q 138 292 172 201 q 103 485 103 382 q 142 680 103 589 q 249 840 181 771 q 407 947 317 908 q 600 986 497 986 q 735 967 671 986 q 857 915 800 949 l 843 892 q 769 928 808 913 q 687 951 729 943 q 601 960 644 960 q 417 922 503 960 q 267 819 332 885 q 167 668 203 754 q 131 485 131 582 q 163 301 131 386 q 257 152 196 217 q 404 51 318 88 q 597 15 490 15 q 732 31 660 15 q 857 78 804 47 l 857 396 l 621 396 l 621 422 l 885 422 l 885 60 z "},"Ğ":{"ha":1021,"x_min":103,"x_max":885,"o":"m 885 60 q 823 31 857 44 q 751 8 789 18 q 674 -6 713 -1 q 600 -11 636 -11 q 395 27 488 -11 q 238 133 303 65 q 138 292 172 201 q 103 485 103 382 q 142 680 103 589 q 249 840 181 771 q 407 947 317 908 q 600 986 497 986 q 735 967 671 986 q 857 915 800 949 l 843 892 q 769 928 808 913 q 687 951 729 943 q 601 960 644 960 q 417 922 503 960 q 267 819 332 885 q 167 668 203 754 q 131 485 131 582 q 163 301 131 386 q 257 152 196 217 q 404 51 318 88 q 597 15 490 15 q 732 31 660 15 q 857 78 804 47 l 857 396 l 621 396 l 621 422 l 885 422 l 885 60 m 560 1049 q 473 1077 511 1049 q 411 1156 435 1106 q 386 1268 388 1206 l 410 1268 q 431 1171 411 1215 q 485 1099 451 1126 q 560 1072 518 1072 q 634 1099 601 1072 q 685 1171 667 1126 q 707 1268 704 1215 l 731 1268 q 707 1156 731 1206 q 645 1077 683 1106 q 560 1049 607 1049 z "},"Ǧ":{"ha":1021,"x_min":103,"x_max":885,"o":"m 885 60 q 823 31 857 44 q 751 8 789 18 q 674 -6 713 -1 q 600 -11 636 -11 q 395 27 488 -11 q 238 133 303 65 q 138 292 172 201 q 103 485 103 382 q 142 680 103 589 q 249 840 181 771 q 407 947 317 908 q 600 986 497 986 q 735 967 671 986 q 857 915 800 949 l 843 892 q 769 928 808 913 q 687 951 729 943 q 601 960 644 960 q 417 922 503 960 q 267 819 332 885 q 167 668 203 754 q 131 485 131 582 q 163 301 131 386 q 257 152 196 217 q 404 51 318 88 q 597 15 490 15 q 732 31 660 15 q 857 78 804 47 l 857 396 l 621 396 l 621 422 l 885 422 l 885 60 m 399 1239 l 564 1049 l 546 1047 l 713 1239 l 742 1239 l 557 1029 l 556 1029 l 369 1239 l 399 1239 z "},"Ĝ":{"ha":1021,"x_min":103,"x_max":885,"o":"m 885 60 q 823 31 857 44 q 751 8 789 18 q 674 -6 713 -1 q 600 -11 636 -11 q 395 27 488 -11 q 238 133 303 65 q 138 292 172 201 q 103 485 103 382 q 142 680 103 589 q 249 840 181 771 q 407 947 317 908 q 600 986 497 986 q 735 967 671 986 q 857 915 800 949 l 843 892 q 769 928 808 913 q 687 951 729 943 q 601 960 644 960 q 417 922 503 960 q 267 819 332 885 q 167 668 203 754 q 131 485 131 582 q 163 301 131 386 q 257 152 196 217 q 404 51 318 88 q 597 15 490 15 q 732 31 660 15 q 857 78 804 47 l 857 396 l 621 396 l 621 422 l 885 422 l 885 60 m 715 1064 l 550 1254 l 568 1256 l 401 1064 l 372 1064 l 557 1275 l 558 1275 l 744 1064 l 715 1064 z "},"Ģ":{"ha":1021,"x_min":103,"x_max":885,"o":"m 885 60 q 823 31 857 44 q 751 8 789 18 q 674 -6 713 -1 q 600 -11 636 -11 q 395 27 488 -11 q 238 133 303 65 q 138 292 172 201 q 103 485 103 382 q 142 680 103 589 q 249 840 181 771 q 407 947 317 908 q 600 986 497 986 q 735 967 671 986 q 857 915 800 949 l 843 892 q 769 928 808 913 q 687 951 729 943 q 601 960 644 960 q 417 922 503 960 q 267 819 332 885 q 167 668 203 754 q 131 485 131 582 q 163 301 131 386 q 257 152 196 217 q 404 51 318 88 q 597 15 490 15 q 732 31 660 15 q 857 78 804 47 l 857 396 l 621 396 l 621 422 l 885 422 l 885 60 m 478 -256 l 464 -243 q 518 -169 503 -215 q 526 -64 533 -124 l 557 -64 q 556 -137 560 -100 q 533 -205 551 -174 q 478 -256 514 -236 z "},"Ġ":{"ha":1021,"x_min":103,"x_max":885,"o":"m 885 60 q 823 31 857 44 q 751 8 789 18 q 674 -6 713 -1 q 600 -11 636 -11 q 395 27 488 -11 q 238 133 303 65 q 138 292 172 201 q 103 485 103 382 q 142 680 103 589 q 249 840 181 771 q 407 947 317 908 q 600 986 497 986 q 735 967 671 986 q 857 915 800 949 l 843 892 q 769 928 808 913 q 687 951 729 943 q 601 960 644 960 q 417 922 503 960 q 267 819 332 885 q 167 668 203 754 q 131 485 131 582 q 163 301 131 386 q 257 152 196 217 q 404 51 318 88 q 597 15 490 15 q 732 31 660 15 q 857 78 804 47 l 857 396 l 621 396 l 621 422 l 885 422 l 885 60 m 525 1089 q 534 1110 525 1101 q 557 1119 543 1119 q 578 1110 569 1119 q 588 1089 588 1101 q 578 1067 588 1076 q 557 1058 569 1058 q 534 1067 543 1058 q 525 1089 525 1076 z "},"H":{"ha":1021,"x_min":165,"x_max":857,"o":"m 857 975 l 857 0 l 829 0 l 829 478 l 193 478 l 193 0 l 165 0 l 165 975 l 193 975 l 193 504 l 829 504 l 829 975 l 857 975 z "},"Ħ":{"ha":1242,"x_min":165,"x_max":1076,"o":"m 165 708 l 1076 708 l 1076 683 l 165 683 l 165 708 m 926 975 l 926 0 l 899 0 l 899 478 l 263 478 l 263 0 l 235 0 l 235 975 l 263 975 l 263 504 l 899 504 l 899 975 l 926 975 z "},"Ĥ":{"ha":1021,"x_min":165,"x_max":857,"o":"m 857 975 l 857 0 l 829 0 l 829 478 l 193 478 l 193 0 l 165 0 l 165 975 l 193 975 l 193 504 l 829 504 l 829 975 l 857 975 m 669 1064 l 504 1254 l 522 1256 l 356 1064 l 326 1064 l 511 1275 l 513 1275 l 699 1064 l 669 1064 z "},"I":{"ha":358,"x_min":165,"x_max":193,"o":"m 165 975 l 193 975 l 193 0 l 165 0 l 165 975 z "},"Ĳ":{"ha":788,"x_min":165,"x_max":622,"o":"m 165 975 l 193 975 l 193 0 l 165 0 l 165 975 m 622 129 q 587 -47 622 25 q 491 -157 551 -119 q 358 -197 431 -194 l 358 -197 l 358 -172 q 528 -87 460 -167 q 596 133 596 -7 l 596 975 l 622 975 l 622 129 z "},"Í":{"ha":358,"x_min":165,"x_max":324,"o":"m 165 975 l 193 975 l 193 0 l 165 0 l 165 975 m 324 1214 l 196 1029 l 169 1029 l 293 1214 l 324 1214 z "},"Ĭ":{"ha":358,"x_min":8,"x_max":353,"o":"m 165 975 l 193 975 l 193 0 l 165 0 l 165 975 m 182 1050 q 95 1078 133 1050 q 33 1157 57 1107 q 8 1269 10 1207 l 32 1269 q 53 1172 33 1217 q 107 1101 74 1128 q 182 1074 140 1074 q 256 1101 224 1074 q 308 1172 289 1128 q 329 1269 326 1217 l 353 1269 q 329 1157 353 1207 q 267 1078 306 1107 q 182 1050 229 1050 z "},"Î":{"ha":358,"x_min":-6,"x_max":367,"o":"m 165 975 l 193 975 l 193 0 l 165 0 l 165 975 m 338 1065 l 172 1256 l 190 1257 l 24 1065 l -6 1065 l 179 1276 l 181 1276 l 367 1065 l 338 1065 z "},"Ȉ":{"ha":358,"x_min":-21,"x_max":268,"o":"m 165 975 l 193 975 l 193 0 l 165 0 l 165 975 m -21 1257 l 10 1257 l 133 1072 l 107 1072 l -21 1257 m 114 1257 l 144 1257 l 268 1072 l 242 1072 l 114 1257 z "},"Ï":{"ha":358,"x_min":32,"x_max":325,"o":"m 165 975 l 193 975 l 193 0 l 165 0 l 165 975 m 32 1090 q 41 1112 32 1103 q 63 1121 50 1121 q 84 1112 75 1121 q 93 1090 93 1103 q 84 1069 93 1078 q 63 1060 75 1060 q 41 1069 50 1060 q 32 1090 32 1078 l 32 1090 m 263 1090 q 272 1112 263 1103 q 294 1121 281 1121 q 315 1112 306 1121 q 325 1090 325 1103 q 315 1069 325 1078 q 294 1060 306 1060 q 272 1069 281 1060 q 263 1090 263 1078 l 263 1090 z "},"İ":{"ha":358,"x_min":147,"x_max":210,"o":"m 165 975 l 193 975 l 193 0 l 165 0 l 165 975 m 147 1089 q 156 1110 147 1101 q 179 1119 165 1119 q 201 1110 192 1119 q 210 1089 210 1101 q 201 1067 210 1076 q 179 1058 192 1058 q 156 1067 165 1058 q 147 1089 147 1076 z "},"Ị":{"ha":358,"x_min":147,"x_max":210,"o":"m 165 975 l 193 975 l 193 0 l 165 0 l 165 975 m 147 -108 q 156 -87 147 -96 q 179 -78 165 -78 q 201 -87 192 -78 q 210 -108 210 -96 q 201 -130 210 -121 q 179 -139 192 -139 q 156 -130 165 -139 q 147 -108 147 -121 z "},"Ì":{"ha":358,"x_min":47,"x_max":201,"o":"m 165 975 l 193 975 l 193 0 l 165 0 l 165 975 m 47 1228 l 78 1228 l 201 1043 l 175 1043 l 47 1228 z "},"Ỉ":{"ha":358,"x_min":108,"x_max":286,"o":"m 165 975 l 193 975 l 193 0 l 165 0 l 165 975 m 188 1029 q 242 1078 219 1056 q 264 1129 264 1100 q 250 1176 264 1157 q 206 1194 236 1194 q 163 1183 179 1194 q 124 1142 146 1171 l 108 1153 q 153 1201 129 1186 q 207 1217 176 1217 q 245 1208 228 1217 q 274 1181 263 1200 q 286 1131 286 1163 q 261 1068 286 1093 q 201 1015 236 1043 l 188 1029 z "},"Ȋ":{"ha":358,"x_min":6,"x_max":350,"o":"m 165 975 l 193 975 l 193 0 l 165 0 l 165 975 m 176 1244 q 263 1215 225 1244 q 325 1137 301 1186 q 350 1024 349 1088 l 328 1024 q 305 1121 325 1076 q 251 1192 285 1165 q 176 1219 218 1219 q 102 1192 135 1219 q 51 1121 69 1165 q 31 1024 32 1076 l 6 1024 q 30 1137 7 1088 q 91 1215 53 1186 q 176 1244 129 1244 z "},"Ī":{"ha":358,"x_min":19,"x_max":340,"o":"m 165 975 l 193 975 l 193 0 l 165 0 l 165 975 m 19 1076 l 340 1076 l 340 1053 l 19 1053 l 19 1076 z "},"Į":{"ha":354,"x_min":35,"x_max":240,"o":"m 136 -261 q 65 -232 96 -261 q 35 -154 35 -203 q 76 -57 35 -101 q 172 17 117 -12 l 185 8 l 190 0 q 95 -74 128 -35 q 63 -153 63 -112 q 85 -214 63 -192 q 138 -236 108 -236 q 187 -218 165 -236 q 224 -174 208 -200 l 240 -186 q 199 -239 226 -217 q 136 -261 171 -261 m 165 975 l 193 975 l 193 0 l 165 0 l 165 975 z "},"Ĩ":{"ha":358,"x_min":-19,"x_max":379,"o":"m 165 975 l 193 975 l 193 0 l 165 0 l 165 975 m 278 1068 q 215 1088 239 1068 q 171 1132 192 1107 q 133 1171 153 1153 q 85 1189 114 1189 q 51 1178 69 1189 q 19 1138 33 1167 q 3 1058 6 1110 l -19 1061 q -3 1149 -18 1115 q 36 1198 13 1182 q 85 1214 60 1214 q 147 1193 124 1214 q 190 1149 171 1172 q 228 1109 208 1126 q 278 1092 249 1092 q 330 1118 307 1092 q 357 1222 353 1144 l 379 1219 q 364 1132 378 1165 q 327 1083 350 1099 q 278 1068 304 1068 z "},"J":{"ha":429,"x_min":0,"x_max":264,"o":"m 264 129 q 228 -47 264 25 q 133 -157 193 -119 q 0 -197 72 -194 l 0 -197 l 0 -172 q 169 -87 101 -167 q 238 133 238 -7 l 238 975 l 264 975 l 264 129 z "},"Ĵ":{"ha":429,"x_min":0,"x_max":425,"o":"m 264 129 q 228 -47 264 25 q 133 -157 193 -119 q 0 -197 72 -194 l 0 -197 l 0 -172 q 169 -87 101 -167 q 238 133 238 -7 l 238 975 l 264 975 l 264 129 m 396 1065 l 231 1256 l 249 1257 l 82 1065 l 53 1065 l 238 1276 l 239 1276 l 425 1065 l 396 1065 z "},"K":{"ha":890,"x_min":165,"x_max":817,"o":"m 193 507 l 192 460 l 188 464 l 721 975 l 757 975 l 353 588 l 817 0 l 781 0 l 332 569 l 192 436 l 193 0 l 165 0 l 165 975 l 193 975 l 193 507 z "},"Ķ":{"ha":890,"x_min":165,"x_max":817,"o":"m 193 507 l 192 460 l 188 464 l 721 975 l 757 975 l 353 588 l 817 0 l 781 0 l 332 569 l 192 436 l 193 0 l 165 0 l 165 975 l 193 975 l 193 507 m 361 -256 l 347 -243 q 401 -169 386 -215 q 410 -64 417 -124 l 440 -64 q 439 -137 443 -100 q 416 -205 435 -174 q 361 -256 397 -236 z "},"L":{"ha":821,"x_min":165,"x_max":751,"o":"m 165 975 l 193 975 l 193 26 l 751 26 l 751 0 l 165 0 l 165 975 z "},"Ǉ":{"ha":1251,"x_min":165,"x_max":1085,"o":"m 165 975 l 193 975 l 193 26 l 751 26 l 751 0 l 165 0 l 165 975 m 1085 129 q 1049 -47 1085 25 q 953 -157 1014 -119 q 821 -197 893 -194 l 821 -197 l 821 -172 q 990 -87 922 -167 q 1058 133 1058 -7 l 1058 975 l 1085 975 l 1085 129 z "},"Ĺ":{"ha":821,"x_min":165,"x_max":751,"o":"m 165 975 l 193 975 l 193 26 l 751 26 l 751 0 l 165 0 l 165 975 m 324 1214 l 196 1029 l 169 1029 l 293 1214 l 324 1214 z "},"Ľ":{"ha":796,"x_min":165,"x_max":751,"o":"m 165 975 l 193 975 l 193 26 l 751 26 l 751 0 l 165 0 l 165 975 m 375 794 l 363 819 q 405 889 392 847 q 410 979 418 931 l 442 989 q 443 916 449 951 q 420 849 438 881 q 375 794 403 818 l 375 794 z "},"Ļ":{"ha":821,"x_min":165,"x_max":751,"o":"m 165 975 l 193 975 l 193 26 l 751 26 l 751 0 l 165 0 l 165 975 m 368 -256 l 354 -243 q 408 -169 393 -215 q 417 -64 424 -124 l 447 -64 q 446 -137 450 -100 q 423 -205 442 -174 q 368 -256 404 -236 z "},"Ŀ":{"ha":863,"x_min":165,"x_max":808,"o":"m 165 975 l 193 975 l 193 26 l 751 26 l 751 0 l 165 0 l 165 975 m 746 515 q 756 538 746 529 q 778 547 765 547 q 799 538 790 547 q 808 515 808 529 q 799 494 808 503 q 778 485 790 485 q 756 494 765 485 q 746 515 746 503 l 746 515 z "},"ǈ":{"ha":1121,"x_min":165,"x_max":1011,"o":"m 165 975 l 193 975 l 193 26 l 751 26 l 751 0 l 165 0 l 165 975 m 910 -251 l 889 -235 q 944 -140 924 -196 q 965 -14 965 -85 l 965 525 l 993 525 l 993 -10 q 971 -151 993 -90 q 910 -251 949 -211 m 949 690 q 958 712 949 703 q 981 721 967 721 q 1002 712 993 721 q 1011 690 1011 703 q 1002 669 1011 678 q 981 660 993 660 q 958 669 967 660 q 949 690 949 678 z "},"Ł":{"ha":796,"x_min":44,"x_max":751,"o":"m 486 572 l 488 547 l 46 386 l 44 411 l 486 572 m 165 975 l 193 975 l 193 26 l 751 26 l 751 0 l 165 0 l 165 975 z "},"M":{"ha":1242,"x_min":165,"x_max":1078,"o":"m 165 0 l 165 992 l 167 992 l 628 336 l 615 336 l 1076 992 l 1078 992 l 1078 0 l 1050 0 l 1050 924 l 1053 913 l 622 306 l 619 306 l 189 913 l 193 922 l 193 0 l 165 0 z "},"N":{"ha":1129,"x_min":165,"x_max":964,"o":"m 963 -18 l 185 925 l 192 939 l 193 0 l 165 0 l 165 990 l 167 990 l 951 38 l 938 39 l 938 975 l 964 975 l 964 -18 l 963 -18 z "},"Ǌ":{"ha":1558,"x_min":165,"x_max":1393,"o":"m 963 -18 l 185 925 l 192 939 l 193 0 l 165 0 l 165 990 l 167 990 l 951 38 l 938 39 l 938 975 l 964 975 l 964 -18 l 963 -18 m 1393 129 q 1358 -47 1393 25 q 1262 -157 1322 -119 q 1129 -197 1201 -194 l 1129 -197 l 1129 -172 q 1299 -87 1231 -167 q 1367 133 1367 -7 l 1367 975 l 1393 975 l 1393 129 z "},"Ń":{"ha":1129,"x_min":165,"x_max":964,"o":"m 963 -18 l 185 925 l 192 939 l 193 0 l 165 0 l 165 990 l 167 990 l 951 38 l 938 39 l 938 975 l 964 975 l 964 -18 l 963 -18 m 708 1213 l 581 1028 l 554 1028 l 678 1213 l 708 1213 z "},"Ň":{"ha":1129,"x_min":165,"x_max":964,"o":"m 963 -18 l 185 925 l 192 939 l 193 0 l 165 0 l 165 990 l 167 990 l 951 38 l 938 39 l 938 975 l 964 975 l 964 -18 l 963 -18 m 406 1239 l 571 1049 l 553 1047 l 719 1239 l 749 1239 l 564 1029 l 563 1029 l 376 1239 l 406 1239 z "},"Ņ":{"ha":1129,"x_min":165,"x_max":964,"o":"m 963 -18 l 185 925 l 192 939 l 193 0 l 165 0 l 165 990 l 167 990 l 951 38 l 938 39 l 938 975 l 964 975 l 964 -18 l 963 -18 m 503 -256 l 489 -243 q 543 -169 528 -215 q 551 -64 558 -124 l 582 -64 q 581 -137 585 -100 q 558 -205 576 -174 q 503 -256 539 -236 z "},"Ŋ":{"ha":1126,"x_min":164,"x_max":963,"o":"m 961 -18 l 183 925 l 190 939 l 190 0 l 164 0 l 164 990 l 165 990 l 950 36 l 936 39 l 935 975 l 963 975 l 963 -15 l 961 -18 m 963 85 l 963 -10 q 940 -150 963 -89 q 879 -251 918 -211 l 858 -235 q 914 -140 893 -196 q 935 -14 935 -85 l 935 93 l 963 85 z "},"Ɲ":{"ha":1128,"x_min":88,"x_max":963,"o":"m 961 -18 l 183 925 l 190 939 l 190 0 l 164 0 l 164 990 l 165 990 l 950 38 l 936 39 l 935 975 l 963 975 l 963 -15 l 961 -18 m 190 85 l 190 -10 q 169 -150 190 -89 q 108 -251 147 -211 l 88 -235 q 142 -140 121 -196 q 164 -14 164 -85 l 164 93 l 190 85 z "},"ǋ":{"ha":1429,"x_min":165,"x_max":1319,"o":"m 963 -18 l 185 925 l 192 939 l 193 0 l 165 0 l 165 990 l 167 990 l 951 38 l 938 39 l 938 975 l 964 975 l 964 -18 l 963 -18 m 1218 -251 l 1197 -235 q 1253 -140 1232 -196 q 1274 -14 1274 -85 l 1274 525 l 1301 525 l 1301 -10 q 1279 -151 1301 -90 q 1218 -251 1257 -211 m 1257 690 q 1266 712 1257 703 q 1289 721 1275 721 q 1310 712 1301 721 q 1319 690 1319 703 q 1310 669 1319 678 q 1289 660 1301 660 q 1266 669 1275 660 q 1257 690 1257 678 z "},"Ñ":{"ha":1129,"x_min":165,"x_max":964,"o":"m 963 -18 l 185 925 l 192 939 l 193 0 l 165 0 l 165 990 l 167 990 l 951 38 l 938 39 l 938 975 l 964 975 l 964 -18 l 963 -18 m 663 1067 q 600 1086 624 1067 q 556 1131 576 1106 q 518 1169 538 1151 q 469 1188 499 1188 q 436 1176 454 1188 q 404 1137 418 1165 q 388 1057 390 1108 l 365 1060 q 382 1147 367 1114 q 421 1197 397 1181 q 469 1213 444 1213 q 532 1192 508 1213 q 575 1147 556 1171 q 613 1108 593 1125 q 663 1090 633 1090 q 715 1117 692 1090 q 742 1221 738 1143 l 764 1218 q 749 1131 763 1164 q 712 1082 735 1097 q 663 1067 689 1067 z "},"O":{"ha":1201,"x_min":103,"x_max":1100,"o":"m 103 486 q 142 680 103 589 q 249 840 181 771 q 407 947 317 908 q 600 986 497 986 q 793 947 703 986 q 952 840 883 908 q 1060 680 1021 771 q 1100 486 1100 589 q 1060 293 1100 383 q 952 135 1021 203 q 793 28 883 67 q 600 -11 703 -11 q 407 26 497 -11 q 249 129 317 63 q 142 287 181 196 q 103 486 103 378 m 131 485 q 167 302 131 388 q 267 152 203 217 q 415 51 331 88 q 596 15 500 15 q 781 51 694 15 q 932 152 867 88 q 1035 302 997 217 q 1072 486 1072 388 q 1035 669 1072 583 q 933 819 997 754 q 783 922 868 885 q 600 960 697 960 q 415 922 500 960 q 265 817 329 883 q 166 665 201 750 q 131 485 131 579 z "},"Ó":{"ha":1201,"x_min":103,"x_max":1100,"o":"m 103 486 q 142 680 103 589 q 249 840 181 771 q 407 947 317 908 q 600 986 497 986 q 793 947 703 986 q 952 840 883 908 q 1060 680 1021 771 q 1100 486 1100 589 q 1060 293 1100 383 q 952 135 1021 203 q 793 28 883 67 q 600 -11 703 -11 q 407 26 497 -11 q 249 129 317 63 q 142 287 181 196 q 103 486 103 378 m 131 485 q 167 302 131 388 q 267 152 203 217 q 415 51 331 88 q 596 15 500 15 q 781 51 694 15 q 932 152 867 88 q 1035 302 997 217 q 1072 486 1072 388 q 1035 669 1072 583 q 933 819 997 754 q 783 922 868 885 q 600 960 697 960 q 415 922 500 960 q 265 817 329 883 q 166 665 201 750 q 131 485 131 579 m 746 1213 l 618 1028 l 592 1028 l 715 1213 l 746 1213 z "},"Ŏ":{"ha":1201,"x_min":103,"x_max":1100,"o":"m 103 486 q 142 680 103 589 q 249 840 181 771 q 407 947 317 908 q 600 986 497 986 q 793 947 703 986 q 952 840 883 908 q 1060 680 1021 771 q 1100 486 1100 589 q 1060 293 1100 383 q 952 135 1021 203 q 793 28 883 67 q 600 -11 703 -11 q 407 26 497 -11 q 249 129 317 63 q 142 287 181 196 q 103 486 103 378 m 131 485 q 167 302 131 388 q 267 152 203 217 q 415 51 331 88 q 596 15 500 15 q 781 51 694 15 q 932 152 867 88 q 1035 302 997 217 q 1072 486 1072 388 q 1035 669 1072 583 q 933 819 997 754 q 783 922 868 885 q 600 960 697 960 q 415 922 500 960 q 265 817 329 883 q 166 665 201 750 q 131 485 131 579 m 604 1049 q 517 1077 556 1049 q 456 1156 479 1106 q 431 1268 432 1206 l 454 1268 q 476 1171 456 1215 q 529 1099 496 1126 q 604 1072 563 1072 q 678 1099 646 1072 q 730 1171 711 1126 q 751 1268 749 1215 l 775 1268 q 751 1156 775 1206 q 690 1077 728 1106 q 604 1049 651 1049 z "},"Ô":{"ha":1201,"x_min":103,"x_max":1100,"o":"m 103 486 q 142 680 103 589 q 249 840 181 771 q 407 947 317 908 q 600 986 497 986 q 793 947 703 986 q 952 840 883 908 q 1060 680 1021 771 q 1100 486 1100 589 q 1060 293 1100 383 q 952 135 1021 203 q 793 28 883 67 q 600 -11 703 -11 q 407 26 497 -11 q 249 129 317 63 q 142 287 181 196 q 103 486 103 378 m 131 485 q 167 302 131 388 q 267 152 203 217 q 415 51 331 88 q 596 15 500 15 q 781 51 694 15 q 932 152 867 88 q 1035 302 997 217 q 1072 486 1072 388 q 1035 669 1072 583 q 933 819 997 754 q 783 922 868 885 q 600 960 697 960 q 415 922 500 960 q 265 817 329 883 q 166 665 201 750 q 131 485 131 579 m 760 1065 l 594 1256 l 613 1257 l 446 1065 l 417 1065 l 601 1276 l 603 1276 l 789 1065 l 760 1065 z "},"Ố":{"ha":1201,"x_min":103,"x_max":1100,"o":"m 103 486 q 142 680 103 589 q 249 840 181 771 q 407 947 317 908 q 600 986 497 986 q 793 947 703 986 q 952 840 883 908 q 1060 680 1021 771 q 1100 486 1100 589 q 1060 293 1100 383 q 952 135 1021 203 q 793 28 883 67 q 600 -11 703 -11 q 407 26 497 -11 q 249 129 317 63 q 142 287 181 196 q 103 486 103 378 m 131 485 q 167 302 131 388 q 267 152 203 217 q 415 51 331 88 q 596 15 500 15 q 781 51 694 15 q 932 152 867 88 q 1035 302 997 217 q 1072 486 1072 388 q 1035 669 1072 583 q 933 819 997 754 q 783 922 868 885 q 600 960 697 960 q 415 922 500 960 q 265 817 329 883 q 166 665 201 750 q 131 485 131 579 m 754 1097 l 589 1288 l 607 1289 l 440 1097 l 411 1097 l 596 1308 l 597 1308 l 783 1097 l 754 1097 m 890 1400 l 763 1215 l 736 1215 l 860 1400 l 890 1400 z "},"Ộ":{"ha":1201,"x_min":103,"x_max":1100,"o":"m 103 486 q 142 680 103 589 q 249 840 181 771 q 407 947 317 908 q 600 986 497 986 q 793 947 703 986 q 952 840 883 908 q 1060 680 1021 771 q 1100 486 1100 589 q 1060 293 1100 383 q 952 135 1021 203 q 793 28 883 67 q 600 -11 703 -11 q 407 26 497 -11 q 249 129 317 63 q 142 287 181 196 q 103 486 103 378 m 131 485 q 167 302 131 388 q 267 152 203 217 q 415 51 331 88 q 596 15 500 15 q 781 51 694 15 q 932 152 867 88 q 1035 302 997 217 q 1072 486 1072 388 q 1035 669 1072 583 q 933 819 997 754 q 783 922 868 885 q 600 960 697 960 q 415 922 500 960 q 265 817 329 883 q 166 665 201 750 q 131 485 131 579 m 569 -108 q 578 -87 569 -96 q 601 -78 588 -78 q 623 -87 614 -78 q 632 -108 632 -96 q 623 -130 632 -121 q 601 -139 614 -139 q 578 -130 588 -139 q 569 -108 569 -121 m 760 1065 l 594 1256 l 613 1257 l 446 1065 l 417 1065 l 601 1276 l 603 1276 l 789 1065 l 760 1065 z "},"Ồ":{"ha":1201,"x_min":103,"x_max":1100,"o":"m 103 486 q 142 680 103 589 q 249 840 181 771 q 407 947 317 908 q 600 986 497 986 q 793 947 703 986 q 952 840 883 908 q 1060 680 1021 771 q 1100 486 1100 589 q 1060 293 1100 383 q 952 135 1021 203 q 793 28 883 67 q 600 -11 703 -11 q 407 26 497 -11 q 249 129 317 63 q 142 287 181 196 q 103 486 103 378 m 131 485 q 167 302 131 388 q 267 152 203 217 q 415 51 331 88 q 596 15 500 15 q 781 51 694 15 q 932 152 867 88 q 1035 302 997 217 q 1072 486 1072 388 q 1035 669 1072 583 q 933 819 997 754 q 783 922 868 885 q 600 960 697 960 q 415 922 500 960 q 265 817 329 883 q 166 665 201 750 q 131 485 131 579 m 747 1088 l 582 1278 l 600 1279 l 433 1088 l 404 1088 l 589 1299 l 590 1299 l 776 1088 l 747 1088 m 286 1413 l 317 1413 l 440 1228 l 414 1228 l 286 1413 z "},"Ổ":{"ha":1201,"x_min":103,"x_max":1100,"o":"m 103 486 q 142 680 103 589 q 249 840 181 771 q 407 947 317 908 q 600 986 497 986 q 793 947 703 986 q 952 840 883 908 q 1060 680 1021 771 q 1100 486 1100 589 q 1060 293 1100 383 q 952 135 1021 203 q 793 28 883 67 q 600 -11 703 -11 q 407 26 497 -11 q 249 129 317 63 q 142 287 181 196 q 103 486 103 378 m 131 485 q 167 302 131 388 q 267 152 203 217 q 415 51 331 88 q 596 15 500 15 q 781 51 694 15 q 932 152 867 88 q 1035 302 997 217 q 1072 486 1072 388 q 1035 669 1072 583 q 933 819 997 754 q 783 922 868 885 q 600 960 697 960 q 415 922 500 960 q 265 817 329 883 q 166 665 201 750 q 131 485 131 579 m 749 1099 l 583 1289 l 601 1290 l 435 1099 l 406 1099 l 590 1310 l 592 1310 l 778 1099 l 749 1099 m 740 1222 q 794 1271 772 1249 q 817 1322 817 1293 q 803 1369 817 1350 q 758 1388 789 1388 q 715 1376 732 1388 q 676 1335 699 1364 l 661 1346 q 706 1394 682 1379 q 760 1410 729 1410 q 798 1401 781 1410 q 827 1374 815 1393 q 839 1324 839 1356 q 814 1261 839 1286 q 754 1208 789 1236 l 740 1222 z "},"Ỗ":{"ha":1201,"x_min":103,"x_max":1100,"o":"m 103 486 q 142 680 103 589 q 249 840 181 771 q 407 947 317 908 q 600 986 497 986 q 793 947 703 986 q 952 840 883 908 q 1060 680 1021 771 q 1100 486 1100 589 q 1060 293 1100 383 q 952 135 1021 203 q 793 28 883 67 q 600 -11 703 -11 q 407 26 497 -11 q 249 129 317 63 q 142 287 181 196 q 103 486 103 378 m 131 485 q 167 302 131 388 q 267 152 203 217 q 415 51 331 88 q 596 15 500 15 q 781 51 694 15 q 932 152 867 88 q 1035 302 997 217 q 1072 486 1072 388 q 1035 669 1072 583 q 933 819 997 754 q 783 922 868 885 q 600 960 697 960 q 415 922 500 960 q 265 817 329 883 q 166 665 201 750 q 131 485 131 579 m 756 1072 l 590 1263 l 608 1264 l 442 1072 l 413 1072 l 597 1283 l 599 1283 l 785 1072 l 756 1072 m 694 1308 q 633 1328 657 1308 q 589 1372 608 1349 q 550 1411 569 1393 q 503 1429 531 1429 q 468 1418 486 1429 q 436 1379 450 1407 q 419 1299 422 1351 l 397 1301 q 415 1389 399 1356 q 453 1438 431 1422 q 501 1454 476 1454 q 564 1433 540 1454 q 607 1389 588 1413 q 646 1350 625 1367 q 696 1333 667 1333 q 747 1359 724 1333 q 774 1463 769 1385 l 796 1461 q 781 1373 794 1407 q 744 1324 767 1339 q 694 1308 722 1308 z "},"Ȍ":{"ha":1201,"x_min":103,"x_max":1100,"o":"m 103 486 q 142 680 103 589 q 249 840 181 771 q 407 947 317 908 q 600 986 497 986 q 793 947 703 986 q 952 840 883 908 q 1060 680 1021 771 q 1100 486 1100 589 q 1060 293 1100 383 q 952 135 1021 203 q 793 28 883 67 q 600 -11 703 -11 q 407 26 497 -11 q 249 129 317 63 q 142 287 181 196 q 103 486 103 378 m 131 485 q 167 302 131 388 q 267 152 203 217 q 415 51 331 88 q 596 15 500 15 q 781 51 694 15 q 932 152 867 88 q 1035 302 997 217 q 1072 486 1072 388 q 1035 669 1072 583 q 933 819 997 754 q 783 922 868 885 q 600 960 697 960 q 415 922 500 960 q 265 817 329 883 q 166 665 201 750 q 131 485 131 579 m 401 1256 l 432 1256 l 556 1071 l 529 1071 l 401 1256 m 536 1256 l 567 1256 l 690 1071 l 664 1071 l 536 1256 z "},"Ö":{"ha":1201,"x_min":103,"x_max":1100,"o":"m 103 486 q 142 680 103 589 q 249 840 181 771 q 407 947 317 908 q 600 986 497 986 q 793 947 703 986 q 952 840 883 908 q 1060 680 1021 771 q 1100 486 1100 589 q 1060 293 1100 383 q 952 135 1021 203 q 793 28 883 67 q 600 -11 703 -11 q 407 26 497 -11 q 249 129 317 63 q 142 287 181 196 q 103 486 103 378 m 131 485 q 167 302 131 388 q 267 152 203 217 q 415 51 331 88 q 596 15 500 15 q 781 51 694 15 q 932 152 867 88 q 1035 302 997 217 q 1072 486 1072 388 q 1035 669 1072 583 q 933 819 997 754 q 783 922 868 885 q 600 960 697 960 q 415 922 500 960 q 265 817 329 883 q 166 665 201 750 q 131 485 131 579 m 454 1090 q 463 1112 454 1103 q 485 1121 472 1121 q 506 1112 497 1121 q 515 1090 515 1103 q 506 1069 515 1078 q 485 1060 497 1060 q 463 1069 472 1060 q 454 1090 454 1078 l 454 1090 m 685 1090 q 694 1112 685 1103 q 717 1121 703 1121 q 738 1112 728 1121 q 747 1090 747 1103 q 738 1069 747 1078 q 717 1060 728 1060 q 694 1069 703 1060 q 685 1090 685 1078 l 685 1090 z "},"Ȫ":{"ha":1201,"x_min":103,"x_max":1100,"o":"m 103 486 q 142 680 103 589 q 249 840 181 771 q 407 947 317 908 q 600 986 497 986 q 793 947 703 986 q 952 840 883 908 q 1060 680 1021 771 q 1100 486 1100 589 q 1060 293 1100 383 q 952 135 1021 203 q 793 28 883 67 q 600 -11 703 -11 q 407 26 497 -11 q 249 129 317 63 q 142 287 181 196 q 103 486 103 378 m 131 485 q 167 302 131 388 q 267 152 203 217 q 415 51 331 88 q 596 15 500 15 q 781 51 694 15 q 932 152 867 88 q 1035 302 997 217 q 1072 486 1072 388 q 1035 669 1072 583 q 933 819 997 754 q 783 922 868 885 q 600 960 697 960 q 415 922 500 960 q 265 817 329 883 q 166 665 201 750 q 131 485 131 579 m 454 1090 q 463 1112 454 1103 q 485 1121 472 1121 q 506 1112 497 1121 q 515 1090 515 1103 q 506 1069 515 1078 q 485 1060 497 1060 q 463 1069 472 1060 q 454 1090 454 1078 l 454 1090 m 685 1090 q 694 1112 685 1103 q 717 1121 703 1121 q 738 1112 728 1121 q 747 1090 747 1103 q 738 1069 747 1078 q 717 1060 728 1060 q 694 1069 703 1060 q 685 1090 685 1078 l 685 1090 m 440 1221 l 761 1221 l 761 1197 l 440 1197 l 440 1221 z "},"Ȱ":{"ha":1201,"x_min":103,"x_max":1100,"o":"m 103 486 q 142 680 103 589 q 249 840 181 771 q 407 947 317 908 q 600 986 497 986 q 793 947 703 986 q 952 840 883 908 q 1060 680 1021 771 q 1100 486 1100 589 q 1060 293 1100 383 q 952 135 1021 203 q 793 28 883 67 q 600 -11 703 -11 q 407 26 497 -11 q 249 129 317 63 q 142 287 181 196 q 103 486 103 378 m 131 485 q 167 302 131 388 q 267 152 203 217 q 415 51 331 88 q 596 15 500 15 q 781 51 694 15 q 932 152 867 88 q 1035 302 997 217 q 1072 486 1072 388 q 1035 669 1072 583 q 933 819 997 754 q 783 922 868 885 q 600 960 697 960 q 415 922 500 960 q 265 817 329 883 q 166 665 201 750 q 131 485 131 579 m 569 1089 q 578 1110 569 1101 q 601 1119 588 1119 q 623 1110 614 1119 q 632 1089 632 1101 q 623 1067 632 1076 q 601 1058 614 1058 q 578 1067 588 1058 q 569 1089 569 1076 m 440 1219 l 761 1219 l 761 1196 l 440 1196 l 440 1219 z "},"Ọ":{"ha":1201,"x_min":103,"x_max":1100,"o":"m 103 486 q 142 680 103 589 q 249 840 181 771 q 407 947 317 908 q 600 986 497 986 q 793 947 703 986 q 952 840 883 908 q 1060 680 1021 771 q 1100 486 1100 589 q 1060 293 1100 383 q 952 135 1021 203 q 793 28 883 67 q 600 -11 703 -11 q 407 26 497 -11 q 249 129 317 63 q 142 287 181 196 q 103 486 103 378 m 131 485 q 167 302 131 388 q 267 152 203 217 q 415 51 331 88 q 596 15 500 15 q 781 51 694 15 q 932 152 867 88 q 1035 302 997 217 q 1072 486 1072 388 q 1035 669 1072 583 q 933 819 997 754 q 783 922 868 885 q 600 960 697 960 q 415 922 500 960 q 265 817 329 883 q 166 665 201 750 q 131 485 131 579 m 569 -108 q 578 -87 569 -96 q 601 -78 588 -78 q 623 -87 614 -78 q 632 -108 632 -96 q 623 -130 632 -121 q 601 -139 614 -139 q 578 -130 588 -139 q 569 -108 569 -121 z "},"Ò":{"ha":1201,"x_min":103,"x_max":1100,"o":"m 103 486 q 142 680 103 589 q 249 840 181 771 q 407 947 317 908 q 600 986 497 986 q 793 947 703 986 q 952 840 883 908 q 1060 680 1021 771 q 1100 486 1100 589 q 1060 293 1100 383 q 952 135 1021 203 q 793 28 883 67 q 600 -11 703 -11 q 407 26 497 -11 q 249 129 317 63 q 142 287 181 196 q 103 486 103 378 m 131 485 q 167 302 131 388 q 267 152 203 217 q 415 51 331 88 q 596 15 500 15 q 781 51 694 15 q 932 152 867 88 q 1035 302 997 217 q 1072 486 1072 388 q 1035 669 1072 583 q 933 819 997 754 q 783 922 868 885 q 600 960 697 960 q 415 922 500 960 q 265 817 329 883 q 166 665 201 750 q 131 485 131 579 m 469 1226 l 500 1226 l 624 1042 l 597 1042 l 469 1226 z "},"Ỏ":{"ha":1201,"x_min":103,"x_max":1100,"o":"m 103 486 q 142 680 103 589 q 249 840 181 771 q 407 947 317 908 q 600 986 497 986 q 793 947 703 986 q 952 840 883 908 q 1060 680 1021 771 q 1100 486 1100 589 q 1060 293 1100 383 q 952 135 1021 203 q 793 28 883 67 q 600 -11 703 -11 q 407 26 497 -11 q 249 129 317 63 q 142 287 181 196 q 103 486 103 378 m 131 485 q 167 302 131 388 q 267 152 203 217 q 415 51 331 88 q 596 15 500 15 q 781 51 694 15 q 932 152 867 88 q 1035 302 997 217 q 1072 486 1072 388 q 1035 669 1072 583 q 933 819 997 754 q 783 922 868 885 q 600 960 697 960 q 415 922 500 960 q 265 817 329 883 q 166 665 201 750 q 131 485 131 579 m 610 1028 q 664 1076 642 1054 q 686 1128 686 1099 q 672 1174 686 1156 q 628 1193 658 1193 q 585 1181 601 1193 q 546 1140 568 1169 l 531 1151 q 575 1200 551 1185 q 629 1215 599 1215 q 667 1207 650 1215 q 697 1180 685 1199 q 708 1129 708 1161 q 683 1067 708 1092 q 624 1014 658 1042 l 610 1028 z "},"Ơ":{"ha":1201,"x_min":103,"x_max":1100,"o":"m 103 486 q 142 680 103 589 q 249 840 181 771 q 407 947 317 908 q 600 986 497 986 q 793 947 703 986 q 952 840 883 908 q 1060 680 1021 771 q 1100 486 1100 589 q 1060 293 1100 383 q 952 135 1021 203 q 793 28 883 67 q 600 -11 703 -11 q 407 26 497 -11 q 249 129 317 63 q 142 287 181 196 q 103 486 103 378 m 131 485 q 167 302 131 388 q 267 152 203 217 q 415 51 331 88 q 596 15 500 15 q 781 51 694 15 q 932 152 867 88 q 1035 302 997 217 q 1072 486 1072 388 q 1035 669 1072 583 q 933 819 997 754 q 783 922 868 885 q 600 960 697 960 q 415 922 500 960 q 265 817 329 883 q 166 665 201 750 q 131 485 131 579 m 701 975 q 808 1011 774 975 q 844 1139 843 1047 l 868 1139 q 847 1017 868 1057 q 788 965 825 978 q 701 953 751 953 l 701 975 z "},"Ớ":{"ha":1201,"x_min":103,"x_max":1100,"o":"m 103 486 q 142 680 103 589 q 249 840 181 771 q 407 947 317 908 q 600 986 497 986 q 793 947 703 986 q 952 840 883 908 q 1060 680 1021 771 q 1100 486 1100 589 q 1060 293 1100 383 q 952 135 1021 203 q 793 28 883 67 q 600 -11 703 -11 q 407 26 497 -11 q 249 129 317 63 q 142 287 181 196 q 103 486 103 378 m 131 485 q 167 302 131 388 q 267 152 203 217 q 415 51 331 88 q 596 15 500 15 q 781 51 694 15 q 932 152 867 88 q 1035 302 997 217 q 1072 486 1072 388 q 1035 669 1072 583 q 933 819 997 754 q 783 922 868 885 q 600 960 697 960 q 415 922 500 960 q 265 817 329 883 q 166 665 201 750 q 131 485 131 579 m 701 975 q 808 1011 774 975 q 844 1139 843 1047 l 868 1139 q 847 1017 868 1057 q 788 965 825 978 q 701 953 751 953 l 701 975 m 746 1213 l 618 1028 l 592 1028 l 715 1213 l 746 1213 z "},"Ợ":{"ha":1201,"x_min":103,"x_max":1100,"o":"m 103 486 q 142 680 103 589 q 249 840 181 771 q 407 947 317 908 q 600 986 497 986 q 793 947 703 986 q 952 840 883 908 q 1060 680 1021 771 q 1100 486 1100 589 q 1060 293 1100 383 q 952 135 1021 203 q 793 28 883 67 q 600 -11 703 -11 q 407 26 497 -11 q 249 129 317 63 q 142 287 181 196 q 103 486 103 378 m 131 485 q 167 302 131 388 q 267 152 203 217 q 415 51 331 88 q 596 15 500 15 q 781 51 694 15 q 932 152 867 88 q 1035 302 997 217 q 1072 486 1072 388 q 1035 669 1072 583 q 933 819 997 754 q 783 922 868 885 q 600 960 697 960 q 415 922 500 960 q 265 817 329 883 q 166 665 201 750 q 131 485 131 579 m 701 975 q 808 1011 774 975 q 844 1139 843 1047 l 868 1139 q 847 1017 868 1057 q 788 965 825 978 q 701 953 751 953 l 701 975 m 569 -108 q 578 -87 569 -96 q 601 -78 588 -78 q 623 -87 614 -78 q 632 -108 632 -96 q 623 -130 632 -121 q 601 -139 614 -139 q 578 -130 588 -139 q 569 -108 569 -121 z "},"Ờ":{"ha":1201,"x_min":103,"x_max":1100,"o":"m 103 486 q 142 680 103 589 q 249 840 181 771 q 407 947 317 908 q 600 986 497 986 q 793 947 703 986 q 952 840 883 908 q 1060 680 1021 771 q 1100 486 1100 589 q 1060 293 1100 383 q 952 135 1021 203 q 793 28 883 67 q 600 -11 703 -11 q 407 26 497 -11 q 249 129 317 63 q 142 287 181 196 q 103 486 103 378 m 131 485 q 167 302 131 388 q 267 152 203 217 q 415 51 331 88 q 596 15 500 15 q 781 51 694 15 q 932 152 867 88 q 1035 302 997 217 q 1072 486 1072 388 q 1035 669 1072 583 q 933 819 997 754 q 783 922 868 885 q 600 960 697 960 q 415 922 500 960 q 265 817 329 883 q 166 665 201 750 q 131 485 131 579 m 701 975 q 808 1011 774 975 q 844 1139 843 1047 l 868 1139 q 847 1017 868 1057 q 788 965 825 978 q 701 953 751 953 l 701 975 m 469 1226 l 500 1226 l 624 1042 l 597 1042 l 469 1226 z "},"Ở":{"ha":1201,"x_min":103,"x_max":1100,"o":"m 103 486 q 142 680 103 589 q 249 840 181 771 q 407 947 317 908 q 600 986 497 986 q 793 947 703 986 q 952 840 883 908 q 1060 680 1021 771 q 1100 486 1100 589 q 1060 293 1100 383 q 952 135 1021 203 q 793 28 883 67 q 600 -11 703 -11 q 407 26 497 -11 q 249 129 317 63 q 142 287 181 196 q 103 486 103 378 m 131 485 q 167 302 131 388 q 267 152 203 217 q 415 51 331 88 q 596 15 500 15 q 781 51 694 15 q 932 152 867 88 q 1035 302 997 217 q 1072 486 1072 388 q 1035 669 1072 583 q 933 819 997 754 q 783 922 868 885 q 600 960 697 960 q 415 922 500 960 q 265 817 329 883 q 166 665 201 750 q 131 485 131 579 m 701 975 q 808 1011 774 975 q 844 1139 843 1047 l 868 1139 q 847 1017 868 1057 q 788 965 825 978 q 701 953 751 953 l 701 975 m 610 1028 q 664 1076 642 1054 q 686 1128 686 1099 q 672 1174 686 1156 q 628 1193 658 1193 q 585 1181 601 1193 q 546 1140 568 1169 l 531 1151 q 575 1200 551 1185 q 629 1215 599 1215 q 667 1207 650 1215 q 697 1180 685 1199 q 708 1129 708 1161 q 683 1067 708 1092 q 624 1014 658 1042 l 610 1028 z "},"Ỡ":{"ha":1201,"x_min":103,"x_max":1100,"o":"m 103 486 q 142 680 103 589 q 249 840 181 771 q 407 947 317 908 q 600 986 497 986 q 793 947 703 986 q 952 840 883 908 q 1060 680 1021 771 q 1100 486 1100 589 q 1060 293 1100 383 q 952 135 1021 203 q 793 28 883 67 q 600 -11 703 -11 q 407 26 497 -11 q 249 129 317 63 q 142 287 181 196 q 103 486 103 378 m 131 485 q 167 302 131 388 q 267 152 203 217 q 415 51 331 88 q 596 15 500 15 q 781 51 694 15 q 932 152 867 88 q 1035 302 997 217 q 1072 486 1072 388 q 1035 669 1072 583 q 933 819 997 754 q 783 922 868 885 q 600 960 697 960 q 415 922 500 960 q 265 817 329 883 q 166 665 201 750 q 131 485 131 579 m 701 975 q 808 1011 774 975 q 844 1139 843 1047 l 868 1139 q 847 1017 868 1057 q 788 965 825 978 q 701 953 751 953 l 701 975 m 700 1068 q 638 1088 661 1068 q 593 1132 614 1107 q 556 1171 575 1153 q 507 1189 536 1189 q 474 1178 492 1189 q 442 1138 456 1167 q 425 1058 428 1110 l 403 1061 q 419 1149 404 1115 q 458 1198 435 1182 q 507 1214 482 1214 q 569 1193 546 1214 q 613 1149 593 1172 q 651 1109 631 1126 q 700 1092 671 1092 q 752 1118 729 1092 q 779 1222 775 1144 l 801 1219 q 786 1132 800 1165 q 749 1083 772 1099 q 700 1068 726 1068 z "},"Ő":{"ha":1201,"x_min":103,"x_max":1100,"o":"m 103 486 q 142 680 103 589 q 249 840 181 771 q 407 947 317 908 q 600 986 497 986 q 793 947 703 986 q 952 840 883 908 q 1060 680 1021 771 q 1100 486 1100 589 q 1060 293 1100 383 q 952 135 1021 203 q 793 28 883 67 q 600 -11 703 -11 q 407 26 497 -11 q 249 129 317 63 q 142 287 181 196 q 103 486 103 378 m 131 485 q 167 302 131 388 q 267 152 203 217 q 415 51 331 88 q 596 15 500 15 q 781 51 694 15 q 932 152 867 88 q 1035 302 997 217 q 1072 486 1072 388 q 1035 669 1072 583 q 933 819 997 754 q 783 922 868 885 q 600 960 697 960 q 415 922 500 960 q 265 817 329 883 q 166 665 201 750 q 131 485 131 579 m 693 1244 l 565 1060 l 539 1060 l 663 1244 l 693 1244 m 826 1244 l 699 1060 l 672 1060 l 796 1244 l 826 1244 z "},"Ȏ":{"ha":1201,"x_min":103,"x_max":1100,"o":"m 103 486 q 142 680 103 589 q 249 840 181 771 q 407 947 317 908 q 600 986 497 986 q 793 947 703 986 q 952 840 883 908 q 1060 680 1021 771 q 1100 486 1100 589 q 1060 293 1100 383 q 952 135 1021 203 q 793 28 883 67 q 600 -11 703 -11 q 407 26 497 -11 q 249 129 317 63 q 142 287 181 196 q 103 486 103 378 m 131 485 q 167 302 131 388 q 267 152 203 217 q 415 51 331 88 q 596 15 500 15 q 781 51 694 15 q 932 152 867 88 q 1035 302 997 217 q 1072 486 1072 388 q 1035 669 1072 583 q 933 819 997 754 q 783 922 868 885 q 600 960 697 960 q 415 922 500 960 q 265 817 329 883 q 166 665 201 750 q 131 485 131 579 m 599 1243 q 685 1214 647 1243 q 747 1135 724 1185 q 772 1022 771 1086 l 750 1022 q 727 1119 747 1075 q 674 1191 707 1164 q 599 1218 640 1218 q 524 1191 557 1218 q 473 1119 492 1164 q 453 1022 454 1075 l 428 1022 q 452 1135 429 1086 q 513 1214 475 1185 q 599 1243 551 1243 z "},"Ō":{"ha":1201,"x_min":103,"x_max":1100,"o":"m 103 486 q 142 680 103 589 q 249 840 181 771 q 407 947 317 908 q 600 986 497 986 q 793 947 703 986 q 952 840 883 908 q 1060 680 1021 771 q 1100 486 1100 589 q 1060 293 1100 383 q 952 135 1021 203 q 793 28 883 67 q 600 -11 703 -11 q 407 26 497 -11 q 249 129 317 63 q 142 287 181 196 q 103 486 103 378 m 131 485 q 167 302 131 388 q 267 152 203 217 q 415 51 331 88 q 596 15 500 15 q 781 51 694 15 q 932 152 867 88 q 1035 302 997 217 q 1072 486 1072 388 q 1035 669 1072 583 q 933 819 997 754 q 783 922 868 885 q 600 960 697 960 q 415 922 500 960 q 265 817 329 883 q 166 665 201 750 q 131 485 131 579 m 440 1075 l 761 1075 l 761 1051 l 440 1051 l 440 1075 z "},"Ǫ":{"ha":1201,"x_min":103,"x_max":1100,"o":"m 600 -11 q 407 26 497 -11 q 249 129 317 63 q 142 287 181 196 q 103 486 103 378 q 142 680 103 589 q 249 840 181 771 q 407 947 317 908 q 600 986 497 986 q 793 947 703 986 q 952 840 883 908 q 1060 680 1021 771 q 1100 486 1100 589 q 1071 314 1100 389 q 997 183 1042 239 q 900 90 951 128 q 803 28 851 54 q 716 -21 756 3 q 653 -76 676 -44 q 629 -153 629 -107 q 652 -214 629 -192 q 704 -236 675 -236 q 753 -218 732 -236 q 790 -174 775 -200 l 807 -186 q 765 -239 793 -217 q 703 -261 738 -261 q 632 -232 663 -261 q 601 -154 601 -203 q 626 -71 601 -106 q 689 -12 651 -36 q 764 28 726 11 l 767 19 q 688 -2 738 7 q 600 -11 638 -11 m 600 15 q 783 51 697 15 q 933 152 868 88 q 1035 302 997 217 q 1072 486 1072 388 q 1035 669 1072 583 q 933 819 997 754 q 783 922 868 885 q 600 960 697 960 q 415 922 500 960 q 265 817 329 883 q 166 665 201 750 q 131 485 131 579 q 167 302 131 388 q 267 152 203 217 q 417 51 332 88 q 600 15 503 15 z "},"Ø":{"ha":1189,"x_min":103,"x_max":1100,"o":"m 1006 982 l 183 -1 l 167 14 l 990 997 l 1006 982 m 103 486 q 142 680 103 589 q 249 840 181 771 q 407 947 317 908 q 600 986 497 986 q 793 947 703 986 q 952 840 883 908 q 1060 680 1021 771 q 1100 486 1100 589 q 1060 293 1100 383 q 952 135 1021 203 q 793 28 883 67 q 600 -11 703 -11 q 407 26 497 -11 q 249 129 317 63 q 142 287 181 196 q 103 486 103 378 m 131 485 q 167 302 131 388 q 267 152 203 217 q 415 51 331 88 q 596 15 500 15 q 781 51 694 15 q 932 152 867 88 q 1035 302 997 217 q 1072 486 1072 388 q 1035 669 1072 583 q 933 819 997 754 q 783 922 868 885 q 600 960 697 960 q 415 922 500 960 q 265 817 329 883 q 166 665 201 750 q 131 485 131 579 z "},"Ǿ":{"ha":1189,"x_min":103,"x_max":1100,"o":"m 1006 982 l 183 -1 l 167 14 l 990 997 l 1006 982 m 103 486 q 142 680 103 589 q 249 840 181 771 q 407 947 317 908 q 600 986 497 986 q 793 947 703 986 q 952 840 883 908 q 1060 680 1021 771 q 1100 486 1100 589 q 1060 293 1100 383 q 952 135 1021 203 q 793 28 883 67 q 600 -11 703 -11 q 407 26 497 -11 q 249 129 317 63 q 142 287 181 196 q 103 486 103 378 m 131 485 q 167 302 131 388 q 267 152 203 217 q 415 51 331 88 q 596 15 500 15 q 781 51 694 15 q 932 152 867 88 q 1035 302 997 217 q 1072 486 1072 388 q 1035 669 1072 583 q 933 819 997 754 q 783 922 868 885 q 600 960 697 960 q 415 922 500 960 q 265 817 329 883 q 166 665 201 750 q 131 485 131 579 m 739 1213 l 611 1028 l 585 1028 l 708 1213 l 739 1213 z "},"Õ":{"ha":1201,"x_min":103,"x_max":1100,"o":"m 103 486 q 142 680 103 589 q 249 840 181 771 q 407 947 317 908 q 600 986 497 986 q 793 947 703 986 q 952 840 883 908 q 1060 680 1021 771 q 1100 486 1100 589 q 1060 293 1100 383 q 952 135 1021 203 q 793 28 883 67 q 600 -11 703 -11 q 407 26 497 -11 q 249 129 317 63 q 142 287 181 196 q 103 486 103 378 m 131 485 q 167 302 131 388 q 267 152 203 217 q 415 51 331 88 q 596 15 500 15 q 781 51 694 15 q 932 152 867 88 q 1035 302 997 217 q 1072 486 1072 388 q 1035 669 1072 583 q 933 819 997 754 q 783 922 868 885 q 600 960 697 960 q 415 922 500 960 q 265 817 329 883 q 166 665 201 750 q 131 485 131 579 m 700 1068 q 638 1088 661 1068 q 593 1132 614 1107 q 556 1171 575 1153 q 507 1189 536 1189 q 474 1178 492 1189 q 442 1138 456 1167 q 425 1058 428 1110 l 403 1061 q 419 1149 404 1115 q 458 1198 435 1182 q 507 1214 482 1214 q 569 1193 546 1214 q 613 1149 593 1172 q 651 1109 631 1126 q 700 1092 671 1092 q 752 1118 729 1092 q 779 1222 775 1144 l 801 1219 q 786 1132 800 1165 q 749 1083 772 1099 q 700 1068 726 1068 z "},"Ȭ":{"ha":1201,"x_min":103,"x_max":1100,"o":"m 103 486 q 142 680 103 589 q 249 840 181 771 q 407 947 317 908 q 600 986 497 986 q 793 947 703 986 q 952 840 883 908 q 1060 680 1021 771 q 1100 486 1100 589 q 1060 293 1100 383 q 952 135 1021 203 q 793 28 883 67 q 600 -11 703 -11 q 407 26 497 -11 q 249 129 317 63 q 142 287 181 196 q 103 486 103 378 m 131 485 q 167 302 131 388 q 267 152 203 217 q 415 51 331 88 q 596 15 500 15 q 781 51 694 15 q 932 152 867 88 q 1035 302 997 217 q 1072 486 1072 388 q 1035 669 1072 583 q 933 819 997 754 q 783 922 868 885 q 600 960 697 960 q 415 922 500 960 q 265 817 329 883 q 166 665 201 750 q 131 485 131 579 m 700 1068 q 638 1088 661 1068 q 593 1132 614 1107 q 556 1171 575 1153 q 507 1189 536 1189 q 474 1178 492 1189 q 442 1138 456 1167 q 425 1058 428 1110 l 403 1061 q 419 1149 404 1115 q 458 1198 435 1182 q 507 1214 482 1214 q 569 1193 546 1214 q 613 1149 593 1172 q 651 1109 631 1126 q 700 1092 671 1092 q 752 1118 729 1092 q 779 1222 775 1144 l 801 1219 q 786 1132 800 1165 q 749 1083 772 1099 q 700 1068 726 1068 m 442 1324 l 763 1324 l 763 1300 l 442 1300 l 442 1324 z "},"Œ":{"ha":1401,"x_min":110,"x_max":1261,"o":"m 710 949 q 659 957 685 954 q 607 960 633 960 q 425 922 510 960 q 276 819 340 885 q 174 668 211 754 q 138 485 138 582 q 174 302 138 388 q 274 152 210 217 q 424 51 339 88 q 608 15 510 15 q 708 28 657 15 l 731 4 q 670 -7 701 -3 q 607 -11 639 -11 q 414 28 504 -11 q 256 135 324 67 q 149 293 188 203 q 110 486 110 383 q 149 680 110 589 q 256 840 188 771 q 414 947 324 908 q 607 986 504 986 q 672 982 640 986 q 733 969 703 978 l 710 949 m 701 975 l 1242 975 l 1242 947 l 729 947 l 729 504 l 1188 504 l 1188 478 l 729 478 l 729 28 l 1261 28 l 1261 0 l 701 0 l 701 975 z "},"P":{"ha":736,"x_min":165,"x_max":647,"o":"m 368 975 q 512 947 449 975 q 611 862 575 919 q 647 715 647 804 q 630 613 647 663 q 576 525 613 564 q 483 463 540 486 q 347 440 426 440 l 193 440 l 193 0 l 165 0 l 165 975 l 368 975 m 347 467 q 481 492 428 467 q 565 556 535 517 q 608 638 594 594 q 621 718 621 681 q 602 817 621 774 q 550 889 583 860 q 469 933 517 918 q 367 949 422 949 l 193 949 l 193 467 l 347 467 z "},"Þ":{"ha":736,"x_min":165,"x_max":647,"o":"m 367 749 q 458 735 408 749 q 550 690 507 721 q 620 610 593 660 q 647 489 647 561 q 630 387 647 436 q 576 299 613 338 q 483 237 540 260 q 349 214 426 214 l 193 214 l 193 0 l 165 0 l 165 974 l 193 974 l 193 749 l 367 749 m 351 242 q 483 266 431 242 q 565 329 535 290 q 607 411 594 368 q 619 492 619 454 q 585 612 619 560 q 490 692 550 664 q 353 721 429 721 l 193 721 l 193 242 l 351 242 z "},"Q":{"ha":1221,"x_min":103,"x_max":1118,"o":"m 729 26 l 1118 26 l 1118 0 l 685 0 l 729 26 m 103 486 q 142 680 103 589 q 249 840 181 771 q 407 947 317 908 q 600 986 497 986 q 793 947 703 986 q 952 840 883 908 q 1060 680 1021 771 q 1100 486 1100 589 q 1060 293 1100 383 q 952 135 1021 203 q 793 28 883 67 q 600 -11 703 -11 q 407 26 497 -11 q 249 129 317 63 q 142 287 181 196 q 103 486 103 378 m 131 485 q 167 302 131 388 q 267 152 203 217 q 415 51 331 88 q 596 15 500 15 q 781 51 694 15 q 932 152 867 88 q 1035 302 997 217 q 1072 486 1072 388 q 1035 669 1072 583 q 933 819 997 754 q 783 922 868 885 q 600 960 697 960 q 415 922 500 960 q 265 817 329 883 q 166 665 201 750 q 131 485 131 579 z "},"R":{"ha":857,"x_min":165,"x_max":750,"o":"m 365 975 q 456 961 407 975 q 549 917 506 947 q 621 837 593 886 q 649 715 649 788 q 632 613 649 663 q 580 525 615 564 q 488 463 544 486 q 347 440 431 440 l 193 440 l 193 0 l 165 0 l 165 975 l 365 975 m 343 467 q 480 489 426 467 q 564 547 533 511 q 608 627 594 583 q 621 714 621 671 q 601 809 621 765 q 546 884 581 853 q 465 932 511 915 q 367 949 419 949 l 193 949 l 193 467 l 343 467 m 471 465 l 750 0 l 718 0 l 439 465 l 471 465 z "},"Ŕ":{"ha":857,"x_min":165,"x_max":750,"o":"m 365 975 q 456 961 407 975 q 549 917 506 947 q 621 837 593 886 q 649 715 649 788 q 632 613 649 663 q 580 525 615 564 q 488 463 544 486 q 347 440 431 440 l 193 440 l 193 0 l 165 0 l 165 975 l 365 975 m 343 467 q 480 489 426 467 q 564 547 533 511 q 608 627 594 583 q 621 714 621 671 q 601 809 621 765 q 546 884 581 853 q 465 932 511 915 q 367 949 419 949 l 193 949 l 193 467 l 343 467 m 471 465 l 750 0 l 718 0 l 439 465 l 471 465 m 510 1214 l 382 1029 l 356 1029 l 479 1214 l 510 1214 z "},"Ř":{"ha":857,"x_min":165,"x_max":750,"o":"m 365 975 q 456 961 407 975 q 549 917 506 947 q 621 837 593 886 q 649 715 649 788 q 632 613 649 663 q 580 525 615 564 q 488 463 544 486 q 347 440 431 440 l 193 440 l 193 0 l 165 0 l 165 975 l 365 975 m 343 467 q 480 489 426 467 q 564 547 533 511 q 608 627 594 583 q 621 714 621 671 q 601 809 621 765 q 546 884 581 853 q 465 932 511 915 q 367 949 419 949 l 193 949 l 193 467 l 343 467 m 471 465 l 750 0 l 718 0 l 439 465 l 471 465 m 208 1240 l 374 1050 l 356 1049 l 522 1240 l 551 1240 l 367 1031 l 365 1031 l 179 1240 l 208 1240 z "},"Ŗ":{"ha":857,"x_min":165,"x_max":750,"o":"m 365 975 q 456 961 407 975 q 549 917 506 947 q 621 837 593 886 q 649 715 649 788 q 632 613 649 663 q 580 525 615 564 q 488 463 544 486 q 347 440 431 440 l 193 440 l 193 0 l 165 0 l 165 975 l 365 975 m 343 467 q 480 489 426 467 q 564 547 533 511 q 608 627 594 583 q 621 714 621 671 q 601 809 621 765 q 546 884 581 853 q 465 932 511 915 q 367 949 419 949 l 193 949 l 193 467 l 343 467 m 471 465 l 750 0 l 718 0 l 439 465 l 471 465 m 306 -256 l 292 -243 q 346 -169 331 -215 q 354 -64 361 -124 l 385 -64 q 383 -137 388 -100 q 360 -205 379 -174 q 306 -256 342 -236 z "},"Ȑ":{"ha":857,"x_min":165,"x_max":750,"o":"m 365 975 q 456 961 407 975 q 549 917 506 947 q 621 837 593 886 q 649 715 649 788 q 632 613 649 663 q 580 525 615 564 q 488 463 544 486 q 347 440 431 440 l 193 440 l 193 0 l 165 0 l 165 975 l 365 975 m 343 467 q 480 489 426 467 q 564 547 533 511 q 608 627 594 583 q 621 714 621 671 q 601 809 621 765 q 546 884 581 853 q 465 932 511 915 q 367 949 419 949 l 193 949 l 193 467 l 343 467 m 471 465 l 750 0 l 718 0 l 439 465 l 471 465 m 167 1257 l 197 1257 l 321 1072 l 294 1072 l 167 1257 m 301 1257 l 332 1257 l 456 1072 l 429 1072 l 301 1257 z "},"Ȓ":{"ha":857,"x_min":165,"x_max":750,"o":"m 365 975 q 456 961 407 975 q 549 917 506 947 q 621 837 593 886 q 649 715 649 788 q 632 613 649 663 q 580 525 615 564 q 488 463 544 486 q 347 440 431 440 l 193 440 l 193 0 l 165 0 l 165 975 l 365 975 m 343 467 q 480 489 426 467 q 564 547 533 511 q 608 627 594 583 q 621 714 621 671 q 601 809 621 765 q 546 884 581 853 q 465 932 511 915 q 367 949 419 949 l 193 949 l 193 467 l 343 467 m 471 465 l 750 0 l 718 0 l 439 465 l 471 465 m 364 1244 q 451 1215 413 1244 q 513 1137 489 1186 q 538 1024 536 1088 l 515 1024 q 492 1121 513 1076 q 439 1192 472 1165 q 364 1219 406 1219 q 290 1192 322 1219 q 238 1121 257 1165 q 218 1024 219 1076 l 193 1024 q 217 1137 194 1088 q 278 1215 240 1186 q 364 1244 317 1244 z "},"S":{"ha":765,"x_min":85,"x_max":679,"o":"m 621 906 q 519 940 582 922 q 392 957 457 957 q 220 902 285 957 q 156 767 156 847 q 191 666 156 706 q 283 599 226 626 q 404 547 339 572 q 503 507 454 529 q 592 453 551 485 q 656 376 632 422 q 679 263 679 329 q 640 117 679 178 q 535 22 601 56 q 385 -11 468 -11 q 244 9 306 -11 q 143 53 183 29 q 85 88 103 76 l 99 113 q 172 69 128 92 q 270 30 217 46 q 379 14 324 14 q 510 41 447 14 q 612 123 572 68 q 651 261 651 178 q 613 392 651 343 q 513 472 574 442 q 386 526 453 501 q 292 563 338 543 q 209 610 246 583 q 150 674 172 636 q 128 763 128 711 q 163 876 128 828 q 256 953 197 925 q 389 981 315 981 q 512 965 442 981 q 632 926 582 950 l 621 906 z "},"Ś":{"ha":765,"x_min":85,"x_max":679,"o":"m 621 906 q 519 940 582 922 q 392 957 457 957 q 220 902 285 957 q 156 767 156 847 q 191 666 156 706 q 283 599 226 626 q 404 547 339 572 q 503 507 454 529 q 592 453 551 485 q 656 376 632 422 q 679 263 679 329 q 640 117 679 178 q 535 22 601 56 q 385 -11 468 -11 q 244 9 306 -11 q 143 53 183 29 q 85 88 103 76 l 99 113 q 172 69 128 92 q 270 30 217 46 q 379 14 324 14 q 510 41 447 14 q 612 123 572 68 q 651 261 651 178 q 613 392 651 343 q 513 472 574 442 q 386 526 453 501 q 292 563 338 543 q 209 610 246 583 q 150 674 172 636 q 128 763 128 711 q 163 876 128 828 q 256 953 197 925 q 389 981 315 981 q 512 965 442 981 q 632 926 582 950 l 621 906 m 529 1239 l 401 1054 l 375 1054 l 499 1239 l 529 1239 z "},"Š":{"ha":765,"x_min":85,"x_max":679,"o":"m 621 906 q 519 940 582 922 q 392 957 457 957 q 220 902 285 957 q 156 767 156 847 q 191 666 156 706 q 283 599 226 626 q 404 547 339 572 q 503 507 454 529 q 592 453 551 485 q 656 376 632 422 q 679 263 679 329 q 640 117 679 178 q 535 22 601 56 q 385 -11 468 -11 q 244 9 306 -11 q 143 53 183 29 q 85 88 103 76 l 99 113 q 172 69 128 92 q 270 30 217 46 q 379 14 324 14 q 510 41 447 14 q 612 123 572 68 q 651 261 651 178 q 613 392 651 343 q 513 472 574 442 q 386 526 453 501 q 292 563 338 543 q 209 610 246 583 q 150 674 172 636 q 128 763 128 711 q 163 876 128 828 q 256 953 197 925 q 389 981 315 981 q 512 965 442 981 q 632 926 582 950 l 621 906 m 226 1265 l 392 1075 l 374 1074 l 540 1265 l 569 1265 l 385 1056 l 383 1056 l 197 1265 l 226 1265 z "},"Ş":{"ha":765,"x_min":85,"x_max":679,"o":"m 621 906 q 519 940 582 922 q 392 957 457 957 q 220 902 285 957 q 156 767 156 847 q 191 666 156 706 q 283 599 226 626 q 404 547 339 572 q 503 507 454 529 q 592 453 551 485 q 656 376 632 422 q 679 263 679 329 q 640 117 679 178 q 535 22 601 56 q 385 -11 468 -11 q 244 9 306 -11 q 143 53 183 29 q 85 88 103 76 l 99 113 q 172 69 128 92 q 270 30 217 46 q 379 14 324 14 q 510 41 447 14 q 612 123 572 68 q 651 261 651 178 q 613 392 651 343 q 513 472 574 442 q 386 526 453 501 q 292 563 338 543 q 209 610 246 583 q 150 674 172 636 q 128 763 128 711 q 163 876 128 828 q 256 953 197 925 q 389 981 315 981 q 512 965 442 981 q 632 926 582 950 l 621 906 m 276 -253 q 319 -278 293 -268 q 383 -289 346 -289 q 474 -267 440 -289 q 507 -204 507 -246 q 479 -141 507 -167 q 393 -115 451 -115 q 339 -122 369 -115 q 292 -136 308 -128 l 272 -118 l 374 6 l 396 -7 l 301 -124 l 281 -118 q 330 -100 296 -108 q 394 -92 364 -92 q 499 -121 463 -92 q 536 -204 536 -150 q 516 -264 536 -240 q 462 -299 496 -287 q 386 -311 428 -311 q 315 -301 347 -311 q 263 -274 283 -290 l 276 -253 z "},"Ŝ":{"ha":765,"x_min":85,"x_max":679,"o":"m 621 906 q 519 940 582 922 q 392 957 457 957 q 220 902 285 957 q 156 767 156 847 q 191 666 156 706 q 283 599 226 626 q 404 547 339 572 q 503 507 454 529 q 592 453 551 485 q 656 376 632 422 q 679 263 679 329 q 640 117 679 178 q 535 22 601 56 q 385 -11 468 -11 q 244 9 306 -11 q 143 53 183 29 q 85 88 103 76 l 99 113 q 172 69 128 92 q 270 30 217 46 q 379 14 324 14 q 510 41 447 14 q 612 123 572 68 q 651 261 651 178 q 613 392 651 343 q 513 472 574 442 q 386 526 453 501 q 292 563 338 543 q 209 610 246 583 q 150 674 172 636 q 128 763 128 711 q 163 876 128 828 q 256 953 197 925 q 389 981 315 981 q 512 965 442 981 q 632 926 582 950 l 621 906 m 543 1090 l 378 1281 l 396 1282 l 229 1090 l 200 1090 l 385 1301 l 386 1301 l 572 1090 l 543 1090 z "},"Ș":{"ha":765,"x_min":85,"x_max":679,"o":"m 621 906 q 519 940 582 922 q 392 957 457 957 q 220 902 285 957 q 156 767 156 847 q 191 666 156 706 q 283 599 226 626 q 404 547 339 572 q 503 507 454 529 q 592 453 551 485 q 656 376 632 422 q 679 263 679 329 q 640 117 679 178 q 535 22 601 56 q 385 -11 468 -11 q 244 9 306 -11 q 143 53 183 29 q 85 88 103 76 l 99 113 q 172 69 128 92 q 270 30 217 46 q 379 14 324 14 q 510 41 447 14 q 612 123 572 68 q 651 261 651 178 q 613 392 651 343 q 513 472 574 442 q 386 526 453 501 q 292 563 338 543 q 209 610 246 583 q 150 674 172 636 q 128 763 128 711 q 163 876 128 828 q 256 953 197 925 q 389 981 315 981 q 512 965 442 981 q 632 926 582 950 l 621 906 m 321 -256 l 307 -243 q 361 -169 346 -215 q 369 -64 376 -124 l 400 -64 q 399 -137 403 -100 q 376 -205 394 -174 q 321 -256 357 -236 z "},"ẞ":{"ha":1163,"x_min":165,"x_max":1054,"o":"m 806 -11 q 656 10 718 -11 q 557 53 594 31 l 568 76 q 676 32 615 50 q 807 14 738 14 q 904 36 853 14 q 991 101 956 58 q 1026 204 1026 143 q 995 294 1026 258 q 916 356 964 329 q 817 413 868 382 q 702 476 757 442 q 613 558 647 511 q 579 667 579 604 q 602 769 579 719 q 676 853 625 819 q 810 892 726 888 q 887 879 861 892 q 932 857 913 867 l 922 847 q 773 933 861 901 q 596 964 685 964 q 384 913 475 964 q 243 753 293 861 q 193 476 193 644 l 193 0 l 165 0 l 165 482 q 210 746 165 632 q 349 924 254 860 q 593 989 443 989 q 752 966 678 989 q 883 908 826 943 q 974 833 939 872 l 960 814 q 908 845 947 822 q 811 868 869 868 q 710 842 757 868 q 636 774 664 817 q 608 676 608 731 q 641 573 608 615 q 725 498 674 531 q 835 435 776 465 q 915 391 875 413 q 985 344 954 369 q 1035 286 1017 319 q 1054 207 1054 253 q 1022 98 1054 147 q 935 19 990 49 q 806 -11 879 -11 z "},"Ə":{"ha":1128,"x_min":82,"x_max":1025,"o":"m 519 988 q 718 949 626 988 q 878 840 810 910 q 986 680 947 771 q 1025 485 1025 589 q 986 291 1025 381 q 878 133 947 201 q 717 27 808 65 q 519 -11 625 -11 q 327 30 413 -11 q 180 142 242 71 q 82 303 118 213 l 971 663 l 981 639 l 107 283 l 117 300 q 278 93 171 171 q 521 15 385 15 q 706 52 619 15 q 858 153 793 89 q 960 303 924 218 q 997 483 997 388 q 963 660 997 575 q 866 813 929 746 q 715 920 803 881 q 519 960 626 960 q 399 942 458 960 q 286 894 339 924 q 192 826 233 864 l 175 846 q 275 920 219 889 q 392 969 331 951 q 519 988 454 988 z "},"T":{"ha":799,"x_min":82,"x_max":715,"o":"m 82 975 l 715 975 l 715 949 l 413 949 l 413 0 l 385 0 l 385 949 l 82 949 l 82 975 z "},"Ŧ":{"ha":799,"x_min":82,"x_max":715,"o":"m 82 975 l 715 975 l 715 949 l 413 949 l 413 0 l 385 0 l 385 949 l 82 949 l 82 975 m 238 500 l 560 500 l 560 474 l 238 474 l 238 500 z "},"Ť":{"ha":799,"x_min":82,"x_max":715,"o":"m 82 975 l 715 975 l 715 949 l 413 949 l 413 0 l 385 0 l 385 949 l 82 949 l 82 975 m 242 1239 l 407 1049 l 389 1047 l 556 1239 l 585 1239 l 400 1029 l 399 1029 l 213 1239 l 242 1239 z "},"Ţ":{"ha":799,"x_min":82,"x_max":715,"o":"m 82 975 l 715 975 l 715 949 l 413 949 l 413 0 l 385 0 l 385 949 l 82 949 l 82 975 m 292 -251 q 335 -277 308 -267 q 399 -287 361 -287 q 489 -266 456 -287 q 522 -203 522 -244 q 494 -140 522 -165 q 408 -114 467 -114 q 354 -120 385 -114 q 307 -135 324 -126 l 288 -117 l 389 7 l 411 -6 l 317 -122 l 296 -117 q 345 -99 311 -107 q 410 -90 379 -90 q 515 -119 478 -90 q 551 -203 551 -149 q 531 -262 551 -239 q 477 -298 511 -286 q 401 -310 443 -310 q 331 -299 363 -310 q 278 -272 299 -289 l 292 -251 z "},"Ț":{"ha":799,"x_min":82,"x_max":715,"o":"m 82 975 l 715 975 l 715 949 l 413 949 l 413 0 l 385 0 l 385 949 l 82 949 l 82 975 m 336 -256 l 322 -243 q 376 -169 361 -215 q 385 -64 392 -124 l 415 -64 q 414 -137 418 -100 q 391 -205 410 -174 q 336 -256 372 -236 z "},"U":{"ha":963,"x_min":164,"x_max":799,"o":"m 192 319 q 229 154 192 222 q 332 51 267 86 q 481 15 397 15 q 630 51 564 15 q 733 154 696 86 q 771 319 771 222 l 771 975 l 799 975 l 799 317 q 756 137 799 210 q 642 26 714 64 q 481 -11 571 -11 l 481 -11 q 319 26 390 -11 q 206 137 247 64 q 164 317 164 210 l 164 975 l 192 975 l 192 319 z "},"Ú":{"ha":963,"x_min":164,"x_max":799,"o":"m 192 319 q 229 154 192 222 q 332 51 267 86 q 481 15 397 15 q 630 51 564 15 q 733 154 696 86 q 771 319 771 222 l 771 975 l 799 975 l 799 317 q 756 137 799 210 q 642 26 714 64 q 481 -11 571 -11 l 481 -11 q 319 26 390 -11 q 206 137 247 64 q 164 317 164 210 l 164 975 l 192 975 l 192 319 m 625 1214 l 497 1029 l 471 1029 l 594 1214 l 625 1214 z "},"Ŭ":{"ha":963,"x_min":164,"x_max":799,"o":"m 192 319 q 229 154 192 222 q 332 51 267 86 q 481 15 397 15 q 630 51 564 15 q 733 154 696 86 q 771 319 771 222 l 771 975 l 799 975 l 799 317 q 756 137 799 210 q 642 26 714 64 q 481 -11 571 -11 l 481 -11 q 319 26 390 -11 q 206 137 247 64 q 164 317 164 210 l 164 975 l 192 975 l 192 319 m 485 1050 q 398 1078 436 1050 q 336 1157 360 1107 q 311 1269 313 1207 l 335 1269 q 356 1172 336 1217 q 410 1101 376 1128 q 485 1074 443 1074 q 559 1101 526 1074 q 610 1172 592 1128 q 632 1269 629 1217 l 656 1269 q 632 1157 656 1207 q 570 1078 608 1107 q 485 1050 532 1050 z "},"Ǔ":{"ha":963,"x_min":164,"x_max":799,"o":"m 192 319 q 229 154 192 222 q 332 51 267 86 q 481 15 397 15 q 630 51 564 15 q 733 154 696 86 q 771 319 771 222 l 771 975 l 799 975 l 799 317 q 756 137 799 210 q 642 26 714 64 q 481 -11 571 -11 l 481 -11 q 319 26 390 -11 q 206 137 247 64 q 164 317 164 210 l 164 975 l 192 975 l 192 319 m 324 1240 l 489 1050 l 471 1049 l 638 1240 l 667 1240 l 482 1031 l 481 1031 l 294 1240 l 324 1240 z "},"Û":{"ha":963,"x_min":164,"x_max":799,"o":"m 192 319 q 229 154 192 222 q 332 51 267 86 q 481 15 397 15 q 630 51 564 15 q 733 154 696 86 q 771 319 771 222 l 771 975 l 799 975 l 799 317 q 756 137 799 210 q 642 26 714 64 q 481 -11 571 -11 l 481 -11 q 319 26 390 -11 q 206 137 247 64 q 164 317 164 210 l 164 975 l 192 975 l 192 319 m 640 1065 l 475 1256 l 493 1257 l 326 1065 l 297 1065 l 482 1276 l 483 1276 l 669 1065 l 640 1065 z "},"Ȕ":{"ha":963,"x_min":164,"x_max":799,"o":"m 192 319 q 229 154 192 222 q 332 51 267 86 q 481 15 397 15 q 630 51 564 15 q 733 154 696 86 q 771 319 771 222 l 771 975 l 799 975 l 799 317 q 756 137 799 210 q 642 26 714 64 q 481 -11 571 -11 l 481 -11 q 319 26 390 -11 q 206 137 247 64 q 164 317 164 210 l 164 975 l 192 975 l 192 319 m 282 1257 l 313 1257 l 436 1072 l 410 1072 l 282 1257 m 417 1257 l 447 1257 l 571 1072 l 544 1072 l 417 1257 z "},"Ü":{"ha":963,"x_min":164,"x_max":799,"o":"m 192 319 q 229 154 192 222 q 332 51 267 86 q 481 15 397 15 q 630 51 564 15 q 733 154 696 86 q 771 319 771 222 l 771 975 l 799 975 l 799 317 q 756 137 799 210 q 642 26 714 64 q 481 -11 571 -11 l 481 -11 q 319 26 390 -11 q 206 137 247 64 q 164 317 164 210 l 164 975 l 192 975 l 192 319 m 335 1090 q 344 1112 335 1103 q 365 1121 353 1121 q 387 1112 378 1121 q 396 1090 396 1103 q 387 1069 396 1078 q 365 1060 378 1060 q 344 1069 353 1060 q 335 1090 335 1078 l 335 1090 m 565 1090 q 574 1112 565 1103 q 597 1121 583 1121 q 618 1112 608 1121 q 628 1090 628 1103 q 618 1069 628 1078 q 597 1060 608 1060 q 574 1069 583 1060 q 565 1090 565 1078 l 565 1090 z "},"Ụ":{"ha":963,"x_min":164,"x_max":799,"o":"m 192 319 q 229 154 192 222 q 332 51 267 86 q 481 15 397 15 q 630 51 564 15 q 733 154 696 86 q 771 319 771 222 l 771 975 l 799 975 l 799 317 q 756 137 799 210 q 642 26 714 64 q 481 -11 571 -11 l 481 -11 q 319 26 390 -11 q 206 137 247 64 q 164 317 164 210 l 164 975 l 192 975 l 192 319 m 450 -108 q 459 -87 450 -96 q 482 -78 468 -78 q 503 -87 494 -78 q 513 -108 513 -96 q 503 -130 513 -121 q 482 -139 494 -139 q 459 -130 468 -139 q 450 -108 450 -121 z "},"Ù":{"ha":963,"x_min":164,"x_max":799,"o":"m 192 319 q 229 154 192 222 q 332 51 267 86 q 481 15 397 15 q 630 51 564 15 q 733 154 696 86 q 771 319 771 222 l 771 975 l 799 975 l 799 317 q 756 137 799 210 q 642 26 714 64 q 481 -11 571 -11 l 481 -11 q 319 26 390 -11 q 206 137 247 64 q 164 317 164 210 l 164 975 l 192 975 l 192 319 m 349 1228 l 379 1228 l 503 1043 l 476 1043 l 349 1228 z "},"Ủ":{"ha":963,"x_min":164,"x_max":799,"o":"m 192 319 q 229 154 192 222 q 332 51 267 86 q 481 15 397 15 q 630 51 564 15 q 733 154 696 86 q 771 319 771 222 l 771 975 l 799 975 l 799 317 q 756 137 799 210 q 642 26 714 64 q 481 -11 571 -11 l 481 -11 q 319 26 390 -11 q 206 137 247 64 q 164 317 164 210 l 164 975 l 192 975 l 192 319 m 490 1029 q 544 1078 522 1056 q 567 1129 567 1100 q 553 1176 567 1157 q 508 1194 539 1194 q 465 1183 482 1194 q 426 1142 449 1171 l 411 1153 q 456 1201 432 1186 q 510 1217 479 1217 q 548 1208 531 1217 q 577 1181 565 1200 q 589 1131 589 1163 q 564 1068 589 1093 q 504 1015 539 1043 l 490 1029 z "},"Ư":{"ha":963,"x_min":164,"x_max":947,"o":"m 192 319 q 229 154 192 222 q 332 51 267 86 q 481 15 397 15 q 630 51 564 15 q 733 154 696 86 q 771 319 771 222 l 771 975 l 799 975 l 799 317 q 756 137 799 210 q 642 26 714 64 q 481 -11 571 -11 l 481 -11 q 319 26 390 -11 q 206 137 247 64 q 164 317 164 210 l 164 975 l 192 975 l 192 319 m 781 969 q 888 1006 853 969 q 924 1133 922 1042 l 947 1133 q 926 1012 947 1051 q 867 960 904 972 q 781 947 831 947 l 781 969 z "},"Ứ":{"ha":963,"x_min":164,"x_max":947,"o":"m 192 319 q 229 154 192 222 q 332 51 267 86 q 481 15 397 15 q 630 51 564 15 q 733 154 696 86 q 771 319 771 222 l 771 975 l 799 975 l 799 317 q 756 137 799 210 q 642 26 714 64 q 481 -11 571 -11 l 481 -11 q 319 26 390 -11 q 206 137 247 64 q 164 317 164 210 l 164 975 l 192 975 l 192 319 m 781 969 q 888 1006 853 969 q 924 1133 922 1042 l 947 1133 q 926 1012 947 1051 q 867 960 904 972 q 781 947 831 947 l 781 969 m 625 1214 l 497 1029 l 471 1029 l 594 1214 l 625 1214 z "},"Ự":{"ha":963,"x_min":164,"x_max":947,"o":"m 192 319 q 229 154 192 222 q 332 51 267 86 q 481 15 397 15 q 630 51 564 15 q 733 154 696 86 q 771 319 771 222 l 771 975 l 799 975 l 799 317 q 756 137 799 210 q 642 26 714 64 q 481 -11 571 -11 l 481 -11 q 319 26 390 -11 q 206 137 247 64 q 164 317 164 210 l 164 975 l 192 975 l 192 319 m 781 969 q 888 1006 853 969 q 924 1133 922 1042 l 947 1133 q 926 1012 947 1051 q 867 960 904 972 q 781 947 831 947 l 781 969 m 450 -108 q 459 -87 450 -96 q 482 -78 468 -78 q 503 -87 494 -78 q 513 -108 513 -96 q 503 -130 513 -121 q 482 -139 494 -139 q 459 -130 468 -139 q 450 -108 450 -121 z "},"Ừ":{"ha":963,"x_min":164,"x_max":947,"o":"m 192 319 q 229 154 192 222 q 332 51 267 86 q 481 15 397 15 q 630 51 564 15 q 733 154 696 86 q 771 319 771 222 l 771 975 l 799 975 l 799 317 q 756 137 799 210 q 642 26 714 64 q 481 -11 571 -11 l 481 -11 q 319 26 390 -11 q 206 137 247 64 q 164 317 164 210 l 164 975 l 192 975 l 192 319 m 781 969 q 888 1006 853 969 q 924 1133 922 1042 l 947 1133 q 926 1012 947 1051 q 867 960 904 972 q 781 947 831 947 l 781 969 m 349 1228 l 379 1228 l 503 1043 l 476 1043 l 349 1228 z "},"Ử":{"ha":963,"x_min":164,"x_max":947,"o":"m 192 319 q 229 154 192 222 q 332 51 267 86 q 481 15 397 15 q 630 51 564 15 q 733 154 696 86 q 771 319 771 222 l 771 975 l 799 975 l 799 317 q 756 137 799 210 q 642 26 714 64 q 481 -11 571 -11 l 481 -11 q 319 26 390 -11 q 206 137 247 64 q 164 317 164 210 l 164 975 l 192 975 l 192 319 m 781 969 q 888 1006 853 969 q 924 1133 922 1042 l 947 1133 q 926 1012 947 1051 q 867 960 904 972 q 781 947 831 947 l 781 969 m 490 1029 q 544 1078 522 1056 q 567 1129 567 1100 q 553 1176 567 1157 q 508 1194 539 1194 q 465 1183 482 1194 q 426 1142 449 1171 l 411 1153 q 456 1201 432 1186 q 510 1217 479 1217 q 548 1208 531 1217 q 577 1181 565 1200 q 589 1131 589 1163 q 564 1068 589 1093 q 504 1015 539 1043 l 490 1029 z "},"Ữ":{"ha":963,"x_min":164,"x_max":947,"o":"m 192 319 q 229 154 192 222 q 332 51 267 86 q 481 15 397 15 q 630 51 564 15 q 733 154 696 86 q 771 319 771 222 l 771 975 l 799 975 l 799 317 q 756 137 799 210 q 642 26 714 64 q 481 -11 571 -11 l 481 -11 q 319 26 390 -11 q 206 137 247 64 q 164 317 164 210 l 164 975 l 192 975 l 192 319 m 781 969 q 888 1006 853 969 q 924 1133 922 1042 l 947 1133 q 926 1012 947 1051 q 867 960 904 972 q 781 947 831 947 l 781 969 m 581 1068 q 518 1088 542 1068 q 474 1132 494 1107 q 436 1171 456 1153 q 388 1189 417 1189 q 354 1178 372 1189 q 322 1138 336 1167 q 306 1058 308 1110 l 283 1061 q 300 1149 285 1115 q 339 1198 315 1182 q 388 1214 363 1214 q 450 1193 426 1214 q 493 1149 474 1172 q 531 1109 511 1126 q 581 1092 551 1092 q 633 1118 610 1092 q 660 1222 656 1144 l 682 1219 q 667 1132 681 1165 q 630 1083 653 1099 q 581 1068 607 1068 z "},"Ű":{"ha":963,"x_min":164,"x_max":799,"o":"m 192 319 q 229 154 192 222 q 332 51 267 86 q 481 15 397 15 q 630 51 564 15 q 733 154 696 86 q 771 319 771 222 l 771 975 l 799 975 l 799 317 q 756 137 799 210 q 642 26 714 64 q 481 -11 571 -11 l 481 -11 q 319 26 390 -11 q 206 137 247 64 q 164 317 164 210 l 164 975 l 192 975 l 192 319 m 574 1246 l 446 1061 l 419 1061 l 543 1246 l 574 1246 m 707 1246 l 579 1061 l 553 1061 l 676 1246 l 707 1246 z "},"Ȗ":{"ha":963,"x_min":164,"x_max":799,"o":"m 192 319 q 229 154 192 222 q 332 51 267 86 q 481 15 397 15 q 630 51 564 15 q 733 154 696 86 q 771 319 771 222 l 771 975 l 799 975 l 799 317 q 756 137 799 210 q 642 26 714 64 q 481 -11 571 -11 l 481 -11 q 319 26 390 -11 q 206 137 247 64 q 164 317 164 210 l 164 975 l 192 975 l 192 319 m 479 1244 q 566 1215 528 1244 q 628 1137 604 1186 q 653 1024 651 1088 l 631 1024 q 608 1121 628 1076 q 554 1192 588 1165 q 479 1219 521 1219 q 405 1192 438 1219 q 353 1121 372 1165 q 333 1024 335 1076 l 308 1024 q 333 1137 310 1088 q 394 1215 356 1186 q 479 1244 432 1244 z "},"Ū":{"ha":963,"x_min":164,"x_max":799,"o":"m 192 319 q 229 154 192 222 q 332 51 267 86 q 481 15 397 15 q 630 51 564 15 q 733 154 696 86 q 771 319 771 222 l 771 975 l 799 975 l 799 317 q 756 137 799 210 q 642 26 714 64 q 481 -11 571 -11 l 481 -11 q 319 26 390 -11 q 206 137 247 64 q 164 317 164 210 l 164 975 l 192 975 l 192 319 m 321 1076 l 642 1076 l 642 1053 l 321 1053 l 321 1076 z "},"Ų":{"ha":963,"x_min":164,"x_max":799,"o":"m 610 -261 q 540 -232 571 -261 q 510 -154 510 -203 q 535 -62 510 -108 q 600 17 560 -15 l 610 21 l 607 13 q 481 -11 554 -11 q 319 26 390 -11 q 206 137 247 64 q 164 317 164 210 l 164 975 l 192 975 l 192 319 q 229 154 192 222 q 332 51 267 86 q 481 15 397 15 q 630 51 564 15 q 733 154 696 86 q 771 319 771 222 l 771 975 l 799 975 l 799 317 q 781 197 799 250 q 734 106 764 144 q 664 40 704 67 q 569 -52 603 -4 q 536 -153 536 -100 q 560 -214 536 -192 q 613 -236 583 -236 q 660 -218 639 -236 q 697 -174 682 -200 l 715 -186 q 673 -239 701 -217 q 610 -261 644 -261 z "},"Ů":{"ha":963,"x_min":164,"x_max":799,"o":"m 192 319 q 229 154 192 222 q 332 51 267 86 q 481 15 397 15 q 630 51 564 15 q 733 154 696 86 q 771 319 771 222 l 771 975 l 799 975 l 799 317 q 756 137 799 210 q 642 26 714 64 q 481 -11 571 -11 l 481 -11 q 319 26 390 -11 q 206 137 247 64 q 164 317 164 210 l 164 975 l 192 975 l 192 319 m 392 1160 q 417 1224 392 1199 q 482 1250 443 1250 q 547 1224 521 1250 q 572 1160 572 1199 q 547 1096 572 1121 q 482 1071 521 1071 q 417 1096 443 1071 q 392 1160 392 1121 m 414 1160 q 434 1113 414 1133 q 482 1093 454 1093 q 528 1113 508 1093 q 549 1160 549 1133 q 528 1208 549 1188 q 482 1228 508 1228 q 434 1208 454 1228 q 414 1160 414 1188 z "},"Ũ":{"ha":963,"x_min":164,"x_max":799,"o":"m 192 319 q 229 154 192 222 q 332 51 267 86 q 481 15 397 15 q 630 51 564 15 q 733 154 696 86 q 771 319 771 222 l 771 975 l 799 975 l 799 317 q 756 137 799 210 q 642 26 714 64 q 481 -11 571 -11 l 481 -11 q 319 26 390 -11 q 206 137 247 64 q 164 317 164 210 l 164 975 l 192 975 l 192 319 m 581 1068 q 518 1088 542 1068 q 474 1132 494 1107 q 436 1171 456 1153 q 388 1189 417 1189 q 354 1178 372 1189 q 322 1138 336 1167 q 306 1058 308 1110 l 283 1061 q 300 1149 285 1115 q 339 1198 315 1182 q 388 1214 363 1214 q 450 1193 426 1214 q 493 1149 474 1172 q 531 1109 511 1126 q 581 1092 551 1092 q 633 1118 610 1092 q 660 1222 656 1144 l 682 1219 q 667 1132 681 1165 q 630 1083 653 1099 q 581 1068 607 1068 z "},"V":{"ha":961,"x_min":75,"x_max":886,"o":"m 106 975 l 489 -4 l 475 -4 l 856 975 l 886 975 l 481 -44 l 75 975 l 106 975 z "},"W":{"ha":1367,"x_min":75,"x_max":1292,"o":"m 75 974 l 106 974 l 464 7 l 454 10 l 664 589 l 678 557 l 458 -44 l 75 974 m 513 974 l 540 974 l 906 0 l 890 6 l 1263 974 l 1292 974 l 896 -44 l 513 974 z "},"Ẃ":{"ha":1367,"x_min":75,"x_max":1292,"o":"m 75 974 l 106 974 l 464 7 l 454 10 l 664 589 l 678 557 l 458 -44 l 75 974 m 513 974 l 540 974 l 906 0 l 890 6 l 1263 974 l 1292 974 l 896 -44 l 513 974 m 828 1213 l 700 1028 l 674 1028 l 797 1213 l 828 1213 z "},"Ŵ":{"ha":1367,"x_min":75,"x_max":1292,"o":"m 75 974 l 106 974 l 464 7 l 454 10 l 664 589 l 678 557 l 458 -44 l 75 974 m 513 974 l 540 974 l 906 0 l 890 6 l 1263 974 l 1292 974 l 896 -44 l 513 974 m 842 1065 l 676 1256 l 694 1257 l 528 1065 l 499 1065 l 683 1276 l 685 1276 l 871 1065 l 842 1065 z "},"Ẅ":{"ha":1367,"x_min":75,"x_max":1292,"o":"m 75 974 l 106 974 l 464 7 l 454 10 l 664 589 l 678 557 l 458 -44 l 75 974 m 513 974 l 540 974 l 906 0 l 890 6 l 1263 974 l 1292 974 l 896 -44 l 513 974 m 536 1090 q 545 1112 536 1103 q 567 1121 554 1121 q 588 1112 579 1121 q 597 1090 597 1103 q 588 1069 597 1078 q 567 1060 579 1060 q 545 1069 554 1060 q 536 1090 536 1078 l 536 1090 m 767 1090 q 776 1112 767 1103 q 799 1121 785 1121 q 819 1112 810 1121 q 829 1090 829 1103 q 819 1069 829 1078 q 799 1060 810 1060 q 776 1069 785 1060 q 767 1090 767 1078 l 767 1090 z "},"Ẁ":{"ha":1367,"x_min":75,"x_max":1292,"o":"m 75 974 l 106 974 l 464 7 l 454 10 l 664 589 l 678 557 l 458 -44 l 75 974 m 513 974 l 540 974 l 906 0 l 890 6 l 1263 974 l 1292 974 l 896 -44 l 513 974 m 551 1226 l 582 1226 l 706 1042 l 679 1042 l 551 1226 z "},"X":{"ha":817,"x_min":68,"x_max":749,"o":"m 82 975 l 114 975 l 749 0 l 715 0 l 82 975 m 68 0 l 390 506 l 410 489 l 100 0 l 68 0 m 401 513 l 696 975 l 728 975 l 419 493 l 401 513 z "},"Y":{"ha":893,"x_min":68,"x_max":825,"o":"m 433 363 l 68 975 l 101 975 l 454 385 l 442 383 l 793 975 l 825 975 l 461 363 l 461 0 l 433 0 l 433 363 z "},"Ý":{"ha":893,"x_min":68,"x_max":825,"o":"m 433 363 l 68 975 l 101 975 l 454 385 l 442 383 l 793 975 l 825 975 l 461 363 l 461 0 l 433 0 l 433 363 m 593 1213 l 465 1028 l 439 1028 l 563 1213 l 593 1213 z "},"Ŷ":{"ha":893,"x_min":68,"x_max":825,"o":"m 433 363 l 68 975 l 101 975 l 454 385 l 442 383 l 793 975 l 825 975 l 461 363 l 461 0 l 433 0 l 433 363 m 607 1064 l 442 1254 l 460 1256 l 293 1064 l 264 1064 l 449 1275 l 450 1275 l 636 1064 l 607 1064 z "},"Ÿ":{"ha":893,"x_min":68,"x_max":825,"o":"m 433 363 l 68 975 l 101 975 l 454 385 l 442 383 l 793 975 l 825 975 l 461 363 l 461 0 l 433 0 l 433 363 m 301 1090 q 310 1112 301 1103 q 332 1121 319 1121 q 353 1112 344 1121 q 363 1090 363 1103 q 353 1069 363 1078 q 332 1060 344 1060 q 310 1069 319 1060 q 301 1090 301 1078 l 301 1090 m 532 1090 q 541 1112 532 1103 q 564 1121 550 1121 q 585 1112 575 1121 q 594 1090 594 1103 q 585 1069 594 1078 q 564 1060 575 1060 q 541 1069 550 1060 q 532 1090 532 1078 l 532 1090 z "},"Ỵ":{"ha":893,"x_min":68,"x_max":825,"o":"m 433 363 l 68 975 l 101 975 l 454 385 l 442 383 l 793 975 l 825 975 l 461 363 l 461 0 l 433 0 l 433 363 m 415 -108 q 424 -87 415 -96 q 447 -78 433 -78 q 469 -87 460 -78 q 478 -108 478 -96 q 469 -130 478 -121 q 447 -139 460 -139 q 424 -130 433 -139 q 415 -108 415 -121 z "},"Ỳ":{"ha":893,"x_min":68,"x_max":825,"o":"m 433 363 l 68 975 l 101 975 l 454 385 l 442 383 l 793 975 l 825 975 l 461 363 l 461 0 l 433 0 l 433 363 m 315 1226 l 346 1226 l 469 1042 l 443 1042 l 315 1226 z "},"Ỷ":{"ha":893,"x_min":68,"x_max":825,"o":"m 433 363 l 68 975 l 101 975 l 454 385 l 442 383 l 793 975 l 825 975 l 461 363 l 461 0 l 433 0 l 433 363 m 457 1028 q 511 1076 489 1054 q 533 1128 533 1099 q 519 1174 533 1156 q 475 1193 506 1193 q 432 1181 449 1193 q 393 1140 415 1169 l 378 1151 q 422 1200 399 1185 q 476 1215 446 1215 q 515 1207 497 1215 q 544 1180 532 1199 q 556 1129 556 1161 q 531 1067 556 1092 q 471 1014 506 1042 l 457 1028 z "},"Ȳ":{"ha":893,"x_min":68,"x_max":825,"o":"m 433 363 l 68 975 l 101 975 l 454 385 l 442 383 l 793 975 l 825 975 l 461 363 l 461 0 l 433 0 l 433 363 m 288 1075 l 608 1075 l 608 1051 l 288 1051 l 288 1075 z "},"Ỹ":{"ha":893,"x_min":68,"x_max":825,"o":"m 433 363 l 68 975 l 101 975 l 454 385 l 442 383 l 793 975 l 825 975 l 461 363 l 461 0 l 433 0 l 433 363 m 547 1067 q 485 1086 508 1067 q 440 1131 461 1106 q 403 1169 422 1151 q 354 1188 383 1188 q 321 1176 339 1188 q 289 1137 303 1165 q 272 1057 275 1108 l 250 1060 q 267 1147 251 1114 q 306 1197 282 1181 q 354 1213 329 1213 q 417 1192 393 1213 q 460 1147 440 1171 q 498 1108 478 1125 q 547 1090 518 1090 q 599 1117 576 1090 q 626 1221 622 1143 l 649 1218 q 633 1131 647 1164 q 597 1082 619 1097 q 547 1067 574 1067 z "},"Z":{"ha":968,"x_min":82,"x_max":886,"o":"m 82 0 q 167 117 124 57 q 256 238 211 176 q 347 360 301 299 q 440 484 393 422 q 533 607 486 546 q 624 728 579 668 q 713 844 669 788 q 797 957 756 901 l 807 949 l 194 949 q 151 953 168 949 q 124 972 133 958 q 115 1011 115 985 l 115 1024 l 144 1024 l 144 1007 q 153 984 144 993 q 186 975 163 975 l 842 975 l 125 19 l 122 26 l 886 26 l 886 0 l 82 0 z "},"Ź":{"ha":968,"x_min":82,"x_max":886,"o":"m 82 0 q 167 117 124 57 q 256 238 211 176 q 347 360 301 299 q 440 484 393 422 q 533 607 486 546 q 624 728 579 668 q 713 844 669 788 q 797 957 756 901 l 807 949 l 194 949 q 151 953 168 949 q 124 972 133 958 q 115 1011 115 985 l 115 1024 l 144 1024 l 144 1007 q 153 984 144 993 q 186 975 163 975 l 842 975 l 125 19 l 122 26 l 886 26 l 886 0 l 82 0 m 628 1213 l 500 1028 l 474 1028 l 597 1213 l 628 1213 z "},"Ž":{"ha":968,"x_min":82,"x_max":886,"o":"m 82 0 q 167 117 124 57 q 256 238 211 176 q 347 360 301 299 q 440 484 393 422 q 533 607 486 546 q 624 728 579 668 q 713 844 669 788 q 797 957 756 901 l 807 949 l 194 949 q 151 953 168 949 q 124 972 133 958 q 115 1011 115 985 l 115 1024 l 144 1024 l 144 1007 q 153 984 144 993 q 186 975 163 975 l 842 975 l 125 19 l 122 26 l 886 26 l 886 0 l 82 0 m 326 1239 l 492 1049 l 474 1047 l 640 1239 l 669 1239 l 485 1029 l 483 1029 l 297 1239 l 326 1239 z "},"Ż":{"ha":968,"x_min":82,"x_max":886,"o":"m 82 0 q 167 117 124 57 q 256 238 211 176 q 347 360 301 299 q 440 484 393 422 q 533 607 486 546 q 624 728 579 668 q 713 844 669 788 q 797 957 756 901 l 807 949 l 194 949 q 151 953 168 949 q 124 972 133 958 q 115 1011 115 985 l 115 1024 l 144 1024 l 144 1007 q 153 984 144 993 q 186 975 163 975 l 842 975 l 125 19 l 122 26 l 886 26 l 886 0 l 82 0 m 453 1089 q 462 1110 453 1101 q 485 1119 471 1119 q 506 1110 497 1119 q 515 1089 515 1101 q 506 1067 515 1076 q 485 1058 497 1058 q 462 1067 471 1058 q 453 1089 453 1076 z "},"a":{"ha":753,"x_min":75,"x_max":622,"o":"m 346 -8 q 210 28 271 -8 q 112 125 149 64 q 75 263 75 186 q 113 411 75 350 q 212 504 150 472 q 350 536 274 536 q 499 490 432 536 q 597 369 567 443 l 594 351 l 601 525 l 622 525 l 622 0 l 596 0 l 596 179 l 600 160 q 561 93 586 124 q 503 40 536 63 q 430 4 469 17 q 346 -8 390 -8 m 349 15 q 472 46 417 15 q 561 130 528 76 q 596 251 594 183 l 596 308 q 549 411 585 365 q 462 485 514 457 q 349 513 410 513 q 224 482 281 513 q 135 395 168 451 q 103 264 103 339 q 136 138 103 194 q 225 49 169 82 q 349 15 281 15 z "},"á":{"ha":753,"x_min":75,"x_max":622,"o":"m 346 -8 q 210 28 271 -8 q 112 125 149 64 q 75 263 75 186 q 113 411 75 350 q 212 504 150 472 q 350 536 274 536 q 499 490 432 536 q 597 369 567 443 l 594 351 l 601 525 l 622 525 l 622 0 l 596 0 l 596 179 l 600 160 q 561 93 586 124 q 503 40 536 63 q 430 4 469 17 q 346 -8 390 -8 m 349 15 q 472 46 417 15 q 561 130 528 76 q 596 251 594 183 l 596 308 q 549 411 585 365 q 462 485 514 457 q 349 513 410 513 q 224 482 281 513 q 135 395 168 451 q 103 264 103 339 q 136 138 103 194 q 225 49 169 82 q 349 15 281 15 m 482 826 l 354 642 l 328 642 l 451 826 l 482 826 z "},"ă":{"ha":753,"x_min":75,"x_max":622,"o":"m 346 -8 q 210 28 271 -8 q 112 125 149 64 q 75 263 75 186 q 113 411 75 350 q 212 504 150 472 q 350 536 274 536 q 499 490 432 536 q 597 369 567 443 l 594 351 l 601 525 l 622 525 l 622 0 l 596 0 l 596 179 l 600 160 q 561 93 586 124 q 503 40 536 63 q 430 4 469 17 q 346 -8 390 -8 m 349 15 q 472 46 417 15 q 561 130 528 76 q 596 251 594 183 l 596 308 q 549 411 585 365 q 462 485 514 457 q 349 513 410 513 q 224 482 281 513 q 135 395 168 451 q 103 264 103 339 q 136 138 103 194 q 225 49 169 82 q 349 15 281 15 m 372 642 q 285 670 324 642 q 224 749 247 699 q 199 861 200 799 l 222 861 q 244 764 224 808 q 297 692 264 719 q 372 665 331 665 q 447 692 414 665 q 498 764 479 719 q 519 861 517 808 l 543 861 q 519 749 543 799 q 458 670 496 699 q 372 642 419 642 z "},"ắ":{"ha":753,"x_min":75,"x_max":622,"o":"m 346 -8 q 210 28 271 -8 q 112 125 149 64 q 75 263 75 186 q 113 411 75 350 q 212 504 150 472 q 350 536 274 536 q 499 490 432 536 q 597 369 567 443 l 594 351 l 601 525 l 622 525 l 622 0 l 596 0 l 596 179 l 600 160 q 561 93 586 124 q 503 40 536 63 q 430 4 469 17 q 346 -8 390 -8 m 349 15 q 472 46 417 15 q 561 130 528 76 q 596 251 594 183 l 596 308 q 549 411 585 365 q 462 485 514 457 q 349 513 410 513 q 224 482 281 513 q 135 395 168 451 q 103 264 103 339 q 136 138 103 194 q 225 49 169 82 q 349 15 281 15 m 372 642 q 285 670 324 642 q 224 749 247 699 q 199 861 200 799 l 222 861 q 244 764 224 808 q 297 692 264 719 q 372 665 331 665 q 447 692 414 665 q 498 764 479 719 q 519 861 517 808 l 543 861 q 519 749 543 799 q 458 670 496 699 q 372 642 419 642 m 465 1069 l 338 885 l 311 885 l 435 1069 l 465 1069 z "},"ặ":{"ha":753,"x_min":75,"x_max":622,"o":"m 346 -8 q 210 28 271 -8 q 112 125 149 64 q 75 263 75 186 q 113 411 75 350 q 212 504 150 472 q 350 536 274 536 q 499 490 432 536 q 597 369 567 443 l 594 351 l 601 525 l 622 525 l 622 0 l 596 0 l 596 179 l 600 160 q 561 93 586 124 q 503 40 536 63 q 430 4 469 17 q 346 -8 390 -8 m 349 15 q 472 46 417 15 q 561 130 528 76 q 596 251 594 183 l 596 308 q 549 411 585 365 q 462 485 514 457 q 349 513 410 513 q 224 482 281 513 q 135 395 168 451 q 103 264 103 339 q 136 138 103 194 q 225 49 169 82 q 349 15 281 15 m 346 -139 q 356 -117 346 -126 q 378 -108 365 -108 q 399 -117 390 -108 q 408 -139 408 -126 q 399 -162 408 -153 q 378 -171 390 -171 q 356 -161 365 -171 q 346 -139 346 -151 m 372 642 q 285 670 324 642 q 224 749 247 699 q 199 861 200 799 l 222 861 q 244 764 224 808 q 297 692 264 719 q 372 665 331 665 q 447 692 414 665 q 498 764 479 719 q 519 861 517 808 l 543 861 q 519 749 543 799 q 458 670 496 699 q 372 642 419 642 z "},"ằ":{"ha":753,"x_min":75,"x_max":622,"o":"m 346 -8 q 210 28 271 -8 q 112 125 149 64 q 75 263 75 186 q 113 411 75 350 q 212 504 150 472 q 350 536 274 536 q 499 490 432 536 q 597 369 567 443 l 594 351 l 601 525 l 622 525 l 622 0 l 596 0 l 596 179 l 600 160 q 561 93 586 124 q 503 40 536 63 q 430 4 469 17 q 346 -8 390 -8 m 349 15 q 472 46 417 15 q 561 130 528 76 q 596 251 594 183 l 596 308 q 549 411 585 365 q 462 485 514 457 q 349 513 410 513 q 224 482 281 513 q 135 395 168 451 q 103 264 103 339 q 136 138 103 194 q 225 49 169 82 q 349 15 281 15 m 372 642 q 285 670 324 642 q 224 749 247 699 q 199 861 200 799 l 222 861 q 244 764 224 808 q 297 692 264 719 q 372 665 331 665 q 447 692 414 665 q 498 764 479 719 q 519 861 517 808 l 543 861 q 519 749 543 799 q 458 670 496 699 q 372 642 419 642 m 228 1057 l 258 1057 l 382 872 l 356 872 l 228 1057 z "},"ẳ":{"ha":753,"x_min":75,"x_max":622,"o":"m 346 -8 q 210 28 271 -8 q 112 125 149 64 q 75 263 75 186 q 113 411 75 350 q 212 504 150 472 q 350 536 274 536 q 499 490 432 536 q 597 369 567 443 l 594 351 l 601 525 l 622 525 l 622 0 l 596 0 l 596 179 l 600 160 q 561 93 586 124 q 503 40 536 63 q 430 4 469 17 q 346 -8 390 -8 m 349 15 q 472 46 417 15 q 561 130 528 76 q 596 251 594 183 l 596 308 q 549 411 585 365 q 462 485 514 457 q 349 513 410 513 q 224 482 281 513 q 135 395 168 451 q 103 264 103 339 q 136 138 103 194 q 225 49 169 82 q 349 15 281 15 m 372 642 q 285 670 324 642 q 224 749 247 699 q 199 861 200 799 l 222 861 q 244 764 224 808 q 297 692 264 719 q 372 665 331 665 q 447 692 414 665 q 498 764 479 719 q 519 861 517 808 l 543 861 q 519 749 543 799 q 458 670 496 699 q 372 642 419 642 m 363 849 q 417 897 394 875 q 439 949 439 919 q 425 995 439 976 q 381 1014 411 1014 q 338 1002 354 1014 q 299 961 321 990 l 283 972 q 328 1021 304 1006 q 382 1036 351 1036 q 420 1028 403 1036 q 449 1001 438 1019 q 461 950 461 982 q 436 888 461 913 q 376 835 411 863 l 363 849 z "},"ẵ":{"ha":753,"x_min":75,"x_max":622,"o":"m 346 -8 q 210 28 271 -8 q 112 125 149 64 q 75 263 75 186 q 113 411 75 350 q 212 504 150 472 q 350 536 274 536 q 499 490 432 536 q 597 369 567 443 l 594 351 l 601 525 l 622 525 l 622 0 l 596 0 l 596 179 l 600 160 q 561 93 586 124 q 503 40 536 63 q 430 4 469 17 q 346 -8 390 -8 m 349 15 q 472 46 417 15 q 561 130 528 76 q 596 251 594 183 l 596 308 q 549 411 585 365 q 462 485 514 457 q 349 513 410 513 q 224 482 281 513 q 135 395 168 451 q 103 264 103 339 q 136 138 103 194 q 225 49 169 82 q 349 15 281 15 m 372 642 q 285 670 324 642 q 224 749 247 699 q 199 861 200 799 l 222 861 q 244 764 224 808 q 297 692 264 719 q 372 665 331 665 q 447 692 414 665 q 498 764 479 719 q 519 861 517 808 l 543 861 q 519 749 543 799 q 458 670 496 699 q 372 642 419 642 m 486 918 q 424 938 449 918 q 381 982 400 958 q 342 1021 361 1003 q 294 1039 322 1039 q 260 1028 278 1039 q 228 989 242 1017 q 211 908 214 961 l 189 911 q 206 999 190 965 q 245 1048 222 1032 q 293 1064 268 1064 q 356 1043 332 1064 q 399 999 379 1022 q 438 960 417 976 q 488 943 458 943 q 538 969 515 943 q 565 1072 561 994 l 588 1071 q 572 983 586 1017 q 536 933 558 949 q 486 918 514 918 z "},"â":{"ha":753,"x_min":75,"x_max":622,"o":"m 346 -8 q 210 28 271 -8 q 112 125 149 64 q 75 263 75 186 q 113 411 75 350 q 212 504 150 472 q 350 536 274 536 q 499 490 432 536 q 597 369 567 443 l 594 351 l 601 525 l 622 525 l 622 0 l 596 0 l 596 179 l 600 160 q 561 93 586 124 q 503 40 536 63 q 430 4 469 17 q 346 -8 390 -8 m 349 15 q 472 46 417 15 q 561 130 528 76 q 596 251 594 183 l 596 308 q 549 411 585 365 q 462 485 514 457 q 349 513 410 513 q 224 482 281 513 q 135 395 168 451 q 103 264 103 339 q 136 138 103 194 q 225 49 169 82 q 349 15 281 15 m 538 667 l 372 857 l 390 858 l 224 667 l 194 667 l 379 878 l 381 878 l 567 667 l 538 667 z "},"ấ":{"ha":753,"x_min":75,"x_max":668,"o":"m 346 -8 q 210 28 271 -8 q 112 125 149 64 q 75 263 75 186 q 113 411 75 350 q 212 504 150 472 q 350 536 274 536 q 499 490 432 536 q 597 369 567 443 l 594 351 l 601 525 l 622 525 l 622 0 l 596 0 l 596 179 l 600 160 q 561 93 586 124 q 503 40 536 63 q 430 4 469 17 q 346 -8 390 -8 m 349 15 q 472 46 417 15 q 561 130 528 76 q 596 251 594 183 l 596 308 q 549 411 585 365 q 462 485 514 457 q 349 513 410 513 q 224 482 281 513 q 135 395 168 451 q 103 264 103 339 q 136 138 103 194 q 225 49 169 82 q 349 15 281 15 m 532 649 l 367 839 l 385 840 l 218 649 l 189 649 l 374 860 l 375 860 l 561 649 l 532 649 m 668 951 l 540 767 l 514 767 l 638 951 l 668 951 z "},"ậ":{"ha":753,"x_min":75,"x_max":622,"o":"m 346 -8 q 210 28 271 -8 q 112 125 149 64 q 75 263 75 186 q 113 411 75 350 q 212 504 150 472 q 350 536 274 536 q 499 490 432 536 q 597 369 567 443 l 594 351 l 601 525 l 622 525 l 622 0 l 596 0 l 596 179 l 600 160 q 561 93 586 124 q 503 40 536 63 q 430 4 469 17 q 346 -8 390 -8 m 349 15 q 472 46 417 15 q 561 130 528 76 q 596 251 594 183 l 596 308 q 549 411 585 365 q 462 485 514 457 q 349 513 410 513 q 224 482 281 513 q 135 395 168 451 q 103 264 103 339 q 136 138 103 194 q 225 49 169 82 q 349 15 281 15 m 346 -139 q 356 -117 346 -126 q 378 -108 365 -108 q 399 -117 390 -108 q 408 -139 408 -126 q 399 -162 408 -153 q 378 -171 390 -171 q 356 -161 365 -171 q 346 -139 346 -151 m 538 667 l 372 857 l 390 858 l 224 667 l 194 667 l 379 878 l 381 878 l 567 667 l 538 667 z "},"ầ":{"ha":753,"x_min":64,"x_max":622,"o":"m 346 -8 q 210 28 271 -8 q 112 125 149 64 q 75 263 75 186 q 113 411 75 350 q 212 504 150 472 q 350 536 274 536 q 499 490 432 536 q 597 369 567 443 l 594 351 l 601 525 l 622 525 l 622 0 l 596 0 l 596 179 l 600 160 q 561 93 586 124 q 503 40 536 63 q 430 4 469 17 q 346 -8 390 -8 m 349 15 q 472 46 417 15 q 561 130 528 76 q 596 251 594 183 l 596 308 q 549 411 585 365 q 462 485 514 457 q 349 513 410 513 q 224 482 281 513 q 135 395 168 451 q 103 264 103 339 q 136 138 103 194 q 225 49 169 82 q 349 15 281 15 m 525 639 l 360 829 l 378 831 l 211 639 l 182 639 l 367 850 l 368 850 l 554 639 l 525 639 m 64 964 l 94 964 l 218 779 l 192 779 l 64 964 z "},"ẩ":{"ha":753,"x_min":75,"x_max":622,"o":"m 346 -8 q 210 28 271 -8 q 112 125 149 64 q 75 263 75 186 q 113 411 75 350 q 212 504 150 472 q 350 536 274 536 q 499 490 432 536 q 597 369 567 443 l 594 351 l 601 525 l 622 525 l 622 0 l 596 0 l 596 179 l 600 160 q 561 93 586 124 q 503 40 536 63 q 430 4 469 17 q 346 -8 390 -8 m 349 15 q 472 46 417 15 q 561 130 528 76 q 596 251 594 183 l 596 308 q 549 411 585 365 q 462 485 514 457 q 349 513 410 513 q 224 482 281 513 q 135 395 168 451 q 103 264 103 339 q 136 138 103 194 q 225 49 169 82 q 349 15 281 15 m 526 650 l 361 840 l 379 842 l 213 650 l 183 650 l 368 861 l 369 861 l 556 650 l 526 650 m 518 774 q 572 822 550 800 q 594 874 594 844 q 581 920 594 901 q 536 939 567 939 q 493 927 510 939 q 454 886 476 915 l 439 897 q 483 946 460 931 q 538 961 507 961 q 576 953 558 961 q 605 926 593 944 q 617 875 617 907 q 592 813 617 838 q 532 760 567 788 l 518 774 z "},"ẫ":{"ha":753,"x_min":75,"x_max":622,"o":"m 346 -8 q 210 28 271 -8 q 112 125 149 64 q 75 263 75 186 q 113 411 75 350 q 212 504 150 472 q 350 536 274 536 q 499 490 432 536 q 597 369 567 443 l 594 351 l 601 525 l 622 525 l 622 0 l 596 0 l 596 179 l 600 160 q 561 93 586 124 q 503 40 536 63 q 430 4 469 17 q 346 -8 390 -8 m 349 15 q 472 46 417 15 q 561 130 528 76 q 596 251 594 183 l 596 308 q 549 411 585 365 q 462 485 514 457 q 349 513 410 513 q 224 482 281 513 q 135 395 168 451 q 103 264 103 339 q 136 138 103 194 q 225 49 169 82 q 349 15 281 15 m 533 624 l 368 814 l 386 815 l 219 624 l 190 624 l 375 835 l 376 835 l 563 624 l 533 624 m 472 860 q 410 880 435 860 q 367 924 386 900 q 328 963 347 944 q 281 981 308 981 q 246 969 264 981 q 214 931 228 958 q 197 850 200 903 l 175 853 q 192 940 176 907 q 231 990 208 974 q 279 1006 254 1006 q 342 985 318 1006 q 385 940 365 964 q 424 901 403 918 q 474 885 444 885 q 524 910 501 885 q 551 1014 547 936 l 574 1013 q 558 924 572 958 q 522 875 544 890 q 472 860 500 860 z "},"ȁ":{"ha":753,"x_min":75,"x_max":622,"o":"m 346 -8 q 210 28 271 -8 q 112 125 149 64 q 75 263 75 186 q 113 411 75 350 q 212 504 150 472 q 350 536 274 536 q 499 490 432 536 q 597 369 567 443 l 594 351 l 601 525 l 622 525 l 622 0 l 596 0 l 596 179 l 600 160 q 561 93 586 124 q 503 40 536 63 q 430 4 469 17 q 346 -8 390 -8 m 349 15 q 472 46 417 15 q 561 130 528 76 q 596 251 594 183 l 596 308 q 549 411 585 365 q 462 485 514 457 q 349 513 410 513 q 224 482 281 513 q 135 395 168 451 q 103 264 103 339 q 136 138 103 194 q 225 49 169 82 q 349 15 281 15 m 178 853 l 208 853 l 332 668 l 306 668 l 178 853 m 313 853 l 343 853 l 467 668 l 440 668 l 313 853 z "},"ä":{"ha":753,"x_min":75,"x_max":622,"o":"m 346 -8 q 210 28 271 -8 q 112 125 149 64 q 75 263 75 186 q 113 411 75 350 q 212 504 150 472 q 350 536 274 536 q 499 490 432 536 q 597 369 567 443 l 594 351 l 601 525 l 622 525 l 622 0 l 596 0 l 596 179 l 600 160 q 561 93 586 124 q 503 40 536 63 q 430 4 469 17 q 346 -8 390 -8 m 349 15 q 472 46 417 15 q 561 130 528 76 q 596 251 594 183 l 596 308 q 549 411 585 365 q 462 485 514 457 q 349 513 410 513 q 224 482 281 513 q 135 395 168 451 q 103 264 103 339 q 136 138 103 194 q 225 49 169 82 q 349 15 281 15 m 232 699 q 241 720 232 711 q 263 729 250 729 q 284 720 275 729 q 293 699 293 711 q 284 677 293 686 q 263 668 275 668 q 241 677 250 668 q 232 699 232 686 l 232 699 m 463 699 q 472 720 463 711 q 494 729 481 729 q 515 720 506 729 q 525 699 525 711 q 515 677 525 686 q 494 668 506 668 q 472 677 481 668 q 463 699 463 686 l 463 699 z "},"ạ":{"ha":753,"x_min":75,"x_max":622,"o":"m 346 -8 q 210 28 271 -8 q 112 125 149 64 q 75 263 75 186 q 113 411 75 350 q 212 504 150 472 q 350 536 274 536 q 499 490 432 536 q 597 369 567 443 l 594 351 l 601 525 l 622 525 l 622 0 l 596 0 l 596 179 l 600 160 q 561 93 586 124 q 503 40 536 63 q 430 4 469 17 q 346 -8 390 -8 m 349 15 q 472 46 417 15 q 561 130 528 76 q 596 251 594 183 l 596 308 q 549 411 585 365 q 462 485 514 457 q 349 513 410 513 q 224 482 281 513 q 135 395 168 451 q 103 264 103 339 q 136 138 103 194 q 225 49 169 82 q 349 15 281 15 m 346 -139 q 356 -117 346 -126 q 378 -108 365 -108 q 399 -117 390 -108 q 408 -139 408 -126 q 399 -162 408 -153 q 378 -171 390 -171 q 356 -161 365 -171 q 346 -139 346 -151 z "},"à":{"ha":753,"x_min":75,"x_max":622,"o":"m 346 -8 q 210 28 271 -8 q 112 125 149 64 q 75 263 75 186 q 113 411 75 350 q 212 504 150 472 q 350 536 274 536 q 499 490 432 536 q 597 369 567 443 l 594 351 l 601 525 l 622 525 l 622 0 l 596 0 l 596 179 l 600 160 q 561 93 586 124 q 503 40 536 63 q 430 4 469 17 q 346 -8 390 -8 m 349 15 q 472 46 417 15 q 561 130 528 76 q 596 251 594 183 l 596 308 q 549 411 585 365 q 462 485 514 457 q 349 513 410 513 q 224 482 281 513 q 135 395 168 451 q 103 264 103 339 q 136 138 103 194 q 225 49 169 82 q 349 15 281 15 m 244 853 l 275 853 l 399 668 l 372 668 l 244 853 z "},"ả":{"ha":753,"x_min":75,"x_max":622,"o":"m 346 -8 q 210 28 271 -8 q 112 125 149 64 q 75 263 75 186 q 113 411 75 350 q 212 504 150 472 q 350 536 274 536 q 499 490 432 536 q 597 369 567 443 l 594 351 l 601 525 l 622 525 l 622 0 l 596 0 l 596 179 l 600 160 q 561 93 586 124 q 503 40 536 63 q 430 4 469 17 q 346 -8 390 -8 m 349 15 q 472 46 417 15 q 561 130 528 76 q 596 251 594 183 l 596 308 q 549 411 585 365 q 462 485 514 457 q 349 513 410 513 q 224 482 281 513 q 135 395 168 451 q 103 264 103 339 q 136 138 103 194 q 225 49 169 82 q 349 15 281 15 m 378 613 q 432 661 410 639 q 454 713 454 683 q 440 759 454 740 q 396 778 426 778 q 353 766 369 778 q 314 725 336 754 l 299 736 q 343 785 319 769 q 397 800 367 800 q 435 792 418 800 q 465 765 453 783 q 476 714 476 746 q 451 651 476 676 q 392 599 426 626 l 378 613 z "},"ȃ":{"ha":753,"x_min":75,"x_max":622,"o":"m 346 -8 q 210 28 271 -8 q 112 125 149 64 q 75 263 75 186 q 113 411 75 350 q 212 504 150 472 q 350 536 274 536 q 499 490 432 536 q 597 369 567 443 l 594 351 l 601 525 l 622 525 l 622 0 l 596 0 l 596 179 l 600 160 q 561 93 586 124 q 503 40 536 63 q 430 4 469 17 q 346 -8 390 -8 m 349 15 q 472 46 417 15 q 561 130 528 76 q 596 251 594 183 l 596 308 q 549 411 585 365 q 462 485 514 457 q 349 513 410 513 q 224 482 281 513 q 135 395 168 451 q 103 264 103 339 q 136 138 103 194 q 225 49 169 82 q 349 15 281 15 m 383 833 q 470 805 432 833 q 532 726 508 776 q 557 614 556 676 l 535 614 q 512 711 532 667 q 458 783 492 756 q 383 810 425 810 q 309 783 342 810 q 258 711 276 756 q 238 614 239 667 l 213 614 q 237 726 214 676 q 298 805 260 776 q 383 833 336 833 z "},"ā":{"ha":753,"x_min":75,"x_max":622,"o":"m 346 -8 q 210 28 271 -8 q 112 125 149 64 q 75 263 75 186 q 113 411 75 350 q 212 504 150 472 q 350 536 274 536 q 499 490 432 536 q 597 369 567 443 l 594 351 l 601 525 l 622 525 l 622 0 l 596 0 l 596 179 l 600 160 q 561 93 586 124 q 503 40 536 63 q 430 4 469 17 q 346 -8 390 -8 m 349 15 q 472 46 417 15 q 561 130 528 76 q 596 251 594 183 l 596 308 q 549 411 585 365 q 462 485 514 457 q 349 513 410 513 q 224 482 281 513 q 135 395 168 451 q 103 264 103 339 q 136 138 103 194 q 225 49 169 82 q 349 15 281 15 m 219 707 l 540 707 l 540 683 l 219 683 l 219 707 z "},"ą":{"ha":754,"x_min":76,"x_max":676,"o":"m 346 -8 q 210 28 271 -8 q 113 125 149 64 q 76 263 76 186 q 113 411 76 350 q 211 504 150 472 q 346 536 272 536 q 452 515 403 536 q 539 456 501 493 q 596 369 576 418 l 601 525 l 624 525 l 624 1 q 531 -73 564 -33 q 497 -153 497 -112 q 520 -214 497 -192 q 572 -236 543 -236 q 622 -218 600 -236 q 658 -174 643 -200 l 676 -186 q 633 -239 661 -217 q 571 -261 606 -261 q 500 -232 531 -261 q 469 -154 469 -203 q 509 -58 469 -103 q 600 14 549 -14 l 604 1 l 596 0 l 596 175 l 597 160 q 540 74 578 111 q 453 14 503 36 q 346 -8 404 -8 m 349 15 q 472 46 417 15 q 562 130 528 76 q 596 251 596 183 l 596 308 q 549 411 585 365 q 462 485 514 457 q 349 513 410 513 q 225 482 281 513 q 136 395 169 451 q 103 264 103 339 q 136 138 103 194 q 225 49 169 82 q 349 15 281 15 z "},"å":{"ha":753,"x_min":75,"x_max":622,"o":"m 346 -8 q 210 28 271 -8 q 112 125 149 64 q 75 263 75 186 q 113 411 75 350 q 212 504 150 472 q 350 536 274 536 q 499 490 432 536 q 597 369 567 443 l 594 351 l 601 525 l 622 525 l 622 0 l 596 0 l 596 179 l 600 160 q 561 93 586 124 q 503 40 536 63 q 430 4 469 17 q 346 -8 390 -8 m 349 15 q 472 46 417 15 q 561 130 528 76 q 596 251 594 183 l 596 308 q 549 411 585 365 q 462 485 514 457 q 349 513 410 513 q 224 482 281 513 q 135 395 168 451 q 103 264 103 339 q 136 138 103 194 q 225 49 169 82 q 349 15 281 15 m 288 699 q 313 763 288 738 q 378 789 339 789 q 442 763 417 789 q 468 699 468 738 q 442 635 468 660 q 378 610 417 610 q 313 635 339 610 q 288 699 288 660 m 310 699 q 330 652 310 672 q 378 632 350 632 q 424 652 404 632 q 444 699 444 672 q 424 747 444 726 q 378 767 404 767 q 330 747 350 767 q 310 699 310 726 z "},"ǻ":{"ha":753,"x_min":75,"x_max":622,"o":"m 346 -8 q 210 28 271 -8 q 112 125 149 64 q 75 263 75 186 q 113 411 75 350 q 212 504 150 472 q 350 536 274 536 q 499 490 432 536 q 597 369 567 443 l 594 351 l 601 525 l 622 525 l 622 0 l 596 0 l 596 179 l 600 160 q 561 93 586 124 q 503 40 536 63 q 430 4 469 17 q 346 -8 390 -8 m 349 15 q 472 46 417 15 q 561 130 528 76 q 596 251 594 183 l 596 308 q 549 411 585 365 q 462 485 514 457 q 349 513 410 513 q 224 482 281 513 q 135 395 168 451 q 103 264 103 339 q 136 138 103 194 q 225 49 169 82 q 349 15 281 15 m 288 699 q 313 763 288 738 q 378 789 339 789 q 442 763 417 789 q 468 699 468 738 q 442 635 468 660 q 378 610 417 610 q 313 635 339 610 q 288 699 288 660 m 310 699 q 330 652 310 672 q 378 632 350 632 q 424 652 404 632 q 444 699 444 672 q 424 747 444 726 q 378 767 404 767 q 330 747 350 767 q 310 699 310 726 m 482 1089 l 354 904 l 328 904 l 451 1089 l 482 1089 z "},"ã":{"ha":753,"x_min":75,"x_max":622,"o":"m 346 -8 q 210 28 271 -8 q 112 125 149 64 q 75 263 75 186 q 113 411 75 350 q 212 504 150 472 q 350 536 274 536 q 499 490 432 536 q 597 369 567 443 l 594 351 l 601 525 l 622 525 l 622 0 l 596 0 l 596 179 l 600 160 q 561 93 586 124 q 503 40 536 63 q 430 4 469 17 q 346 -8 390 -8 m 349 15 q 472 46 417 15 q 561 130 528 76 q 596 251 594 183 l 596 308 q 549 411 585 365 q 462 485 514 457 q 349 513 410 513 q 224 482 281 513 q 135 395 168 451 q 103 264 103 339 q 136 138 103 194 q 225 49 169 82 q 349 15 281 15 m 476 624 q 415 644 439 624 q 371 688 390 664 q 332 726 351 708 q 285 744 313 744 q 250 733 268 744 q 218 694 232 722 q 201 614 204 667 l 179 617 q 197 704 181 671 q 235 753 213 738 q 283 769 258 769 q 346 749 322 769 q 389 704 369 728 q 428 665 407 682 q 478 649 449 649 q 528 674 506 649 q 556 778 551 700 l 578 776 q 563 688 576 722 q 526 639 549 654 q 476 624 504 624 z "},"æ":{"ha":1054,"x_min":75,"x_max":993,"o":"m 281 -15 q 163 8 208 -15 q 97 65 118 31 q 75 138 75 100 q 102 228 75 192 q 172 282 129 264 q 261 300 214 300 q 401 265 335 300 q 504 168 467 229 l 496 151 q 390 242 449 210 q 264 275 331 275 q 192 261 229 275 q 131 218 156 247 q 106 142 106 189 q 147 49 106 88 q 283 11 189 11 q 347 17 310 11 q 422 37 385 22 q 481 78 458 51 l 481 254 l 506 221 l 507 69 q 432 14 478 32 q 344 -10 386 -4 q 281 -15 301 -15 m 482 256 l 482 365 q 462 456 482 425 q 408 497 442 486 q 335 508 375 508 q 230 489 281 508 q 126 415 179 469 l 110 438 q 208 508 151 481 q 336 535 264 535 q 439 515 401 535 q 493 459 476 496 q 510 374 510 422 l 510 339 l 482 256 m 754 -8 q 616 28 678 -8 q 518 126 554 64 q 482 264 482 188 q 518 401 482 339 q 616 501 554 464 q 754 538 678 538 q 902 487 842 538 q 993 360 963 436 l 517 167 l 508 190 l 971 376 l 963 363 q 880 468 933 424 q 754 513 826 513 q 629 479 685 513 q 541 389 574 446 q 508 264 508 332 q 539 143 508 200 q 625 51 569 86 q 754 15 681 15 q 847 33 803 15 q 924 82 890 51 l 942 63 q 856 11 904 31 q 754 -8 808 -8 z "},"ǽ":{"ha":1054,"x_min":75,"x_max":993,"o":"m 281 -15 q 163 8 208 -15 q 97 65 118 31 q 75 138 75 100 q 102 228 75 192 q 172 282 129 264 q 261 300 214 300 q 401 265 335 300 q 504 168 467 229 l 496 151 q 390 242 449 210 q 264 275 331 275 q 192 261 229 275 q 131 218 156 247 q 106 142 106 189 q 147 49 106 88 q 283 11 189 11 q 347 17 310 11 q 422 37 385 22 q 481 78 458 51 l 481 254 l 506 221 l 507 69 q 432 14 478 32 q 344 -10 386 -4 q 281 -15 301 -15 m 482 256 l 482 365 q 462 456 482 425 q 408 497 442 486 q 335 508 375 508 q 230 489 281 508 q 126 415 179 469 l 110 438 q 208 508 151 481 q 336 535 264 535 q 439 515 401 535 q 493 459 476 496 q 510 374 510 422 l 510 339 l 482 256 m 754 -8 q 616 28 678 -8 q 518 126 554 64 q 482 264 482 188 q 518 401 482 339 q 616 501 554 464 q 754 538 678 538 q 902 487 842 538 q 993 360 963 436 l 517 167 l 508 190 l 971 376 l 963 363 q 880 468 933 424 q 754 513 826 513 q 629 479 685 513 q 541 389 574 446 q 508 264 508 332 q 539 143 508 200 q 625 51 569 86 q 754 15 681 15 q 847 33 803 15 q 924 82 890 51 l 942 63 q 856 11 904 31 q 754 -8 808 -8 m 631 825 l 503 640 l 476 640 l 600 825 l 631 825 z "},"b":{"ha":754,"x_min":131,"x_max":679,"o":"m 407 -8 q 251 42 321 -8 q 153 165 182 92 l 158 196 l 158 0 l 131 0 l 131 1044 l 158 1044 l 158 347 l 157 371 q 255 490 186 444 q 408 536 324 536 q 544 500 483 536 q 642 402 606 464 q 679 264 679 340 q 642 114 679 175 q 542 22 604 53 q 407 -8 481 -8 m 406 15 q 538 47 482 15 q 622 135 593 79 q 651 264 651 192 q 621 387 651 331 q 535 478 590 443 q 406 513 481 513 q 289 485 342 513 q 202 412 236 458 q 158 307 168 365 l 158 242 q 192 132 158 183 q 281 48 225 81 q 406 15 338 15 z "},"c":{"ha":583,"x_min":75,"x_max":521,"o":"m 521 51 q 441 8 485 24 q 349 -8 397 -8 q 210 28 272 -8 q 112 125 149 64 q 75 263 75 186 q 112 401 75 339 q 210 499 149 463 q 347 536 272 536 q 442 520 397 536 q 521 475 486 504 l 506 456 q 433 497 474 481 q 349 513 393 513 q 224 478 279 513 q 135 388 168 444 q 103 263 103 332 q 135 138 103 194 q 224 49 168 82 q 349 15 281 15 q 433 30 393 15 q 504 69 472 44 l 521 51 z "},"ć":{"ha":583,"x_min":75,"x_max":521,"o":"m 521 51 q 441 8 485 24 q 349 -8 397 -8 q 210 28 272 -8 q 112 125 149 64 q 75 263 75 186 q 112 401 75 339 q 210 499 149 463 q 347 536 272 536 q 442 520 397 536 q 521 475 486 504 l 506 456 q 433 497 474 481 q 349 513 393 513 q 224 478 279 513 q 135 388 168 444 q 103 263 103 332 q 135 138 103 194 q 224 49 168 82 q 349 15 281 15 q 433 30 393 15 q 504 69 472 44 l 521 51 m 450 825 l 322 640 l 296 640 l 419 825 l 450 825 z "},"č":{"ha":583,"x_min":75,"x_max":533,"o":"m 521 51 q 441 8 485 24 q 349 -8 397 -8 q 210 28 272 -8 q 112 125 149 64 q 75 263 75 186 q 112 401 75 339 q 210 499 149 463 q 347 536 272 536 q 442 520 397 536 q 521 475 486 504 l 506 456 q 433 497 474 481 q 349 513 393 513 q 224 478 279 513 q 135 388 168 444 q 103 263 103 332 q 135 138 103 194 q 224 49 168 82 q 349 15 281 15 q 433 30 393 15 q 504 69 472 44 l 521 51 m 190 806 l 356 615 l 338 614 l 504 806 l 533 806 l 349 596 l 347 596 l 161 806 l 190 806 z "},"ç":{"ha":583,"x_min":75,"x_max":521,"o":"m 521 51 q 441 8 485 24 q 349 -8 397 -8 q 210 28 272 -8 q 112 125 149 64 q 75 263 75 186 q 112 401 75 339 q 210 499 149 463 q 347 536 272 536 q 442 520 397 536 q 521 475 486 504 l 506 456 q 433 497 474 481 q 349 513 393 513 q 224 478 279 513 q 135 388 168 444 q 103 263 103 332 q 135 138 103 194 q 224 49 168 82 q 349 15 281 15 q 433 30 393 15 q 504 69 472 44 l 521 51 m 203 -250 q 246 -276 219 -265 q 310 -286 272 -286 q 400 -265 367 -286 q 433 -201 433 -243 q 406 -138 433 -164 q 319 -112 378 -112 q 265 -119 296 -112 q 218 -133 235 -125 l 199 -115 l 300 8 l 322 -4 l 228 -121 l 207 -115 q 256 -97 222 -106 q 321 -89 290 -89 q 426 -118 389 -89 q 463 -201 463 -147 q 442 -261 463 -237 q 388 -297 422 -285 q 313 -308 354 -308 q 242 -298 274 -308 q 189 -271 210 -287 l 203 -250 z "},"ĉ":{"ha":583,"x_min":75,"x_max":535,"o":"m 521 51 q 441 8 485 24 q 349 -8 397 -8 q 210 28 272 -8 q 112 125 149 64 q 75 263 75 186 q 112 401 75 339 q 210 499 149 463 q 347 536 272 536 q 442 520 397 536 q 521 475 486 504 l 506 456 q 433 497 474 481 q 349 513 393 513 q 224 478 279 513 q 135 388 168 444 q 103 263 103 332 q 135 138 103 194 q 224 49 168 82 q 349 15 281 15 q 433 30 393 15 q 504 69 472 44 l 521 51 m 506 667 l 340 857 l 358 858 l 192 667 l 163 667 l 347 878 l 349 878 l 535 667 l 506 667 z "},"ċ":{"ha":583,"x_min":75,"x_max":521,"o":"m 521 51 q 441 8 485 24 q 349 -8 397 -8 q 210 28 272 -8 q 112 125 149 64 q 75 263 75 186 q 112 401 75 339 q 210 499 149 463 q 347 536 272 536 q 442 520 397 536 q 521 475 486 504 l 506 456 q 433 497 474 481 q 349 513 393 513 q 224 478 279 513 q 135 388 168 444 q 103 263 103 332 q 135 138 103 194 q 224 49 168 82 q 349 15 281 15 q 433 30 393 15 q 504 69 472 44 l 521 51 m 315 692 q 324 713 315 704 q 347 722 333 722 q 369 713 360 722 q 378 692 378 704 q 369 670 378 679 q 347 661 360 661 q 324 670 333 661 q 315 692 315 679 z "},"d":{"ha":754,"x_min":75,"x_max":624,"o":"m 346 -8 q 209 28 271 -8 q 111 126 147 64 q 75 264 75 188 q 112 407 75 346 q 210 502 149 468 q 347 536 272 536 q 501 487 431 536 q 601 364 571 438 l 596 347 l 596 1044 l 624 1044 l 624 0 l 596 0 l 596 181 l 600 158 q 501 38 569 85 q 346 -8 432 -8 m 349 15 q 473 47 417 15 q 563 133 529 79 q 596 256 596 188 l 596 301 q 551 408 586 360 q 463 484 515 456 q 349 513 410 513 q 224 481 279 513 q 135 394 168 450 q 103 264 103 338 q 136 139 103 196 q 225 49 169 82 q 349 15 281 15 z "},"ð":{"ha":699,"x_min":75,"x_max":624,"o":"m 347 -8 q 210 27 272 -8 q 112 124 149 63 q 75 264 75 185 q 112 401 75 339 q 210 501 149 464 q 346 538 271 538 q 429 524 390 538 q 500 488 468 511 q 556 435 532 464 q 594 375 579 406 l 590 350 q 542 522 581 431 q 445 703 503 613 q 320 869 388 793 q 185 994 253 946 l 199 1013 q 352 870 276 956 q 489 683 428 785 q 587 475 550 582 q 624 271 624 368 q 601 163 624 213 q 541 74 579 113 q 453 13 503 35 q 347 -8 403 -8 m 349 15 q 472 49 417 15 q 561 138 528 82 q 594 264 594 194 q 561 388 594 332 q 472 478 528 444 q 349 513 417 513 q 222 476 278 513 q 135 383 167 440 q 103 264 103 326 q 135 138 103 194 q 224 49 168 82 q 349 15 281 15 m 442 953 l 207 799 l 193 815 l 428 968 l 442 953 z "},"ď":{"ha":860,"x_min":75,"x_max":839,"o":"m 346 -8 q 209 28 271 -8 q 111 126 147 64 q 75 264 75 188 q 112 407 75 346 q 210 502 149 468 q 347 536 272 536 q 501 487 431 536 q 601 364 571 438 l 596 347 l 596 1044 l 624 1044 l 624 0 l 596 0 l 596 181 l 600 158 q 501 38 569 85 q 346 -8 432 -8 m 349 15 q 473 47 417 15 q 563 133 529 79 q 596 256 596 188 l 596 301 q 551 408 586 360 q 463 484 515 456 q 349 513 410 513 q 224 481 279 513 q 135 394 168 450 q 103 264 103 338 q 136 139 103 196 q 225 49 169 82 q 349 15 281 15 m 765 799 l 753 824 q 795 893 782 851 q 800 983 808 935 l 832 993 q 833 920 839 956 q 810 853 828 885 q 765 799 793 822 l 765 799 z "},"đ":{"ha":754,"x_min":75,"x_max":768,"o":"m 346 -8 q 209 28 271 -8 q 111 126 147 64 q 75 264 75 188 q 112 407 75 346 q 210 502 149 468 q 347 536 272 536 q 501 487 431 536 q 601 364 571 438 l 596 347 l 596 1044 l 624 1044 l 624 0 l 596 0 l 596 181 l 600 158 q 501 38 569 85 q 346 -8 432 -8 m 349 15 q 473 47 417 15 q 563 133 529 79 q 596 256 596 188 l 596 301 q 551 408 586 360 q 463 484 515 456 q 349 513 410 513 q 224 481 279 513 q 135 394 168 450 q 103 264 103 338 q 136 139 103 196 q 225 49 169 82 q 349 15 281 15 m 446 882 l 768 882 l 768 856 l 446 856 l 446 882 z "},"ǳ":{"ha":1265,"x_min":75,"x_max":1215,"o":"m 346 -8 q 209 28 271 -8 q 111 126 147 64 q 75 264 75 188 q 112 407 75 346 q 210 502 149 468 q 347 536 272 536 q 501 487 431 536 q 601 364 571 438 l 596 347 l 596 1044 l 624 1044 l 624 0 l 596 0 l 596 181 l 600 158 q 501 38 569 85 q 346 -8 432 -8 m 349 15 q 473 47 417 15 q 563 133 529 79 q 596 256 596 188 l 596 301 q 551 408 586 360 q 463 484 515 456 q 349 513 410 513 q 224 481 279 513 q 135 394 168 450 q 103 264 103 338 q 136 139 103 196 q 225 49 169 82 q 349 15 281 15 m 875 500 q 823 512 842 500 q 804 565 804 524 l 804 574 l 828 574 l 828 557 q 839 534 828 543 q 874 525 850 525 l 1215 525 l 857 18 l 850 25 l 1208 25 l 1208 0 l 811 0 l 1172 508 l 1181 500 l 875 500 z "},"ǆ":{"ha":1265,"x_min":75,"x_max":1215,"o":"m 346 -8 q 209 28 271 -8 q 111 126 147 64 q 75 264 75 188 q 112 407 75 346 q 210 502 149 468 q 347 536 272 536 q 501 487 431 536 q 601 364 571 438 l 596 347 l 596 1044 l 624 1044 l 624 0 l 596 0 l 596 181 l 600 158 q 501 38 569 85 q 346 -8 432 -8 m 349 15 q 473 47 417 15 q 563 133 529 79 q 596 256 596 188 l 596 301 q 551 408 586 360 q 463 484 515 456 q 349 513 410 513 q 224 481 279 513 q 135 394 168 450 q 103 264 103 338 q 136 139 103 196 q 225 49 169 82 q 349 15 281 15 m 875 500 q 823 512 842 500 q 804 565 804 524 l 804 574 l 828 574 l 828 557 q 839 534 828 543 q 874 525 850 525 l 1215 525 l 857 18 l 850 25 l 1208 25 l 1208 0 l 811 0 l 1172 508 l 1181 500 l 875 500 m 865 804 l 1031 614 l 1013 613 l 1179 804 l 1208 804 l 1024 594 l 1022 594 l 836 804 l 865 804 z "},"e":{"ha":649,"x_min":75,"x_max":588,"o":"m 349 -8 q 210 28 272 -8 q 112 126 149 64 q 75 264 75 188 q 112 401 75 339 q 210 501 149 464 q 349 538 272 538 q 497 487 436 538 q 588 360 557 436 l 111 167 l 103 190 l 564 376 l 557 363 q 474 468 528 424 q 347 513 421 513 q 224 479 279 513 q 135 389 168 446 q 103 264 103 332 q 133 143 103 200 q 219 51 164 86 q 349 15 274 15 q 441 33 397 15 q 518 82 485 51 l 536 63 q 451 11 499 31 q 349 -8 403 -8 z "},"é":{"ha":649,"x_min":75,"x_max":588,"o":"m 349 -8 q 210 28 272 -8 q 112 126 149 64 q 75 264 75 188 q 112 401 75 339 q 210 501 149 464 q 349 538 272 538 q 497 487 436 538 q 588 360 557 436 l 111 167 l 103 190 l 564 376 l 557 363 q 474 468 528 424 q 347 513 421 513 q 224 479 279 513 q 135 389 168 446 q 103 264 103 332 q 133 143 103 200 q 219 51 164 86 q 349 15 274 15 q 441 33 397 15 q 518 82 485 51 l 536 63 q 451 11 499 31 q 349 -8 403 -8 m 429 826 l 301 642 l 275 642 l 399 826 l 429 826 z "},"ĕ":{"ha":649,"x_min":75,"x_max":588,"o":"m 349 -8 q 210 28 272 -8 q 112 126 149 64 q 75 264 75 188 q 112 401 75 339 q 210 501 149 464 q 349 538 272 538 q 497 487 436 538 q 588 360 557 436 l 111 167 l 103 190 l 564 376 l 557 363 q 474 468 528 424 q 347 513 421 513 q 224 479 279 513 q 135 389 168 446 q 103 264 103 332 q 133 143 103 200 q 219 51 164 86 q 349 15 274 15 q 441 33 397 15 q 518 82 485 51 l 536 63 q 451 11 499 31 q 349 -8 403 -8 m 319 642 q 233 670 271 642 q 171 749 194 699 q 146 861 147 799 l 169 861 q 191 764 171 808 q 244 692 211 719 q 319 665 278 665 q 394 692 361 665 q 445 764 426 719 q 467 861 464 808 l 490 861 q 467 749 490 799 q 405 670 443 699 q 319 642 367 642 z "},"ě":{"ha":649,"x_min":75,"x_max":588,"o":"m 349 -8 q 210 28 272 -8 q 112 126 149 64 q 75 264 75 188 q 112 401 75 339 q 210 501 149 464 q 349 538 272 538 q 497 487 436 538 q 588 360 557 436 l 111 167 l 103 190 l 564 376 l 557 363 q 474 468 528 424 q 347 513 421 513 q 224 479 279 513 q 135 389 168 446 q 103 264 103 332 q 133 143 103 200 q 219 51 164 86 q 349 15 274 15 q 441 33 397 15 q 518 82 485 51 l 536 63 q 451 11 499 31 q 349 -8 403 -8 m 169 806 l 335 615 l 317 614 l 483 806 l 513 806 l 328 596 l 326 596 l 140 806 l 169 806 z "},"ê":{"ha":649,"x_min":75,"x_max":588,"o":"m 349 -8 q 210 28 272 -8 q 112 126 149 64 q 75 264 75 188 q 112 401 75 339 q 210 501 149 464 q 349 538 272 538 q 497 487 436 538 q 588 360 557 436 l 111 167 l 103 190 l 564 376 l 557 363 q 474 468 528 424 q 347 513 421 513 q 224 479 279 513 q 135 389 168 446 q 103 264 103 332 q 133 143 103 200 q 219 51 164 86 q 349 15 274 15 q 441 33 397 15 q 518 82 485 51 l 536 63 q 451 11 499 31 q 349 -8 403 -8 m 485 667 l 319 857 l 338 858 l 171 667 l 142 667 l 326 878 l 328 878 l 514 667 l 485 667 z "},"ế":{"ha":649,"x_min":75,"x_max":614,"o":"m 349 -8 q 210 28 272 -8 q 112 126 149 64 q 75 264 75 188 q 112 401 75 339 q 210 501 149 464 q 349 538 272 538 q 497 487 436 538 q 588 360 557 436 l 111 167 l 103 190 l 564 376 l 557 363 q 474 468 528 424 q 347 513 421 513 q 224 479 279 513 q 135 389 168 446 q 103 264 103 332 q 133 143 103 200 q 219 51 164 86 q 349 15 274 15 q 441 33 397 15 q 518 82 485 51 l 536 63 q 451 11 499 31 q 349 -8 403 -8 m 478 649 l 313 839 l 331 840 l 164 649 l 135 649 l 319 860 l 321 860 l 507 649 l 478 649 m 614 951 l 486 767 l 460 767 l 583 951 l 614 951 z "},"ệ":{"ha":649,"x_min":75,"x_max":588,"o":"m 349 -8 q 210 28 272 -8 q 112 126 149 64 q 75 264 75 188 q 112 401 75 339 q 210 501 149 464 q 349 538 272 538 q 497 487 436 538 q 588 360 557 436 l 111 167 l 103 190 l 564 376 l 557 363 q 474 468 528 424 q 347 513 421 513 q 224 479 279 513 q 135 389 168 446 q 103 264 103 332 q 133 143 103 200 q 219 51 164 86 q 349 15 274 15 q 441 33 397 15 q 518 82 485 51 l 536 63 q 451 11 499 31 q 349 -8 403 -8 m 293 -139 q 303 -117 293 -126 q 325 -108 313 -108 q 347 -117 338 -108 q 356 -139 356 -126 q 347 -162 356 -153 q 325 -171 338 -171 q 303 -161 313 -171 q 293 -139 293 -151 m 485 667 l 319 857 l 338 858 l 171 667 l 142 667 l 326 878 l 328 878 l 514 667 l 485 667 z "},"ề":{"ha":649,"x_min":11,"x_max":588,"o":"m 349 -8 q 210 28 272 -8 q 112 126 149 64 q 75 264 75 188 q 112 401 75 339 q 210 501 149 464 q 349 538 272 538 q 497 487 436 538 q 588 360 557 436 l 111 167 l 103 190 l 564 376 l 557 363 q 474 468 528 424 q 347 513 421 513 q 224 479 279 513 q 135 389 168 446 q 103 264 103 332 q 133 143 103 200 q 219 51 164 86 q 349 15 274 15 q 441 33 397 15 q 518 82 485 51 l 536 63 q 451 11 499 31 q 349 -8 403 -8 m 472 639 l 307 829 l 325 831 l 158 639 l 129 639 l 314 850 l 315 850 l 501 639 l 472 639 m 11 964 l 42 964 l 165 779 l 139 779 l 11 964 z "},"ể":{"ha":649,"x_min":75,"x_max":588,"o":"m 349 -8 q 210 28 272 -8 q 112 126 149 64 q 75 264 75 188 q 112 401 75 339 q 210 501 149 464 q 349 538 272 538 q 497 487 436 538 q 588 360 557 436 l 111 167 l 103 190 l 564 376 l 557 363 q 474 468 528 424 q 347 513 421 513 q 224 479 279 513 q 135 389 168 446 q 103 264 103 332 q 133 143 103 200 q 219 51 164 86 q 349 15 274 15 q 441 33 397 15 q 518 82 485 51 l 536 63 q 451 11 499 31 q 349 -8 403 -8 m 474 650 l 308 840 l 326 842 l 160 650 l 131 650 l 315 861 l 317 861 l 503 650 l 474 650 m 465 774 q 519 822 497 800 q 542 874 542 844 q 528 920 542 901 q 483 939 514 939 q 440 927 457 939 q 401 886 424 915 l 386 897 q 431 946 407 931 q 485 961 454 961 q 523 953 506 961 q 552 926 540 944 q 564 875 564 907 q 539 813 564 838 q 479 760 514 788 l 465 774 z "},"ễ":{"ha":649,"x_min":75,"x_max":588,"o":"m 349 -8 q 210 28 272 -8 q 112 126 149 64 q 75 264 75 188 q 112 401 75 339 q 210 501 149 464 q 349 538 272 538 q 497 487 436 538 q 588 360 557 436 l 111 167 l 103 190 l 564 376 l 557 363 q 474 468 528 424 q 347 513 421 513 q 224 479 279 513 q 135 389 168 446 q 103 264 103 332 q 133 143 103 200 q 219 51 164 86 q 349 15 274 15 q 441 33 397 15 q 518 82 485 51 l 536 63 q 451 11 499 31 q 349 -8 403 -8 m 481 624 l 315 814 l 333 815 l 167 624 l 138 624 l 322 835 l 324 835 l 510 624 l 481 624 m 419 860 q 358 880 382 860 q 314 924 333 900 q 275 963 294 944 q 228 981 256 981 q 193 969 211 981 q 161 931 175 958 q 144 850 147 903 l 122 853 q 140 940 124 907 q 178 990 156 974 q 226 1006 201 1006 q 289 985 265 1006 q 332 940 313 964 q 371 901 350 918 q 421 885 392 885 q 472 910 449 885 q 499 1014 494 936 l 521 1013 q 506 924 519 958 q 469 875 492 890 q 419 860 447 860 z "},"ȅ":{"ha":649,"x_min":75,"x_max":588,"o":"m 349 -8 q 210 28 272 -8 q 112 126 149 64 q 75 264 75 188 q 112 401 75 339 q 210 501 149 464 q 349 538 272 538 q 497 487 436 538 q 588 360 557 436 l 111 167 l 103 190 l 564 376 l 557 363 q 474 468 528 424 q 347 513 421 513 q 224 479 279 513 q 135 389 168 446 q 103 264 103 332 q 133 143 103 200 q 219 51 164 86 q 349 15 274 15 q 441 33 397 15 q 518 82 485 51 l 536 63 q 451 11 499 31 q 349 -8 403 -8 m 125 853 l 156 853 l 279 668 l 253 668 l 125 853 m 260 853 l 290 853 l 414 668 l 388 668 l 260 853 z "},"ë":{"ha":649,"x_min":75,"x_max":588,"o":"m 349 -8 q 210 28 272 -8 q 112 126 149 64 q 75 264 75 188 q 112 401 75 339 q 210 501 149 464 q 349 538 272 538 q 497 487 436 538 q 588 360 557 436 l 111 167 l 103 190 l 564 376 l 557 363 q 474 468 528 424 q 347 513 421 513 q 224 479 279 513 q 135 389 168 446 q 103 264 103 332 q 133 143 103 200 q 219 51 164 86 q 349 15 274 15 q 441 33 397 15 q 518 82 485 51 l 536 63 q 451 11 499 31 q 349 -8 403 -8 m 179 699 q 188 720 179 711 q 210 729 197 729 q 231 720 222 729 q 240 699 240 711 q 231 677 240 686 q 210 668 222 668 q 188 677 197 668 q 179 699 179 686 l 179 699 m 410 699 q 419 720 410 711 q 442 729 428 729 q 463 720 453 729 q 472 699 472 711 q 463 677 472 686 q 442 668 453 668 q 419 677 428 668 q 410 699 410 686 l 410 699 z "},"ė":{"ha":649,"x_min":75,"x_max":588,"o":"m 349 -8 q 210 28 272 -8 q 112 126 149 64 q 75 264 75 188 q 112 401 75 339 q 210 501 149 464 q 349 538 272 538 q 497 487 436 538 q 588 360 557 436 l 111 167 l 103 190 l 564 376 l 557 363 q 474 468 528 424 q 347 513 421 513 q 224 479 279 513 q 135 389 168 446 q 103 264 103 332 q 133 143 103 200 q 219 51 164 86 q 349 15 274 15 q 441 33 397 15 q 518 82 485 51 l 536 63 q 451 11 499 31 q 349 -8 403 -8 m 294 692 q 303 713 294 704 q 326 722 313 722 q 348 713 339 722 q 357 692 357 704 q 348 670 357 679 q 326 661 339 661 q 303 670 313 661 q 294 692 294 679 z "},"ẹ":{"ha":649,"x_min":75,"x_max":588,"o":"m 349 -8 q 210 28 272 -8 q 112 126 149 64 q 75 264 75 188 q 112 401 75 339 q 210 501 149 464 q 349 538 272 538 q 497 487 436 538 q 588 360 557 436 l 111 167 l 103 190 l 564 376 l 557 363 q 474 468 528 424 q 347 513 421 513 q 224 479 279 513 q 135 389 168 446 q 103 264 103 332 q 133 143 103 200 q 219 51 164 86 q 349 15 274 15 q 441 33 397 15 q 518 82 485 51 l 536 63 q 451 11 499 31 q 349 -8 403 -8 m 293 -139 q 303 -117 293 -126 q 325 -108 313 -108 q 347 -117 338 -108 q 356 -139 356 -126 q 347 -162 356 -153 q 325 -171 338 -171 q 303 -161 313 -171 q 293 -139 293 -151 z "},"è":{"ha":649,"x_min":75,"x_max":588,"o":"m 349 -8 q 210 28 272 -8 q 112 126 149 64 q 75 264 75 188 q 112 401 75 339 q 210 501 149 464 q 349 538 272 538 q 497 487 436 538 q 588 360 557 436 l 111 167 l 103 190 l 564 376 l 557 363 q 474 468 528 424 q 347 513 421 513 q 224 479 279 513 q 135 389 168 446 q 103 264 103 332 q 133 143 103 200 q 219 51 164 86 q 349 15 274 15 q 441 33 397 15 q 518 82 485 51 l 536 63 q 451 11 499 31 q 349 -8 403 -8 m 192 853 l 222 853 l 346 668 l 319 668 l 192 853 z "},"ẻ":{"ha":649,"x_min":75,"x_max":588,"o":"m 349 -8 q 210 28 272 -8 q 112 126 149 64 q 75 264 75 188 q 112 401 75 339 q 210 501 149 464 q 349 538 272 538 q 497 487 436 538 q 588 360 557 436 l 111 167 l 103 190 l 564 376 l 557 363 q 474 468 528 424 q 347 513 421 513 q 224 479 279 513 q 135 389 168 446 q 103 264 103 332 q 133 143 103 200 q 219 51 164 86 q 349 15 274 15 q 441 33 397 15 q 518 82 485 51 l 536 63 q 451 11 499 31 q 349 -8 403 -8 m 325 613 q 379 661 357 639 q 401 713 401 683 q 388 759 401 740 q 343 778 374 778 q 300 766 317 778 q 261 725 283 754 l 246 736 q 290 785 267 769 q 344 800 314 800 q 383 792 365 800 q 412 765 400 783 q 424 714 424 746 q 399 651 424 676 q 339 599 374 626 l 325 613 z "},"ȇ":{"ha":649,"x_min":75,"x_max":588,"o":"m 349 -8 q 210 28 272 -8 q 112 126 149 64 q 75 264 75 188 q 112 401 75 339 q 210 501 149 464 q 349 538 272 538 q 497 487 436 538 q 588 360 557 436 l 111 167 l 103 190 l 564 376 l 557 363 q 474 468 528 424 q 347 513 421 513 q 224 479 279 513 q 135 389 168 446 q 103 264 103 332 q 133 143 103 200 q 219 51 164 86 q 349 15 274 15 q 441 33 397 15 q 518 82 485 51 l 536 63 q 451 11 499 31 q 349 -8 403 -8 m 331 833 q 417 805 379 833 q 479 726 456 776 q 504 614 503 676 l 482 614 q 459 711 479 667 q 406 783 439 756 q 331 810 372 810 q 256 783 289 810 q 205 711 224 756 q 185 614 186 667 l 160 614 q 184 726 161 676 q 245 805 207 776 q 331 833 283 833 z "},"ē":{"ha":649,"x_min":75,"x_max":588,"o":"m 349 -8 q 210 28 272 -8 q 112 126 149 64 q 75 264 75 188 q 112 401 75 339 q 210 501 149 464 q 349 538 272 538 q 497 487 436 538 q 588 360 557 436 l 111 167 l 103 190 l 564 376 l 557 363 q 474 468 528 424 q 347 513 421 513 q 224 479 279 513 q 135 389 168 446 q 103 264 103 332 q 133 143 103 200 q 219 51 164 86 q 349 15 274 15 q 441 33 397 15 q 518 82 485 51 l 536 63 q 451 11 499 31 q 349 -8 403 -8 m 167 707 l 488 707 l 488 683 l 167 683 l 167 707 z "},"ę":{"ha":649,"x_min":76,"x_max":588,"o":"m 471 -261 q 392 -228 426 -261 q 357 -140 357 -194 q 376 -60 357 -100 q 433 13 396 -21 l 449 11 q 421 1 438 6 q 385 -6 404 -4 q 349 -8 367 -8 q 210 28 272 -8 q 113 126 149 64 q 76 264 76 188 q 113 401 76 339 q 210 501 149 464 q 349 538 272 538 q 497 487 436 538 q 588 360 557 436 l 111 167 l 104 190 l 565 375 l 557 363 q 471 471 524 429 q 349 513 418 513 q 224 479 279 513 q 135 389 168 446 q 103 264 103 332 q 135 142 103 199 q 222 50 167 85 q 349 15 278 15 q 441 33 397 15 q 518 82 485 51 l 536 63 q 485 23 511 42 q 435 -17 458 4 q 399 -68 413 -39 q 385 -139 385 -97 q 412 -210 385 -183 q 474 -236 439 -236 q 511 -226 493 -236 q 543 -197 529 -215 l 558 -215 q 519 -248 542 -235 q 471 -261 497 -261 z "},"ẽ":{"ha":649,"x_min":75,"x_max":588,"o":"m 349 -8 q 210 28 272 -8 q 112 126 149 64 q 75 264 75 188 q 112 401 75 339 q 210 501 149 464 q 349 538 272 538 q 497 487 436 538 q 588 360 557 436 l 111 167 l 103 190 l 564 376 l 557 363 q 474 468 528 424 q 347 513 421 513 q 224 479 279 513 q 135 389 168 446 q 103 264 103 332 q 133 143 103 200 q 219 51 164 86 q 349 15 274 15 q 441 33 397 15 q 518 82 485 51 l 536 63 q 451 11 499 31 q 349 -8 403 -8 m 424 624 q 362 644 386 624 q 318 688 338 664 q 279 726 299 708 q 232 744 260 744 q 197 733 215 744 q 165 694 179 722 q 149 614 151 667 l 126 617 q 144 704 128 671 q 183 753 160 738 q 231 769 206 769 q 293 749 269 769 q 336 704 317 728 q 375 665 354 682 q 425 649 396 649 q 476 674 453 649 q 503 778 499 700 l 525 776 q 510 688 524 722 q 474 639 496 654 q 424 624 451 624 z "},"ə":{"ha":649,"x_min":61,"x_max":574,"o":"m 300 533 q 439 497 378 533 q 537 399 500 461 q 574 263 574 338 q 537 124 574 186 q 438 24 500 61 q 300 -12 376 -12 q 152 38 213 -12 q 61 167 92 89 l 538 358 l 546 335 l 85 149 l 93 163 q 174 57 121 101 q 301 13 228 13 q 425 46 369 13 q 513 136 481 79 q 546 261 546 193 q 515 382 546 325 q 430 474 485 439 q 300 510 375 510 q 208 492 251 510 q 131 444 164 474 l 114 463 q 198 514 150 494 q 300 533 246 533 z "},"f":{"ha":404,"x_min":69,"x_max":368,"o":"m 160 0 l 160 496 l 69 496 l 69 521 l 160 521 l 160 813 q 198 999 160 947 q 313 1051 236 1051 q 340 1049 326 1051 q 368 1040 354 1046 l 356 1021 q 338 1028 349 1025 q 314 1031 328 1031 q 218 984 249 1031 q 188 818 188 938 l 188 521 l 368 521 l 368 496 l 188 496 l 188 0 l 160 0 z "},"g":{"ha":754,"x_min":75,"x_max":624,"o":"m 350 -253 q 278 -244 315 -253 q 201 -213 242 -236 q 114 -144 160 -190 l 129 -126 q 251 -210 197 -193 q 349 -228 306 -228 q 497 -198 444 -228 q 572 -119 550 -168 q 596 -10 593 -69 l 597 181 l 606 172 q 505 42 576 92 q 346 -8 433 -8 q 210 28 271 -8 q 112 126 149 64 q 75 264 75 188 q 113 406 75 344 q 212 502 150 468 q 349 536 274 536 q 500 490 432 536 q 599 371 568 443 l 594 356 l 603 525 l 624 525 l 624 -11 q 600 -127 624 -72 q 517 -217 576 -182 q 350 -253 457 -253 m 103 264 q 135 138 103 194 q 224 49 168 82 q 349 15 281 15 q 473 48 417 15 q 563 133 529 81 q 597 247 596 186 l 597 307 q 551 412 586 365 q 463 485 515 458 q 349 513 411 513 q 224 481 281 513 q 135 394 168 450 q 103 264 103 338 z "},"ğ":{"ha":754,"x_min":75,"x_max":624,"o":"m 350 -253 q 278 -244 315 -253 q 201 -213 242 -236 q 114 -144 160 -190 l 129 -126 q 251 -210 197 -193 q 349 -228 306 -228 q 497 -198 444 -228 q 572 -119 550 -168 q 596 -10 593 -69 l 597 181 l 606 172 q 505 42 576 92 q 346 -8 433 -8 q 210 28 271 -8 q 112 126 149 64 q 75 264 75 188 q 113 406 75 344 q 212 502 150 468 q 349 536 274 536 q 500 490 432 536 q 599 371 568 443 l 594 356 l 603 525 l 624 525 l 624 -11 q 600 -127 624 -72 q 517 -217 576 -182 q 350 -253 457 -253 m 103 264 q 135 138 103 194 q 224 49 168 82 q 349 15 281 15 q 473 48 417 15 q 563 133 529 81 q 597 247 596 186 l 597 307 q 551 412 586 365 q 463 485 515 458 q 349 513 411 513 q 224 481 281 513 q 135 394 168 450 q 103 264 103 338 m 371 642 q 284 670 322 642 q 222 749 246 699 q 197 861 199 799 l 221 861 q 242 764 222 808 q 296 692 263 719 q 371 665 329 665 q 445 692 413 665 q 497 764 478 719 q 518 861 515 808 l 542 861 q 518 749 542 799 q 456 670 494 699 q 371 642 418 642 z "},"ǧ":{"ha":754,"x_min":75,"x_max":624,"o":"m 350 -253 q 278 -244 315 -253 q 201 -213 242 -236 q 114 -144 160 -190 l 129 -126 q 251 -210 197 -193 q 349 -228 306 -228 q 497 -198 444 -228 q 572 -119 550 -168 q 596 -10 593 -69 l 597 181 l 606 172 q 505 42 576 92 q 346 -8 433 -8 q 210 28 271 -8 q 112 126 149 64 q 75 264 75 188 q 113 406 75 344 q 212 502 150 468 q 349 536 274 536 q 500 490 432 536 q 599 371 568 443 l 594 356 l 603 525 l 624 525 l 624 -11 q 600 -127 624 -72 q 517 -217 576 -182 q 350 -253 457 -253 m 103 264 q 135 138 103 194 q 224 49 168 82 q 349 15 281 15 q 473 48 417 15 q 563 133 529 81 q 597 247 596 186 l 597 307 q 551 412 586 365 q 463 485 515 458 q 349 513 411 513 q 224 481 281 513 q 135 394 168 450 q 103 264 103 338 m 222 806 l 388 615 l 369 614 l 536 806 l 565 806 l 381 596 l 379 596 l 193 806 l 222 806 z "},"ĝ":{"ha":754,"x_min":75,"x_max":624,"o":"m 350 -253 q 278 -244 315 -253 q 201 -213 242 -236 q 114 -144 160 -190 l 129 -126 q 251 -210 197 -193 q 349 -228 306 -228 q 497 -198 444 -228 q 572 -119 550 -168 q 596 -10 593 -69 l 597 181 l 606 172 q 505 42 576 92 q 346 -8 433 -8 q 210 28 271 -8 q 112 126 149 64 q 75 264 75 188 q 113 406 75 344 q 212 502 150 468 q 349 536 274 536 q 500 490 432 536 q 599 371 568 443 l 594 356 l 603 525 l 624 525 l 624 -11 q 600 -127 624 -72 q 517 -217 576 -182 q 350 -253 457 -253 m 103 264 q 135 138 103 194 q 224 49 168 82 q 349 15 281 15 q 473 48 417 15 q 563 133 529 81 q 597 247 596 186 l 597 307 q 551 412 586 365 q 463 485 515 458 q 349 513 411 513 q 224 481 281 513 q 135 394 168 450 q 103 264 103 338 m 538 667 l 372 857 l 390 858 l 224 667 l 194 667 l 379 878 l 381 878 l 567 667 l 538 667 z "},"ģ":{"ha":721,"x_min":75,"x_max":624,"o":"m 329 704 q 389 847 360 776 q 449 990 418 918 l 474 990 q 421 847 447 918 q 367 704 394 776 l 329 704 m 350 -253 q 278 -244 315 -253 q 201 -213 242 -236 q 114 -144 160 -190 l 129 -126 q 251 -210 197 -193 q 349 -228 306 -228 q 497 -198 444 -228 q 572 -119 550 -168 q 596 -10 593 -69 l 597 181 l 606 172 q 505 42 576 92 q 346 -8 433 -8 q 210 28 271 -8 q 112 126 149 64 q 75 264 75 188 q 113 406 75 344 q 212 502 150 468 q 349 536 274 536 q 500 490 432 536 q 599 371 568 443 l 594 356 l 603 525 l 624 525 l 624 -11 q 600 -127 624 -72 q 517 -217 576 -182 q 350 -253 457 -253 m 103 264 q 135 138 103 194 q 224 49 168 82 q 349 15 281 15 q 473 48 417 15 q 563 133 529 81 q 597 247 596 186 l 597 307 q 551 412 586 365 q 463 485 515 458 q 349 513 411 513 q 224 481 281 513 q 135 394 168 450 q 103 264 103 338 z "},"ġ":{"ha":754,"x_min":75,"x_max":624,"o":"m 350 -253 q 278 -244 315 -253 q 201 -213 242 -236 q 114 -144 160 -190 l 129 -126 q 251 -210 197 -193 q 349 -228 306 -228 q 497 -198 444 -228 q 572 -119 550 -168 q 596 -10 593 -69 l 597 181 l 606 172 q 505 42 576 92 q 346 -8 433 -8 q 210 28 271 -8 q 112 126 149 64 q 75 264 75 188 q 113 406 75 344 q 212 502 150 468 q 349 536 274 536 q 500 490 432 536 q 599 371 568 443 l 594 356 l 603 525 l 624 525 l 624 -11 q 600 -127 624 -72 q 517 -217 576 -182 q 350 -253 457 -253 m 103 264 q 135 138 103 194 q 224 49 168 82 q 349 15 281 15 q 473 48 417 15 q 563 133 529 81 q 597 247 596 186 l 597 307 q 551 412 586 365 q 463 485 515 458 q 349 513 411 513 q 224 481 281 513 q 135 394 168 450 q 103 264 103 338 m 347 692 q 356 713 347 704 q 379 722 365 722 q 401 713 392 722 q 410 692 410 704 q 401 670 410 679 q 379 661 392 661 q 356 670 365 661 q 347 692 347 679 z "},"h":{"ha":676,"x_min":131,"x_max":546,"o":"m 131 0 l 131 1044 l 157 1044 l 157 378 l 156 396 q 242 494 181 454 q 383 535 304 535 q 501 491 457 535 q 546 379 544 447 l 546 0 l 518 0 l 518 376 q 481 470 517 432 q 381 511 446 508 q 272 484 322 511 q 190 410 221 457 q 158 304 158 363 l 158 0 l 131 0 z "},"ħ":{"ha":676,"x_min":-18,"x_max":546,"o":"m 131 0 l 131 1044 l 157 1044 l 157 378 l 156 396 q 242 494 181 454 q 383 535 304 535 q 501 491 457 535 q 546 379 544 447 l 546 0 l 518 0 l 518 376 q 481 470 517 432 q 381 511 446 508 q 272 484 322 511 q 190 410 221 457 q 158 304 158 363 l 158 0 l 131 0 m -18 796 l 304 796 l 304 769 l -18 769 l -18 796 z "},"ĥ":{"ha":676,"x_min":-50,"x_max":546,"o":"m 131 0 l 131 1044 l 157 1044 l 157 378 l 156 396 q 242 494 181 454 q 383 535 304 535 q 501 491 457 535 q 546 379 544 447 l 546 0 l 518 0 l 518 376 q 481 470 517 432 q 381 511 446 508 q 272 484 322 511 q 190 410 221 457 q 158 304 158 363 l 158 0 l 131 0 m 293 1114 l 128 1304 l 146 1306 l -21 1114 l -50 1114 l 135 1325 l 136 1325 l 322 1114 l 293 1114 z "},"i":{"ha":289,"x_min":114,"x_max":176,"o":"m 131 525 l 158 525 l 158 0 l 131 0 l 131 525 m 114 690 q 123 712 114 703 q 146 721 132 721 q 167 712 158 721 q 176 690 176 703 q 167 669 176 678 q 146 660 158 660 q 123 669 132 660 q 114 690 114 678 z "},"ı":{"ha":289,"x_min":131,"x_max":158,"o":"m 131 525 l 158 525 l 158 0 l 131 0 l 131 525 z "},"í":{"ha":289,"x_min":93,"x_max":247,"o":"m 131 525 l 158 525 l 158 0 l 131 0 l 131 525 m 247 825 l 119 640 l 93 640 l 217 825 l 247 825 z "},"ĭ":{"ha":289,"x_min":-36,"x_max":308,"o":"m 131 525 l 158 525 l 158 0 l 131 0 l 131 525 m 138 640 q 51 669 89 640 q -11 747 13 697 q -36 860 -35 797 l -12 860 q 9 763 -11 807 q 63 691 29 718 q 138 664 96 664 q 212 691 179 664 q 263 763 244 718 q 285 860 282 807 l 308 860 q 285 747 308 797 q 223 669 261 697 q 138 640 185 640 z "},"î":{"ha":289,"x_min":-40,"x_max":332,"o":"m 131 525 l 158 525 l 158 0 l 131 0 l 131 525 m 303 665 l 138 856 l 156 857 l -11 665 l -40 665 l 144 876 l 146 876 l 332 665 l 303 665 z "},"ȉ":{"ha":289,"x_min":-56,"x_max":233,"o":"m 131 525 l 158 525 l 158 0 l 131 0 l 131 525 m -56 851 l -25 851 l 99 667 l 72 667 l -56 851 m 79 851 l 110 851 l 233 667 l 207 667 l 79 851 z "},"ï":{"ha":289,"x_min":-3,"x_max":290,"o":"m 131 525 l 158 525 l 158 0 l 131 0 l 131 525 m -3 697 q 6 719 -3 710 q 28 728 15 728 q 49 719 40 728 q 58 697 58 710 q 49 676 58 685 q 28 667 40 667 q 6 676 15 667 q -3 697 -3 685 l -3 697 m 228 697 q 237 719 228 710 q 260 728 246 728 q 281 719 271 728 q 290 697 290 710 q 281 676 290 685 q 260 667 271 667 q 237 676 246 667 q 228 697 228 685 l 228 697 z "},"ị":{"ha":289,"x_min":113,"x_max":176,"o":"m 131 525 l 158 525 l 158 0 l 131 0 l 131 525 m 114 690 q 123 712 114 703 q 146 721 132 721 q 167 712 158 721 q 176 690 176 703 q 167 669 176 678 q 146 660 158 660 q 123 669 132 660 q 114 690 114 678 m 113 -139 q 122 -117 113 -126 q 144 -108 132 -108 q 166 -117 157 -108 q 175 -139 175 -126 q 166 -162 175 -153 q 144 -171 157 -171 q 122 -161 132 -171 q 113 -139 113 -151 z "},"ì":{"ha":289,"x_min":10,"x_max":164,"o":"m 131 525 l 158 525 l 158 0 l 131 0 l 131 525 m 10 851 l 40 851 l 164 667 l 138 667 l 10 851 z "},"ỉ":{"ha":289,"x_min":64,"x_max":242,"o":"m 131 525 l 158 525 l 158 0 l 131 0 l 131 525 m 143 611 q 197 660 175 638 q 219 711 219 682 q 206 758 219 739 q 161 776 192 776 q 118 765 135 776 q 79 724 101 753 l 64 735 q 108 783 85 768 q 163 799 132 799 q 201 790 183 799 q 230 763 218 782 q 242 713 242 744 q 217 650 242 675 q 157 597 192 625 l 143 611 z "},"ȋ":{"ha":289,"x_min":-22,"x_max":322,"o":"m 131 525 l 158 525 l 158 0 l 131 0 l 131 525 m 149 832 q 235 803 197 832 q 297 725 274 775 q 322 613 321 675 l 300 613 q 277 710 297 665 q 224 781 257 754 q 149 808 190 808 q 74 781 107 808 q 23 710 42 754 q 3 613 4 665 l -22 613 q 2 725 -21 675 q 63 803 25 775 q 149 832 101 832 z "},"ĳ":{"ha":589,"x_min":114,"x_max":479,"o":"m 131 525 l 158 525 l 158 0 l 131 0 l 131 525 m 114 690 q 123 712 114 703 q 146 721 132 721 q 167 712 158 721 q 176 690 176 703 q 167 669 176 678 q 146 660 158 660 q 123 669 132 660 q 114 690 114 678 m 378 -251 l 357 -235 q 413 -140 392 -196 q 433 -14 433 -85 l 433 525 l 461 525 l 461 -10 q 439 -151 461 -90 q 378 -251 417 -211 m 417 690 q 426 712 417 703 q 449 721 435 721 q 470 712 461 721 q 479 690 479 703 q 470 669 479 678 q 449 660 461 660 q 426 669 435 660 q 417 690 417 678 z "},"ī":{"ha":289,"x_min":-15,"x_max":306,"o":"m 131 525 l 158 525 l 158 0 l 131 0 l 131 525 m -15 706 l 306 706 l 306 682 l -15 682 l -15 706 z "},"į":{"ha":289,"x_min":4,"x_max":210,"o":"m 104 -261 q 35 -232 65 -261 q 4 -154 4 -203 q 45 -56 4 -101 q 140 17 86 -11 l 151 8 l 158 0 q 63 -74 96 -35 q 31 -153 31 -112 q 54 -214 31 -192 q 107 -236 78 -236 q 155 -218 133 -236 q 192 -174 176 -200 l 210 -186 q 167 -239 194 -217 q 104 -261 139 -261 m 131 525 l 158 525 l 158 0 l 131 0 l 131 525 m 113 647 q 122 670 113 661 q 144 679 132 679 q 166 670 157 679 q 175 647 175 661 q 166 626 175 635 q 144 617 157 617 q 122 626 132 617 q 113 647 113 636 z "},"ĩ":{"ha":289,"x_min":-54,"x_max":344,"o":"m 131 525 l 158 525 l 158 0 l 131 0 l 131 525 m 243 622 q 181 642 206 622 q 138 686 157 663 q 99 725 118 707 q 51 743 79 743 q 17 732 35 743 q -15 693 -1 721 q -32 613 -29 665 l -54 615 q -37 703 -53 669 q 2 752 -21 736 q 50 768 25 768 q 113 747 89 768 q 156 703 136 726 q 194 664 174 681 q 244 647 215 647 q 295 673 272 647 q 322 776 318 699 l 344 775 q 329 687 343 721 q 293 638 315 653 q 243 622 271 622 z "},"j":{"ha":300,"x_min":68,"x_max":190,"o":"m 89 -251 l 68 -235 q 124 -140 103 -196 q 144 -14 144 -85 l 144 525 l 172 525 l 172 -10 q 150 -151 172 -90 q 89 -251 128 -211 m 128 690 q 137 712 128 703 q 160 721 146 721 q 181 712 172 721 q 190 690 190 703 q 181 669 190 678 q 160 660 172 660 q 137 669 146 660 q 128 690 128 678 z "},"ȷ":{"ha":300,"x_min":68,"x_max":172,"o":"m 89 -251 l 68 -235 q 124 -140 103 -196 q 144 -14 144 -85 l 144 525 l 172 525 l 172 -10 q 150 -151 172 -90 q 89 -251 128 -211 z "},"ĵ":{"ha":300,"x_min":-26,"x_max":346,"o":"m 89 -251 l 68 -235 q 124 -140 103 -196 q 144 -14 144 -85 l 144 525 l 172 525 l 172 -10 q 150 -151 172 -90 q 89 -251 128 -211 m 317 665 l 151 856 l 169 857 l 3 665 l -26 665 l 158 876 l 160 876 l 346 665 l 317 665 z "},"k":{"ha":588,"x_min":131,"x_max":519,"o":"m 131 0 l 131 1044 l 158 1044 l 158 0 l 131 0 m 274 336 l 519 0 l 488 0 l 251 321 l 274 336 m 146 206 l 144 236 l 465 535 l 483 519 l 146 206 z "},"ķ":{"ha":588,"x_min":131,"x_max":519,"o":"m 131 0 l 131 1044 l 158 1044 l 158 0 l 131 0 m 274 336 l 519 0 l 488 0 l 251 321 l 274 336 m 146 206 l 144 236 l 465 535 l 483 519 l 146 206 m 231 -254 l 217 -242 q 271 -168 256 -214 q 279 -62 286 -122 l 310 -62 q 308 -135 313 -99 q 285 -203 304 -172 q 231 -254 267 -235 z "},"ĸ":{"ha":583,"x_min":131,"x_max":507,"o":"m 150 196 l 146 222 l 460 525 l 496 525 l 150 196 m 158 0 l 131 0 l 131 525 l 158 525 l 158 0 m 228 293 l 507 0 l 471 0 l 210 275 l 228 293 z "},"l":{"ha":289,"x_min":131,"x_max":158,"o":"m 131 1044 l 158 1044 l 158 0 l 131 0 l 131 1044 z "},"ĺ":{"ha":289,"x_min":131,"x_max":297,"o":"m 131 1044 l 158 1044 l 158 0 l 131 0 l 131 1044 m 297 1283 l 169 1099 l 143 1099 l 267 1283 l 297 1283 z "},"ľ":{"ha":486,"x_min":131,"x_max":418,"o":"m 131 1044 l 158 1044 l 158 0 l 131 0 l 131 1044 m 344 799 l 332 824 q 374 893 361 851 q 379 983 388 935 l 411 993 q 413 920 418 956 q 390 853 407 885 q 344 799 372 822 l 344 799 z "},"ļ":{"ha":289,"x_min":67,"x_max":163,"o":"m 131 1044 l 158 1044 l 158 0 l 131 0 l 131 1044 m 81 -254 l 67 -242 q 121 -168 106 -214 q 129 -62 136 -122 l 160 -62 q 158 -135 163 -99 q 135 -203 154 -172 q 81 -254 117 -235 z "},"ŀ":{"ha":360,"x_min":131,"x_max":364,"o":"m 131 1044 l 158 1044 l 158 0 l 131 0 l 131 1044 m 301 392 q 311 415 301 406 q 333 424 321 424 q 355 415 346 424 q 364 392 364 406 q 355 370 364 379 q 333 361 346 361 q 311 370 321 361 q 301 392 301 379 l 301 392 z "},"ǉ":{"ha":589,"x_min":131,"x_max":479,"o":"m 131 1044 l 158 1044 l 158 0 l 131 0 l 131 1044 m 378 -251 l 357 -235 q 413 -140 392 -196 q 433 -14 433 -85 l 433 525 l 461 525 l 461 -10 q 439 -151 461 -90 q 378 -251 417 -211 m 417 690 q 426 712 417 703 q 449 721 435 721 q 470 712 461 721 q 479 690 479 703 q 470 669 479 678 q 449 660 461 660 q 426 669 435 660 q 417 690 417 678 z "},"ł":{"ha":264,"x_min":39,"x_max":256,"o":"m 256 489 l 256 463 l 39 385 l 39 410 l 256 489 m 132 1044 l 158 1044 l 158 0 l 132 0 l 132 1044 z "},"m":{"ha":1063,"x_min":131,"x_max":932,"o":"m 151 525 l 156 361 l 150 375 q 240 492 175 449 q 382 535 304 535 q 462 516 425 535 q 522 466 499 497 q 547 396 546 435 l 542 388 q 631 497 568 460 q 768 535 693 535 q 885 493 842 535 q 932 392 929 451 l 932 0 l 904 0 l 904 385 q 868 470 903 433 q 768 511 833 507 q 661 485 711 511 q 579 413 611 458 q 544 313 547 368 l 544 0 l 518 0 l 518 385 q 481 470 515 433 q 381 511 446 507 q 272 484 322 511 q 190 410 221 457 q 158 304 158 364 l 158 0 l 131 0 l 131 525 l 151 525 z "},"n":{"ha":676,"x_min":131,"x_max":546,"o":"m 151 525 l 157 356 l 153 375 q 240 492 175 450 q 383 535 304 535 q 501 491 457 535 q 546 379 544 447 l 546 0 l 518 0 l 518 376 q 481 470 517 432 q 381 511 446 508 q 272 485 322 511 q 190 413 221 460 q 158 304 158 367 l 158 0 l 131 0 l 131 525 l 151 525 z "},"ń":{"ha":676,"x_min":131,"x_max":546,"o":"m 151 525 l 157 356 l 153 375 q 240 492 175 450 q 383 535 304 535 q 501 491 457 535 q 546 379 544 447 l 546 0 l 518 0 l 518 376 q 481 470 517 432 q 381 511 446 508 q 272 485 322 511 q 190 413 221 460 q 158 304 158 367 l 158 0 l 131 0 l 131 525 l 151 525 m 442 825 l 314 640 l 288 640 l 411 825 l 442 825 z "},"ŉ":{"ha":697,"x_min":-21,"x_max":567,"o":"m -7 538 l -21 550 q 33 624 18 578 q 42 729 49 669 l 72 729 q 71 656 75 693 q 48 588 67 619 q -7 538 29 557 m 172 525 l 178 356 l 174 375 q 260 492 196 450 q 404 535 325 535 q 522 491 478 535 q 567 379 565 447 l 567 0 l 539 0 l 539 376 q 502 470 538 432 q 401 511 467 508 q 292 485 343 511 q 210 413 242 460 q 179 304 179 367 l 179 0 l 151 0 l 151 525 l 172 525 z "},"ň":{"ha":676,"x_min":131,"x_max":546,"o":"m 151 525 l 157 356 l 153 375 q 240 492 175 450 q 383 535 304 535 q 501 491 457 535 q 546 379 544 447 l 546 0 l 518 0 l 518 376 q 481 470 517 432 q 381 511 446 508 q 272 485 322 511 q 190 413 221 460 q 158 304 158 367 l 158 0 l 131 0 l 131 525 l 151 525 m 182 806 l 347 615 l 329 614 l 496 806 l 525 806 l 340 596 l 339 596 l 153 806 l 182 806 z "},"ņ":{"ha":676,"x_min":131,"x_max":546,"o":"m 151 525 l 157 356 l 153 375 q 240 492 175 450 q 383 535 304 535 q 501 491 457 535 q 546 379 544 447 l 546 0 l 518 0 l 518 376 q 481 470 517 432 q 381 511 446 508 q 272 485 322 511 q 190 413 221 460 q 158 304 158 367 l 158 0 l 131 0 l 131 525 l 151 525 m 275 -254 l 261 -242 q 315 -168 300 -214 q 324 -62 331 -122 l 354 -62 q 353 -135 357 -99 q 330 -203 349 -172 q 275 -254 311 -235 z "},"ŋ":{"ha":676,"x_min":131,"x_max":546,"o":"m 546 -8 q 524 -150 546 -89 q 463 -251 501 -211 l 442 -235 q 497 -140 476 -196 q 518 -14 518 -85 l 518 376 q 481 470 517 432 q 381 511 446 508 q 272 485 322 511 q 190 413 221 460 q 158 304 158 367 l 158 0 l 131 0 l 131 525 l 151 525 l 157 375 q 241 492 178 450 q 383 535 304 535 q 501 491 457 535 q 546 379 544 447 l 546 -8 z "},"ɲ":{"ha":676,"x_min":54,"x_max":546,"o":"m 75 -251 l 54 -235 q 110 -140 89 -196 q 131 -14 131 -85 l 131 78 l 158 78 l 158 -10 q 135 -150 158 -90 q 75 -251 113 -210 m 151 525 l 157 356 l 153 375 q 240 492 175 450 q 383 535 304 535 q 501 491 457 535 q 546 379 544 447 l 546 0 l 518 0 l 518 376 q 481 470 517 432 q 381 511 446 508 q 272 485 322 511 q 190 413 221 460 q 158 304 158 367 l 158 0 l 131 0 l 131 525 l 151 525 z "},"ǌ":{"ha":976,"x_min":131,"x_max":867,"o":"m 151 525 l 157 356 l 153 375 q 240 492 175 450 q 383 535 304 535 q 501 491 457 535 q 546 379 544 447 l 546 0 l 518 0 l 518 376 q 481 470 517 432 q 381 511 446 508 q 272 485 322 511 q 190 413 221 460 q 158 304 158 367 l 158 0 l 131 0 l 131 525 l 151 525 m 765 -251 l 744 -235 q 800 -140 779 -196 q 821 -14 821 -85 l 821 525 l 849 525 l 849 -10 q 826 -151 849 -90 q 765 -251 804 -211 m 804 690 q 813 712 804 703 q 836 721 822 721 q 858 712 849 721 q 867 690 867 703 q 858 669 867 678 q 836 660 849 660 q 813 669 822 660 q 804 690 804 678 z "},"ñ":{"ha":676,"x_min":131,"x_max":546,"o":"m 151 525 l 157 356 l 153 375 q 240 492 175 450 q 383 535 304 535 q 501 491 457 535 q 546 379 544 447 l 546 0 l 518 0 l 518 376 q 481 470 517 432 q 381 511 446 508 q 272 485 322 511 q 190 413 221 460 q 158 304 158 367 l 158 0 l 131 0 l 131 525 l 151 525 m 436 624 q 374 644 399 624 q 331 688 350 664 q 292 726 311 708 q 244 744 272 744 q 210 733 228 744 q 178 694 192 722 q 161 614 164 667 l 139 617 q 156 704 140 671 q 195 753 172 738 q 243 769 218 769 q 306 749 282 769 q 349 704 329 728 q 388 665 367 682 q 438 649 408 649 q 488 674 465 649 q 515 778 511 700 l 538 776 q 522 688 536 722 q 486 639 508 654 q 436 624 464 624 z "},"o":{"ha":699,"x_min":75,"x_max":624,"o":"m 75 264 q 112 401 75 339 q 210 501 149 464 q 349 538 272 538 q 488 501 425 538 q 587 401 550 464 q 624 264 624 339 q 587 126 624 188 q 488 28 550 64 q 349 -8 425 -8 q 210 27 272 -8 q 112 124 149 63 q 75 264 75 185 m 103 264 q 135 138 103 194 q 224 49 168 82 q 349 15 281 15 q 472 49 417 15 q 561 138 528 82 q 594 264 594 194 q 561 388 594 332 q 472 478 528 444 q 349 513 417 513 q 222 476 278 513 q 135 383 167 440 q 103 264 103 326 z "},"ó":{"ha":699,"x_min":75,"x_max":624,"o":"m 75 264 q 112 401 75 339 q 210 501 149 464 q 349 538 272 538 q 488 501 425 538 q 587 401 550 464 q 624 264 624 339 q 587 126 624 188 q 488 28 550 64 q 349 -8 425 -8 q 210 27 272 -8 q 112 124 149 63 q 75 264 75 185 m 103 264 q 135 138 103 194 q 224 49 168 82 q 349 15 281 15 q 472 49 417 15 q 561 138 528 82 q 594 264 594 194 q 561 388 594 332 q 472 478 528 444 q 349 513 417 513 q 222 476 278 513 q 135 383 167 440 q 103 264 103 326 m 453 826 l 325 642 l 299 642 l 422 826 l 453 826 z "},"ŏ":{"ha":699,"x_min":75,"x_max":624,"o":"m 75 264 q 112 401 75 339 q 210 501 149 464 q 349 538 272 538 q 488 501 425 538 q 587 401 550 464 q 624 264 624 339 q 587 126 624 188 q 488 28 550 64 q 349 -8 425 -8 q 210 27 272 -8 q 112 124 149 63 q 75 264 75 185 m 103 264 q 135 138 103 194 q 224 49 168 82 q 349 15 281 15 q 472 49 417 15 q 561 138 528 82 q 594 264 594 194 q 561 388 594 332 q 472 478 528 444 q 349 513 417 513 q 222 476 278 513 q 135 383 167 440 q 103 264 103 326 m 343 642 q 256 670 294 642 q 194 749 218 699 q 169 861 171 799 l 193 861 q 215 764 194 808 q 268 692 235 719 q 343 665 301 665 q 417 692 385 665 q 469 764 450 719 q 490 861 488 808 l 514 861 q 490 749 514 799 q 428 670 467 699 q 343 642 390 642 z "},"ô":{"ha":699,"x_min":75,"x_max":624,"o":"m 75 264 q 112 401 75 339 q 210 501 149 464 q 349 538 272 538 q 488 501 425 538 q 587 401 550 464 q 624 264 624 339 q 587 126 624 188 q 488 28 550 64 q 349 -8 425 -8 q 210 27 272 -8 q 112 124 149 63 q 75 264 75 185 m 103 264 q 135 138 103 194 q 224 49 168 82 q 349 15 281 15 q 472 49 417 15 q 561 138 528 82 q 594 264 594 194 q 561 388 594 332 q 472 478 528 444 q 349 513 417 513 q 222 476 278 513 q 135 383 167 440 q 103 264 103 326 m 508 667 l 343 857 l 361 858 l 194 667 l 165 667 l 350 878 l 351 878 l 538 667 l 508 667 z "},"ố":{"ha":699,"x_min":75,"x_max":639,"o":"m 75 264 q 112 401 75 339 q 210 501 149 464 q 349 538 272 538 q 488 501 425 538 q 587 401 550 464 q 624 264 624 339 q 587 126 624 188 q 488 28 550 64 q 349 -8 425 -8 q 210 27 272 -8 q 112 124 149 63 q 75 264 75 185 m 103 264 q 135 138 103 194 q 224 49 168 82 q 349 15 281 15 q 472 49 417 15 q 561 138 528 82 q 594 264 594 194 q 561 388 594 332 q 472 478 528 444 q 349 513 417 513 q 222 476 278 513 q 135 383 167 440 q 103 264 103 326 m 503 649 l 338 839 l 356 840 l 189 649 l 160 649 l 344 860 l 346 860 l 532 649 l 503 649 m 639 951 l 511 767 l 485 767 l 608 951 l 639 951 z "},"ộ":{"ha":699,"x_min":75,"x_max":624,"o":"m 75 264 q 112 401 75 339 q 210 501 149 464 q 349 538 272 538 q 488 501 425 538 q 587 401 550 464 q 624 264 624 339 q 587 126 624 188 q 488 28 550 64 q 349 -8 425 -8 q 210 27 272 -8 q 112 124 149 63 q 75 264 75 185 m 103 264 q 135 138 103 194 q 224 49 168 82 q 349 15 281 15 q 472 49 417 15 q 561 138 528 82 q 594 264 594 194 q 561 388 594 332 q 472 478 528 444 q 349 513 417 513 q 222 476 278 513 q 135 383 167 440 q 103 264 103 326 m 318 -139 q 328 -117 318 -126 q 350 -108 338 -108 q 372 -117 363 -108 q 381 -139 381 -126 q 372 -162 381 -153 q 350 -171 363 -171 q 328 -161 338 -171 q 318 -139 318 -151 m 508 667 l 343 857 l 361 858 l 194 667 l 165 667 l 350 878 l 351 878 l 538 667 l 508 667 z "},"ồ":{"ha":699,"x_min":35,"x_max":624,"o":"m 75 264 q 112 401 75 339 q 210 501 149 464 q 349 538 272 538 q 488 501 425 538 q 587 401 550 464 q 624 264 624 339 q 587 126 624 188 q 488 28 550 64 q 349 -8 425 -8 q 210 27 272 -8 q 112 124 149 63 q 75 264 75 185 m 103 264 q 135 138 103 194 q 224 49 168 82 q 349 15 281 15 q 472 49 417 15 q 561 138 528 82 q 594 264 594 194 q 561 388 594 332 q 472 478 528 444 q 349 513 417 513 q 222 476 278 513 q 135 383 167 440 q 103 264 103 326 m 496 639 l 331 829 l 349 831 l 182 639 l 153 639 l 338 850 l 339 850 l 525 639 l 496 639 m 35 964 l 65 964 l 189 779 l 163 779 l 35 964 z "},"ổ":{"ha":699,"x_min":75,"x_max":624,"o":"m 75 264 q 112 401 75 339 q 210 501 149 464 q 349 538 272 538 q 488 501 425 538 q 587 401 550 464 q 624 264 624 339 q 587 126 624 188 q 488 28 550 64 q 349 -8 425 -8 q 210 27 272 -8 q 112 124 149 63 q 75 264 75 185 m 103 264 q 135 138 103 194 q 224 49 168 82 q 349 15 281 15 q 472 49 417 15 q 561 138 528 82 q 594 264 594 194 q 561 388 594 332 q 472 478 528 444 q 349 513 417 513 q 222 476 278 513 q 135 383 167 440 q 103 264 103 326 m 499 650 l 333 840 l 351 842 l 185 650 l 156 650 l 340 861 l 342 861 l 528 650 l 499 650 m 490 774 q 544 822 522 800 q 567 874 567 844 q 553 920 567 901 q 508 939 539 939 q 465 927 482 939 q 426 886 449 915 l 411 897 q 456 946 432 931 q 510 961 479 961 q 548 953 531 961 q 577 926 565 944 q 589 875 589 907 q 564 813 589 838 q 504 760 539 788 l 490 774 z "},"ỗ":{"ha":699,"x_min":75,"x_max":624,"o":"m 75 264 q 112 401 75 339 q 210 501 149 464 q 349 538 272 538 q 488 501 425 538 q 587 401 550 464 q 624 264 624 339 q 587 126 624 188 q 488 28 550 64 q 349 -8 425 -8 q 210 27 272 -8 q 112 124 149 63 q 75 264 75 185 m 103 264 q 135 138 103 194 q 224 49 168 82 q 349 15 281 15 q 472 49 417 15 q 561 138 528 82 q 594 264 594 194 q 561 388 594 332 q 472 478 528 444 q 349 513 417 513 q 222 476 278 513 q 135 383 167 440 q 103 264 103 326 m 504 624 l 339 814 l 357 815 l 190 624 l 161 624 l 346 835 l 347 835 l 533 624 l 504 624 m 443 860 q 381 880 406 860 q 338 924 357 900 q 299 963 318 944 q 251 981 279 981 q 217 969 235 981 q 185 931 199 958 q 168 850 171 903 l 146 853 q 163 940 147 907 q 202 990 179 974 q 250 1006 225 1006 q 313 985 289 1006 q 356 940 336 964 q 394 901 374 918 q 444 885 415 885 q 495 910 472 885 q 522 1014 518 936 l 544 1013 q 529 924 543 958 q 493 875 515 890 q 443 860 471 860 z "},"ȍ":{"ha":699,"x_min":75,"x_max":624,"o":"m 75 264 q 112 401 75 339 q 210 501 149 464 q 349 538 272 538 q 488 501 425 538 q 587 401 550 464 q 624 264 624 339 q 587 126 624 188 q 488 28 550 64 q 349 -8 425 -8 q 210 27 272 -8 q 112 124 149 63 q 75 264 75 185 m 103 264 q 135 138 103 194 q 224 49 168 82 q 349 15 281 15 q 472 49 417 15 q 561 138 528 82 q 594 264 594 194 q 561 388 594 332 q 472 478 528 444 q 349 513 417 513 q 222 476 278 513 q 135 383 167 440 q 103 264 103 326 m 150 853 l 181 853 l 304 668 l 278 668 l 150 853 m 285 853 l 315 853 l 439 668 l 413 668 l 285 853 z "},"ö":{"ha":699,"x_min":75,"x_max":624,"o":"m 75 264 q 112 401 75 339 q 210 501 149 464 q 349 538 272 538 q 488 501 425 538 q 587 401 550 464 q 624 264 624 339 q 587 126 624 188 q 488 28 550 64 q 349 -8 425 -8 q 210 27 272 -8 q 112 124 149 63 q 75 264 75 185 m 103 264 q 135 138 103 194 q 224 49 168 82 q 349 15 281 15 q 472 49 417 15 q 561 138 528 82 q 594 264 594 194 q 561 388 594 332 q 472 478 528 444 q 349 513 417 513 q 222 476 278 513 q 135 383 167 440 q 103 264 103 326 m 203 699 q 212 720 203 711 q 233 729 221 729 q 255 720 246 729 q 264 699 264 711 q 255 677 264 686 q 233 668 246 668 q 212 677 221 668 q 203 699 203 686 l 203 699 m 433 699 q 442 720 433 711 q 465 729 451 729 q 486 720 476 729 q 496 699 496 711 q 486 677 496 686 q 465 668 476 668 q 442 677 451 668 q 433 699 433 686 l 433 699 z "},"ȫ":{"ha":699,"x_min":75,"x_max":624,"o":"m 75 264 q 112 401 75 339 q 210 501 149 464 q 349 538 272 538 q 488 501 425 538 q 587 401 550 464 q 624 264 624 339 q 587 126 624 188 q 488 28 550 64 q 349 -8 425 -8 q 210 27 272 -8 q 112 124 149 63 q 75 264 75 185 m 103 264 q 135 138 103 194 q 224 49 168 82 q 349 15 281 15 q 472 49 417 15 q 561 138 528 82 q 594 264 594 194 q 561 388 594 332 q 472 478 528 444 q 349 513 417 513 q 222 476 278 513 q 135 383 167 440 q 103 264 103 326 m 203 699 q 212 720 203 711 q 233 729 221 729 q 255 720 246 729 q 264 699 264 711 q 255 677 264 686 q 233 668 246 668 q 212 677 221 668 q 203 699 203 686 l 203 699 m 433 699 q 442 720 433 711 q 465 729 451 729 q 486 720 476 729 q 496 699 496 711 q 486 677 496 686 q 465 668 476 668 q 442 677 451 668 q 433 699 433 686 l 433 699 m 190 911 l 511 911 l 511 888 l 190 888 l 190 911 z "},"ȱ":{"ha":699,"x_min":75,"x_max":624,"o":"m 75 264 q 112 401 75 339 q 210 501 149 464 q 349 538 272 538 q 488 501 425 538 q 587 401 550 464 q 624 264 624 339 q 587 126 624 188 q 488 28 550 64 q 349 -8 425 -8 q 210 27 272 -8 q 112 124 149 63 q 75 264 75 185 m 103 264 q 135 138 103 194 q 224 49 168 82 q 349 15 281 15 q 472 49 417 15 q 561 138 528 82 q 594 264 594 194 q 561 388 594 332 q 472 478 528 444 q 349 513 417 513 q 222 476 278 513 q 135 383 167 440 q 103 264 103 326 m 318 692 q 327 713 318 704 q 350 722 336 722 q 372 713 363 722 q 381 692 381 704 q 372 670 381 679 q 350 661 363 661 q 327 670 336 661 q 318 692 318 679 m 190 904 l 511 904 l 511 881 l 190 881 l 190 904 z "},"ọ":{"ha":699,"x_min":75,"x_max":624,"o":"m 75 264 q 112 401 75 339 q 210 501 149 464 q 349 538 272 538 q 488 501 425 538 q 587 401 550 464 q 624 264 624 339 q 587 126 624 188 q 488 28 550 64 q 349 -8 425 -8 q 210 27 272 -8 q 112 124 149 63 q 75 264 75 185 m 103 264 q 135 138 103 194 q 224 49 168 82 q 349 15 281 15 q 472 49 417 15 q 561 138 528 82 q 594 264 594 194 q 561 388 594 332 q 472 478 528 444 q 349 513 417 513 q 222 476 278 513 q 135 383 167 440 q 103 264 103 326 m 318 -139 q 328 -117 318 -126 q 350 -108 338 -108 q 372 -117 363 -108 q 381 -139 381 -126 q 372 -162 381 -153 q 350 -171 363 -171 q 328 -161 338 -171 q 318 -139 318 -151 z "},"ò":{"ha":699,"x_min":75,"x_max":624,"o":"m 75 264 q 112 401 75 339 q 210 501 149 464 q 349 538 272 538 q 488 501 425 538 q 587 401 550 464 q 624 264 624 339 q 587 126 624 188 q 488 28 550 64 q 349 -8 425 -8 q 210 27 272 -8 q 112 124 149 63 q 75 264 75 185 m 103 264 q 135 138 103 194 q 224 49 168 82 q 349 15 281 15 q 472 49 417 15 q 561 138 528 82 q 594 264 594 194 q 561 388 594 332 q 472 478 528 444 q 349 513 417 513 q 222 476 278 513 q 135 383 167 440 q 103 264 103 326 m 215 853 l 246 853 l 369 668 l 343 668 l 215 853 z "},"ỏ":{"ha":699,"x_min":75,"x_max":624,"o":"m 75 264 q 112 401 75 339 q 210 501 149 464 q 349 538 272 538 q 488 501 425 538 q 587 401 550 464 q 624 264 624 339 q 587 126 624 188 q 488 28 550 64 q 349 -8 425 -8 q 210 27 272 -8 q 112 124 149 63 q 75 264 75 185 m 103 264 q 135 138 103 194 q 224 49 168 82 q 349 15 281 15 q 472 49 417 15 q 561 138 528 82 q 594 264 594 194 q 561 388 594 332 q 472 478 528 444 q 349 513 417 513 q 222 476 278 513 q 135 383 167 440 q 103 264 103 326 m 349 613 q 403 661 381 639 q 425 713 425 683 q 411 759 425 740 q 367 778 397 778 q 324 766 340 778 q 285 725 307 754 l 269 736 q 314 785 290 769 q 368 800 338 800 q 406 792 389 800 q 435 765 424 783 q 447 714 447 746 q 422 651 447 676 q 363 599 397 626 l 349 613 z "},"ơ":{"ha":699,"x_min":75,"x_max":624,"o":"m 75 264 q 112 401 75 339 q 210 501 149 464 q 349 538 272 538 q 488 501 425 538 q 587 401 550 464 q 624 264 624 339 q 587 126 624 188 q 488 28 550 64 q 349 -8 425 -8 q 210 27 272 -8 q 112 124 149 63 q 75 264 75 185 m 103 264 q 135 138 103 194 q 224 49 168 82 q 349 15 281 15 q 472 49 417 15 q 561 138 528 82 q 594 264 594 194 q 561 388 594 332 q 472 478 528 444 q 349 513 417 513 q 222 476 278 513 q 135 383 167 440 q 103 264 103 326 m 432 524 q 538 553 503 524 q 574 669 572 583 l 599 669 q 576 559 597 594 q 518 513 556 524 q 432 501 481 501 l 432 524 z "},"ớ":{"ha":699,"x_min":75,"x_max":624,"o":"m 75 264 q 112 401 75 339 q 210 501 149 464 q 349 538 272 538 q 488 501 425 538 q 587 401 550 464 q 624 264 624 339 q 587 126 624 188 q 488 28 550 64 q 349 -8 425 -8 q 210 27 272 -8 q 112 124 149 63 q 75 264 75 185 m 103 264 q 135 138 103 194 q 224 49 168 82 q 349 15 281 15 q 472 49 417 15 q 561 138 528 82 q 594 264 594 194 q 561 388 594 332 q 472 478 528 444 q 349 513 417 513 q 222 476 278 513 q 135 383 167 440 q 103 264 103 326 m 432 524 q 538 553 503 524 q 574 669 572 583 l 599 669 q 576 559 597 594 q 518 513 556 524 q 432 501 481 501 l 432 524 m 453 826 l 325 642 l 299 642 l 422 826 l 453 826 z "},"ợ":{"ha":699,"x_min":75,"x_max":624,"o":"m 75 264 q 112 401 75 339 q 210 501 149 464 q 349 538 272 538 q 488 501 425 538 q 587 401 550 464 q 624 264 624 339 q 587 126 624 188 q 488 28 550 64 q 349 -8 425 -8 q 210 27 272 -8 q 112 124 149 63 q 75 264 75 185 m 103 264 q 135 138 103 194 q 224 49 168 82 q 349 15 281 15 q 472 49 417 15 q 561 138 528 82 q 594 264 594 194 q 561 388 594 332 q 472 478 528 444 q 349 513 417 513 q 222 476 278 513 q 135 383 167 440 q 103 264 103 326 m 432 524 q 538 553 503 524 q 574 669 572 583 l 599 669 q 576 559 597 594 q 518 513 556 524 q 432 501 481 501 l 432 524 m 318 -139 q 328 -117 318 -126 q 350 -108 338 -108 q 372 -117 363 -108 q 381 -139 381 -126 q 372 -162 381 -153 q 350 -171 363 -171 q 328 -161 338 -171 q 318 -139 318 -151 z "},"ờ":{"ha":699,"x_min":75,"x_max":624,"o":"m 75 264 q 112 401 75 339 q 210 501 149 464 q 349 538 272 538 q 488 501 425 538 q 587 401 550 464 q 624 264 624 339 q 587 126 624 188 q 488 28 550 64 q 349 -8 425 -8 q 210 27 272 -8 q 112 124 149 63 q 75 264 75 185 m 103 264 q 135 138 103 194 q 224 49 168 82 q 349 15 281 15 q 472 49 417 15 q 561 138 528 82 q 594 264 594 194 q 561 388 594 332 q 472 478 528 444 q 349 513 417 513 q 222 476 278 513 q 135 383 167 440 q 103 264 103 326 m 432 524 q 538 553 503 524 q 574 669 572 583 l 599 669 q 576 559 597 594 q 518 513 556 524 q 432 501 481 501 l 432 524 m 215 853 l 246 853 l 369 668 l 343 668 l 215 853 z "},"ở":{"ha":699,"x_min":75,"x_max":624,"o":"m 75 264 q 112 401 75 339 q 210 501 149 464 q 349 538 272 538 q 488 501 425 538 q 587 401 550 464 q 624 264 624 339 q 587 126 624 188 q 488 28 550 64 q 349 -8 425 -8 q 210 27 272 -8 q 112 124 149 63 q 75 264 75 185 m 103 264 q 135 138 103 194 q 224 49 168 82 q 349 15 281 15 q 472 49 417 15 q 561 138 528 82 q 594 264 594 194 q 561 388 594 332 q 472 478 528 444 q 349 513 417 513 q 222 476 278 513 q 135 383 167 440 q 103 264 103 326 m 432 524 q 538 553 503 524 q 574 669 572 583 l 599 669 q 576 559 597 594 q 518 513 556 524 q 432 501 481 501 l 432 524 m 349 613 q 403 661 381 639 q 425 713 425 683 q 411 759 425 740 q 367 778 397 778 q 324 766 340 778 q 285 725 307 754 l 269 736 q 314 785 290 769 q 368 800 338 800 q 406 792 389 800 q 435 765 424 783 q 447 714 447 746 q 422 651 447 676 q 363 599 397 626 l 349 613 z "},"ỡ":{"ha":699,"x_min":75,"x_max":624,"o":"m 447 622 q 386 642 410 622 q 342 686 363 663 q 304 725 324 707 q 257 743 285 743 q 222 732 240 743 q 190 693 204 721 q 175 614 176 665 l 153 617 q 169 703 154 669 q 208 752 185 736 q 256 768 231 768 q 318 747 294 768 q 361 703 342 726 q 399 665 379 682 q 449 647 419 647 q 499 673 476 647 q 526 776 522 699 l 549 774 q 533 688 547 721 q 497 638 519 654 q 447 622 475 622 m 75 264 q 112 401 75 339 q 210 501 149 464 q 349 538 272 538 q 488 501 425 538 q 587 401 550 464 q 624 264 624 339 q 587 126 624 188 q 488 28 550 64 q 349 -8 425 -8 q 210 27 272 -8 q 112 124 149 63 q 75 264 75 185 m 103 264 q 135 138 103 194 q 224 49 168 82 q 349 15 281 15 q 472 49 417 15 q 561 138 528 82 q 594 264 594 194 q 561 388 594 332 q 472 478 528 444 q 349 513 417 513 q 222 476 278 513 q 135 383 167 440 q 103 264 103 326 m 432 524 q 538 553 503 524 q 574 669 572 583 l 599 669 q 576 559 597 594 q 518 513 556 524 q 432 501 481 501 l 432 524 z "},"ő":{"ha":699,"x_min":75,"x_max":624,"o":"m 75 264 q 112 401 75 339 q 210 501 149 464 q 349 538 272 538 q 488 501 425 538 q 587 401 550 464 q 624 264 624 339 q 587 126 624 188 q 488 28 550 64 q 349 -8 425 -8 q 210 27 272 -8 q 112 124 149 63 q 75 264 75 185 m 103 264 q 135 138 103 194 q 224 49 168 82 q 349 15 281 15 q 472 49 417 15 q 561 138 528 82 q 594 264 594 194 q 561 388 594 332 q 472 478 528 444 q 349 513 417 513 q 222 476 278 513 q 135 383 167 440 q 103 264 103 326 m 429 853 l 301 668 l 275 668 l 399 853 l 429 853 m 563 853 l 435 668 l 408 668 l 532 853 l 563 853 z "},"ȏ":{"ha":699,"x_min":75,"x_max":624,"o":"m 75 264 q 112 401 75 339 q 210 501 149 464 q 349 538 272 538 q 488 501 425 538 q 587 401 550 464 q 624 264 624 339 q 587 126 624 188 q 488 28 550 64 q 349 -8 425 -8 q 210 27 272 -8 q 112 124 149 63 q 75 264 75 185 m 103 264 q 135 138 103 194 q 224 49 168 82 q 349 15 281 15 q 472 49 417 15 q 561 138 528 82 q 594 264 594 194 q 561 388 594 332 q 472 478 528 444 q 349 513 417 513 q 222 476 278 513 q 135 383 167 440 q 103 264 103 326 m 354 833 q 441 805 403 833 q 503 726 479 776 q 528 614 526 676 l 506 614 q 483 711 503 667 q 429 783 463 756 q 354 810 396 810 q 280 783 313 810 q 228 711 247 756 q 208 614 210 667 l 183 614 q 208 726 185 676 q 269 805 231 776 q 354 833 307 833 z "},"ō":{"ha":699,"x_min":75,"x_max":624,"o":"m 75 264 q 112 401 75 339 q 210 501 149 464 q 349 538 272 538 q 488 501 425 538 q 587 401 550 464 q 624 264 624 339 q 587 126 624 188 q 488 28 550 64 q 349 -8 425 -8 q 210 27 272 -8 q 112 124 149 63 q 75 264 75 185 m 103 264 q 135 138 103 194 q 224 49 168 82 q 349 15 281 15 q 472 49 417 15 q 561 138 528 82 q 594 264 594 194 q 561 388 594 332 q 472 478 528 444 q 349 513 417 513 q 222 476 278 513 q 135 383 167 440 q 103 264 103 326 m 190 707 l 511 707 l 511 683 l 190 683 l 190 707 z "},"ǫ":{"ha":699,"x_min":75,"x_max":624,"o":"m 476 -261 q 421 -246 446 -261 q 380 -203 396 -231 q 364 -140 364 -176 q 390 -49 364 -90 q 450 21 415 -8 l 469 24 q 414 -1 440 7 q 349 -8 388 -8 q 210 27 272 -8 q 112 124 149 63 q 75 264 75 185 q 112 401 75 339 q 210 501 149 464 q 349 538 272 538 q 488 501 425 538 q 587 401 550 464 q 624 264 624 339 q 588 131 624 190 q 496 33 553 72 q 418 -47 446 -1 q 390 -139 390 -93 q 417 -210 390 -183 q 478 -236 444 -236 q 527 -218 506 -236 q 564 -174 549 -200 l 581 -186 q 539 -239 567 -217 q 476 -261 511 -261 m 349 15 q 472 49 417 15 q 561 138 528 82 q 594 264 594 194 q 561 388 594 332 q 472 478 528 444 q 349 513 417 513 q 222 476 278 513 q 135 383 167 440 q 103 264 103 326 q 135 138 103 194 q 224 49 168 82 q 349 15 281 15 z "},"ø":{"ha":668,"x_min":75,"x_max":624,"o":"m 560 513 l 128 -3 l 113 15 l 544 528 l 560 513 m 75 264 q 112 401 75 339 q 210 501 149 464 q 349 538 272 538 q 488 501 425 538 q 587 401 550 464 q 624 264 624 339 q 587 126 624 188 q 488 28 550 64 q 349 -8 425 -8 q 210 27 272 -8 q 112 124 149 63 q 75 264 75 185 m 103 264 q 135 138 103 194 q 224 49 168 82 q 349 15 281 15 q 472 49 417 15 q 561 138 528 82 q 594 264 594 194 q 561 388 594 332 q 472 478 528 444 q 349 513 417 513 q 222 476 278 513 q 135 383 167 440 q 103 264 103 326 z "},"ǿ":{"ha":668,"x_min":75,"x_max":624,"o":"m 560 513 l 128 -3 l 113 15 l 544 528 l 560 513 m 75 264 q 112 401 75 339 q 210 501 149 464 q 349 538 272 538 q 488 501 425 538 q 587 401 550 464 q 624 264 624 339 q 587 126 624 188 q 488 28 550 64 q 349 -8 425 -8 q 210 27 272 -8 q 112 124 149 63 q 75 264 75 185 m 103 264 q 135 138 103 194 q 224 49 168 82 q 349 15 281 15 q 472 49 417 15 q 561 138 528 82 q 594 264 594 194 q 561 388 594 332 q 472 478 528 444 q 349 513 417 513 q 222 476 278 513 q 135 383 167 440 q 103 264 103 326 m 438 825 l 310 640 l 283 640 l 407 825 l 438 825 z "},"õ":{"ha":699,"x_min":75,"x_max":624,"o":"m 75 264 q 112 401 75 339 q 210 501 149 464 q 349 538 272 538 q 488 501 425 538 q 587 401 550 464 q 624 264 624 339 q 587 126 624 188 q 488 28 550 64 q 349 -8 425 -8 q 210 27 272 -8 q 112 124 149 63 q 75 264 75 185 m 103 264 q 135 138 103 194 q 224 49 168 82 q 349 15 281 15 q 472 49 417 15 q 561 138 528 82 q 594 264 594 194 q 561 388 594 332 q 472 478 528 444 q 349 513 417 513 q 222 476 278 513 q 135 383 167 440 q 103 264 103 326 m 449 624 q 387 644 411 624 q 343 688 363 664 q 304 726 324 708 q 257 744 285 744 q 222 733 240 744 q 190 694 204 722 q 174 614 176 667 l 151 617 q 169 704 153 671 q 208 753 185 738 q 256 769 231 769 q 318 749 294 769 q 361 704 342 728 q 400 665 379 682 q 450 649 421 649 q 501 674 478 649 q 528 778 524 700 l 550 776 q 535 688 549 722 q 499 639 521 654 q 449 624 476 624 z "},"ȭ":{"ha":699,"x_min":75,"x_max":624,"o":"m 75 264 q 112 401 75 339 q 210 501 149 464 q 349 538 272 538 q 488 501 425 538 q 587 401 550 464 q 624 264 624 339 q 587 126 624 188 q 488 28 550 64 q 349 -8 425 -8 q 210 27 272 -8 q 112 124 149 63 q 75 264 75 185 m 103 264 q 135 138 103 194 q 224 49 168 82 q 349 15 281 15 q 472 49 417 15 q 561 138 528 82 q 594 264 594 194 q 561 388 594 332 q 472 478 528 444 q 349 513 417 513 q 222 476 278 513 q 135 383 167 440 q 103 264 103 326 m 449 624 q 387 644 411 624 q 343 688 363 664 q 304 726 324 708 q 257 744 285 744 q 222 733 240 744 q 190 694 204 722 q 174 614 176 667 l 151 617 q 169 704 153 671 q 208 753 185 738 q 256 769 231 769 q 318 749 294 769 q 361 704 342 728 q 400 665 379 682 q 450 649 421 649 q 501 674 478 649 q 528 778 524 700 l 550 776 q 535 688 549 722 q 499 639 521 654 q 449 624 476 624 m 190 925 l 511 925 l 511 901 l 190 901 l 190 925 z "},"œ":{"ha":986,"x_min":75,"x_max":925,"o":"m 521 51 q 441 8 485 24 q 349 -8 397 -8 q 210 28 272 -8 q 112 125 149 64 q 75 263 75 186 q 112 401 75 339 q 210 499 149 463 q 347 536 272 536 q 442 520 397 536 q 521 475 486 504 l 506 456 q 433 497 474 481 q 349 513 393 513 q 224 478 279 513 q 135 388 168 444 q 103 263 103 332 q 135 138 103 194 q 224 49 168 82 q 349 15 281 15 q 433 30 393 15 q 504 69 472 44 l 521 51 m 686 -8 q 548 28 610 -8 q 449 126 486 64 q 413 264 413 188 q 449 401 413 339 q 548 501 486 464 q 686 538 610 538 q 834 487 774 538 q 925 360 894 436 l 449 167 l 440 190 l 901 376 l 894 363 q 812 468 865 424 q 685 513 758 513 q 561 479 617 513 q 473 389 506 446 q 440 264 440 332 q 471 143 440 200 q 556 51 501 86 q 686 15 611 15 q 778 33 735 15 q 856 82 822 51 l 874 63 q 788 11 836 31 q 686 -8 740 -8 z "},"p":{"ha":754,"x_min":131,"x_max":679,"o":"m 407 -8 q 253 38 321 -8 q 154 158 185 85 l 158 192 l 158 -251 l 131 -251 l 131 525 l 157 525 l 158 329 l 156 369 q 255 490 186 443 q 408 536 324 536 q 544 500 483 536 q 642 401 606 464 q 679 263 679 339 q 642 124 679 186 q 544 27 606 63 q 407 -8 482 -8 m 404 15 q 529 49 474 15 q 618 138 585 82 q 651 263 651 194 q 618 389 651 332 q 529 479 585 446 q 406 513 474 513 q 281 479 338 513 q 192 390 225 446 q 158 267 158 335 l 158 253 q 194 133 160 188 q 283 47 228 79 q 404 15 338 15 z "},"þ":{"ha":722,"x_min":118,"x_max":665,"o":"m 393 -8 q 283 15 336 -8 q 193 78 231 38 q 142 168 156 118 l 144 197 l 144 -251 l 118 -251 l 118 1044 l 144 1044 l 144 339 l 138 351 q 192 447 153 406 q 285 513 232 489 q 394 536 339 536 q 532 500 471 536 q 629 401 593 464 q 665 263 665 339 q 629 124 665 185 q 531 27 593 63 q 393 -8 469 -8 m 392 17 q 516 50 460 17 q 606 139 572 83 q 639 263 639 194 q 605 392 639 336 q 515 479 571 447 q 392 511 458 511 q 268 478 324 511 q 179 390 213 444 q 144 267 146 335 l 144 244 q 183 129 149 181 q 272 47 217 78 q 392 17 326 17 z "},"q":{"ha":754,"x_min":75,"x_max":624,"o":"m 346 -8 q 210 28 271 -8 q 112 125 149 64 q 75 263 75 186 q 112 402 75 340 q 210 500 149 464 q 349 536 272 536 q 502 487 432 536 q 603 364 572 438 l 596 331 l 596 525 l 624 525 l 624 -251 l 596 -251 l 596 188 l 599 157 q 501 38 569 85 q 346 -8 432 -8 m 349 15 q 470 47 415 15 q 559 131 525 78 q 596 250 593 185 l 596 267 q 563 390 596 335 q 473 479 529 446 q 349 513 417 513 q 225 479 281 513 q 136 389 169 446 q 103 263 103 332 q 136 138 103 194 q 225 49 169 82 q 349 15 281 15 z "},"r":{"ha":446,"x_min":131,"x_max":385,"o":"m 151 525 l 156 361 l 153 376 q 203 461 168 426 q 286 515 239 496 q 385 535 333 533 l 383 510 q 271 481 322 508 q 189 408 219 454 q 158 303 158 363 l 158 0 l 131 0 l 131 525 l 151 525 z "},"ŕ":{"ha":446,"x_min":131,"x_max":385,"o":"m 151 525 l 156 361 l 153 376 q 203 461 168 426 q 286 515 239 496 q 385 535 333 533 l 383 510 q 271 481 322 508 q 189 408 219 454 q 158 303 158 363 l 158 0 l 131 0 l 131 525 l 151 525 m 326 825 l 199 640 l 172 640 l 296 825 l 326 825 z "},"ř":{"ha":446,"x_min":38,"x_max":410,"o":"m 151 525 l 156 361 l 153 376 q 203 461 168 426 q 286 515 239 496 q 385 535 333 533 l 383 510 q 271 481 322 508 q 189 408 219 454 q 158 303 158 363 l 158 0 l 131 0 l 131 525 l 151 525 m 67 804 l 232 614 l 214 613 l 381 804 l 410 804 l 225 594 l 224 594 l 38 804 l 67 804 z "},"ŗ":{"ha":446,"x_min":131,"x_max":385,"o":"m 151 525 l 156 361 l 153 376 q 203 461 168 426 q 286 515 239 496 q 385 535 333 533 l 383 510 q 271 481 322 508 q 189 408 219 454 q 158 303 158 363 l 158 0 l 131 0 l 131 525 l 151 525 m 156 -254 l 142 -242 q 196 -168 181 -214 q 204 -62 211 -122 l 235 -62 q 233 -135 238 -99 q 210 -203 229 -172 q 156 -254 192 -235 z "},"ȑ":{"ha":446,"x_min":22,"x_max":385,"o":"m 151 525 l 156 361 l 153 376 q 203 461 168 426 q 286 515 239 496 q 385 535 333 533 l 383 510 q 271 481 322 508 q 189 408 219 454 q 158 303 158 363 l 158 0 l 131 0 l 131 525 l 151 525 m 22 851 l 53 851 l 176 667 l 150 667 l 22 851 m 157 851 l 188 851 l 311 667 l 285 667 l 157 851 z "},"ȓ":{"ha":446,"x_min":56,"x_max":400,"o":"m 151 525 l 156 361 l 153 376 q 203 461 168 426 q 286 515 239 496 q 385 535 333 533 l 383 510 q 271 481 322 508 q 189 408 219 454 q 158 303 158 363 l 158 0 l 131 0 l 131 525 l 151 525 m 226 832 q 313 803 275 832 q 375 725 351 775 q 400 613 399 675 l 378 613 q 355 710 375 665 q 301 781 335 754 q 226 808 268 808 q 152 781 185 808 q 101 710 119 754 q 81 613 82 665 l 56 613 q 80 725 57 675 q 141 803 103 775 q 226 832 179 832 z "},"s":{"ha":478,"x_min":75,"x_max":401,"o":"m 238 -11 q 152 3 199 -11 q 75 56 106 18 l 92 72 q 151 29 113 46 q 238 13 190 13 q 302 24 271 13 q 354 62 333 35 q 375 135 375 89 q 353 201 375 176 q 297 238 331 225 q 225 264 263 251 q 135 310 174 282 q 96 399 96 338 q 116 472 96 443 q 169 517 136 501 q 239 532 203 532 q 311 518 271 532 q 382 471 351 504 l 367 453 q 306 494 343 482 q 240 507 268 507 q 188 497 215 507 q 142 463 161 486 q 122 401 122 439 q 139 347 122 368 q 183 312 156 325 q 240 288 210 299 q 315 258 278 274 q 377 216 353 243 q 401 142 401 189 q 383 62 401 96 q 328 8 364 28 q 238 -11 292 -11 z "},"ś":{"ha":478,"x_min":75,"x_max":401,"o":"m 238 -11 q 152 3 199 -11 q 75 56 106 18 l 92 72 q 151 29 113 46 q 238 13 190 13 q 302 24 271 13 q 354 62 333 35 q 375 135 375 89 q 353 201 375 176 q 297 238 331 225 q 225 264 263 251 q 135 310 174 282 q 96 399 96 338 q 116 472 96 443 q 169 517 136 501 q 239 532 203 532 q 311 518 271 532 q 382 471 351 504 l 367 453 q 306 494 343 482 q 240 507 268 507 q 188 497 215 507 q 142 463 161 486 q 122 401 122 439 q 139 347 122 368 q 183 312 156 325 q 240 288 210 299 q 315 258 278 274 q 377 216 353 243 q 401 142 401 189 q 383 62 401 96 q 328 8 364 28 q 238 -11 292 -11 m 343 825 l 215 640 l 189 640 l 313 825 l 343 825 z "},"š":{"ha":478,"x_min":54,"x_max":426,"o":"m 238 -11 q 152 3 199 -11 q 75 56 106 18 l 92 72 q 151 29 113 46 q 238 13 190 13 q 302 24 271 13 q 354 62 333 35 q 375 135 375 89 q 353 201 375 176 q 297 238 331 225 q 225 264 263 251 q 135 310 174 282 q 96 399 96 338 q 116 472 96 443 q 169 517 136 501 q 239 532 203 532 q 311 518 271 532 q 382 471 351 504 l 367 453 q 306 494 343 482 q 240 507 268 507 q 188 497 215 507 q 142 463 161 486 q 122 401 122 439 q 139 347 122 368 q 183 312 156 325 q 240 288 210 299 q 315 258 278 274 q 377 216 353 243 q 401 142 401 189 q 383 62 401 96 q 328 8 364 28 q 238 -11 292 -11 m 83 806 l 249 615 l 231 614 l 397 806 l 426 806 l 242 596 l 240 596 l 54 806 l 83 806 z "},"ş":{"ha":478,"x_min":75,"x_max":408,"o":"m 238 -11 q 152 3 199 -11 q 75 56 106 18 l 92 72 q 151 29 113 46 q 238 13 190 13 q 302 24 271 13 q 354 62 333 35 q 375 135 375 89 q 353 201 375 176 q 297 238 331 225 q 225 264 263 251 q 135 310 174 282 q 96 399 96 338 q 116 472 96 443 q 169 517 136 501 q 239 532 203 532 q 311 518 271 532 q 382 471 351 504 l 367 453 q 306 494 343 482 q 240 507 268 507 q 188 497 215 507 q 142 463 161 486 q 122 401 122 439 q 139 347 122 368 q 183 312 156 325 q 240 288 210 299 q 315 258 278 274 q 377 216 353 243 q 401 142 401 189 q 383 62 401 96 q 328 8 364 28 q 238 -11 292 -11 m 149 -251 q 192 -277 165 -267 q 256 -287 218 -287 q 346 -266 313 -287 q 379 -203 379 -244 q 351 -140 379 -165 q 265 -114 324 -114 q 211 -120 242 -114 q 164 -135 181 -126 l 144 -117 l 246 7 l 268 -6 l 174 -122 l 153 -117 q 202 -99 168 -107 q 267 -90 236 -90 q 372 -119 335 -90 q 408 -203 408 -149 q 388 -262 408 -239 q 334 -298 368 -286 q 258 -310 300 -310 q 188 -299 219 -310 q 135 -272 156 -289 l 149 -251 z "},"ŝ":{"ha":478,"x_min":56,"x_max":428,"o":"m 238 -11 q 152 3 199 -11 q 75 56 106 18 l 92 72 q 151 29 113 46 q 238 13 190 13 q 302 24 271 13 q 354 62 333 35 q 375 135 375 89 q 353 201 375 176 q 297 238 331 225 q 225 264 263 251 q 135 310 174 282 q 96 399 96 338 q 116 472 96 443 q 169 517 136 501 q 239 532 203 532 q 311 518 271 532 q 382 471 351 504 l 367 453 q 306 494 343 482 q 240 507 268 507 q 188 497 215 507 q 142 463 161 486 q 122 401 122 439 q 139 347 122 368 q 183 312 156 325 q 240 288 210 299 q 315 258 278 274 q 377 216 353 243 q 401 142 401 189 q 383 62 401 96 q 328 8 364 28 q 238 -11 292 -11 m 399 667 l 233 857 l 251 858 l 85 667 l 56 667 l 240 878 l 242 878 l 428 667 l 399 667 z "},"ș":{"ha":478,"x_min":75,"x_max":401,"o":"m 238 -11 q 152 3 199 -11 q 75 56 106 18 l 92 72 q 151 29 113 46 q 238 13 190 13 q 302 24 271 13 q 354 62 333 35 q 375 135 375 89 q 353 201 375 176 q 297 238 331 225 q 225 264 263 251 q 135 310 174 282 q 96 399 96 338 q 116 472 96 443 q 169 517 136 501 q 239 532 203 532 q 311 518 271 532 q 382 471 351 504 l 367 453 q 306 494 343 482 q 240 507 268 507 q 188 497 215 507 q 142 463 161 486 q 122 401 122 439 q 139 347 122 368 q 183 312 156 325 q 240 288 210 299 q 315 258 278 274 q 377 216 353 243 q 401 142 401 189 q 383 62 401 96 q 328 8 364 28 q 238 -11 292 -11 m 176 -256 l 163 -243 q 217 -169 201 -215 q 225 -64 232 -124 l 256 -64 q 254 -137 258 -100 q 231 -205 250 -174 q 176 -256 213 -236 z "},"ß":{"ha":781,"x_min":69,"x_max":704,"o":"m 160 594 q 188 767 160 696 q 271 875 217 838 q 403 915 325 913 q 524 885 476 914 q 594 813 571 857 q 618 722 618 769 q 583 608 618 654 q 492 540 549 563 q 601 488 553 526 q 676 393 649 449 q 704 271 704 338 q 666 128 704 192 q 563 26 628 64 q 421 -11 499 -11 q 342 0 379 -11 q 272 31 304 11 l 285 51 q 347 22 313 32 q 417 13 381 13 q 548 48 489 13 q 642 142 607 83 q 678 272 678 201 q 644 399 678 342 q 554 492 611 457 q 425 526 497 526 l 419 526 l 419 553 q 540 597 490 553 q 590 714 590 640 q 570 799 590 758 q 509 864 550 839 q 406 889 468 889 q 242 809 297 889 q 186 597 186 729 l 186 0 l 160 0 l 160 511 l 69 511 l 69 538 l 160 538 l 160 594 z "},"t":{"ha":422,"x_min":63,"x_max":388,"o":"m 185 754 l 213 754 l 213 514 l 388 514 l 388 490 l 213 490 l 213 0 l 185 0 l 185 490 l 63 490 l 63 514 l 185 514 l 185 754 z "},"ŧ":{"ha":422,"x_min":53,"x_max":388,"o":"m 185 754 l 213 754 l 213 514 l 388 514 l 388 490 l 213 490 l 213 0 l 185 0 l 185 490 l 63 490 l 63 514 l 185 514 l 185 754 m 53 297 l 375 297 l 375 271 l 53 271 l 53 297 z "},"ť":{"ha":422,"x_min":63,"x_max":388,"o":"m 185 754 l 213 754 l 213 514 l 388 514 l 388 490 l 213 490 l 213 0 l 185 0 l 185 490 l 63 490 l 63 514 l 185 514 l 185 754 m 296 636 l 282 649 q 336 722 321 676 q 344 828 351 768 l 375 828 q 374 755 378 792 q 351 687 369 718 q 296 636 332 656 z "},"ţ":{"ha":422,"x_min":63,"x_max":388,"o":"m 185 754 l 213 754 l 213 514 l 388 514 l 388 490 l 213 490 l 213 0 l 185 0 l 185 490 l 63 490 l 63 514 l 185 514 l 185 754 m 89 -250 q 132 -276 106 -265 q 196 -286 158 -286 q 286 -265 253 -286 q 319 -201 319 -243 q 292 -138 319 -164 q 206 -112 264 -112 q 151 -119 182 -112 q 104 -133 121 -125 l 85 -115 l 186 8 l 208 -4 l 114 -121 l 93 -115 q 142 -97 108 -106 q 207 -89 176 -89 q 312 -118 275 -89 q 349 -201 349 -147 q 328 -261 349 -237 q 274 -297 308 -285 q 199 -308 240 -308 q 128 -298 160 -308 q 75 -271 96 -287 l 89 -250 z "}}}
